<svg xmlns="http://www.w3.org/2000/svg" xmlns:xlink="http://www.w3.org/1999/xlink" version="1.1" width="612pt" height="803.25pt" viewBox="0 0 612 803.25">
<defs>
<clipPath id="clip_0">
<path transform="matrix(1,0,0,-1,0,803.25)" d="M0 0H612V803.25H0Z"/>
</clipPath>
<clipPath id="clip_1">
<path transform="matrix(1,0,0,-1,0,803.25)" d="M0 0H612V803.25H0Z"/>
</clipPath>
<clipPath id="clip_2">
<path transform="matrix(1,0,0,-1,0,803.25)" d="M0 0H612V803.25H0Z"/>
</clipPath>
</defs>
<text xml:space="preserve" transform="matrix(1.048304 0 -0 1.048304 15.9375 0)" font-size="12" font-family="HelveticaNeue"><tspan y="11.424" x="0"> </tspan></text>
<g clip-path="url(#clip_0)">
<path transform="matrix(1,0,0,-1,0,803.25)" d="M127.5506 677.4157C127.5506 665.8572 121.2972 655.759 111.9885 650.3207 107.3496 647.6106 101.9522 646.0571 96.19196 646.0571 84.63344 646.0571 74.53525 652.3105 69.09698 661.6191 66.38685 666.258 64.83335 671.6554 64.83335 677.4157 64.83335 688.9742 71.08676 699.0724 80.39539 704.5107 85.03428 707.2208 90.43167 708.7743 96.19196 708.7743 107.7505 708.7743 117.8487 702.5209 123.2869 693.2123 125.9971 688.5734 127.5506 683.176 127.5506 677.4157M125.1599 677.4157C125.1599 682.7361 123.726 687.7216 121.2228 692.0063 116.1988 700.6058 106.8702 706.3837 96.19196 706.3837 90.87159 706.3837 85.88607 704.9497 81.60132 702.4465 73.00184 697.4225 67.22398 688.094 67.22398 677.4157 67.22398 672.0953 68.65792 667.1098 71.16115 662.8251 76.18512 654.2256 85.51368 648.4477 96.19196 648.4477 101.5123 648.4477 106.4978 649.8817 110.7826 652.3849 119.3821 657.4089 125.1599 666.7374 125.1599 677.4157M236.7487 677.9528C236.7487 666.6668 230.6427 656.8066 221.5535 651.4966 217.024 648.8503 211.7538 647.3334 206.1293 647.3334 194.8433 647.3334 184.9832 653.4394 179.6731 662.5286 177.0268 667.0581 175.5099 672.3283 175.5099 677.9528 175.5099 689.2388 181.6159 699.099 190.7051 704.409 195.2346 707.0553 200.5048 708.5722 206.1293 708.5722 217.4153 708.5722 227.2755 702.4662 232.5855 693.377 235.2318 688.8475 236.7487 683.5773 236.7487 677.9528M234.358 677.9528C234.358 683.1374 232.9607 687.9957 230.5214 692.1711 225.6256 700.5511 216.5351 706.1815 206.1293 706.1815 200.9447 706.1815 196.0864 704.7842 191.911 702.3449 183.531 697.4491 177.9006 688.3586 177.9006 677.9528 177.9006 672.7682 179.2979 667.9099 181.7373 663.7345 186.633 655.3545 195.7235 649.7241 206.1293 649.7241 211.3139 649.7241 216.1722 651.1214 220.3476 653.5607 228.7276 658.4565 234.358 667.547 234.358 677.9528M357.9612 680.6563C357.7631 670.254 351.6132 661.1789 342.3822 655.9674 337.1587 653.0184 330.9517 651.3103 324.3025 651.3103 324.0561 651.3103 323.809 651.3127 323.5614 651.3174 310.5051 651.5661 299.3276 658.3356 293.8756 667.9875 291.5842 672.044 290.2989 676.6113 290.2989 681.4289 290.2989 681.6007 290.3006 681.7727 290.3038 681.9451 290.502 692.3474 296.6519 701.4225 305.8829 706.634 311.1064 709.583 317.3133 711.2911 323.9625 711.2911 324.209 711.2911 324.4561 711.2887 324.7037 711.284 337.7599 711.0353 348.9375 704.2659 354.3895 694.614 356.6808 690.5575 357.9662 685.9901 357.9662 681.1725 357.9662 681.0008 357.9645 680.8287 357.9612 680.6563M355.571 680.7018C355.574 680.859 355.5755 681.0159 355.5755 681.1725 355.5755 685.5694 354.3989 689.7365 352.308 693.4382 347.2302 702.4277 336.7912 708.6627 324.6582 708.8938 324.4257 708.8983 324.1939 708.9005 323.9625 708.9005 317.7467 708.9005 311.9421 707.3096 307.0582 704.5523 298.588 699.7703 292.8763 691.4686 292.694 681.8996 292.691 681.7424 292.6895 681.5855 292.6895 681.4289 292.6895 677.0321 293.8662 672.8649 295.9571 669.1632 301.0349 660.1737 311.4739 653.9387 323.6069 653.7076 323.8393 653.7032 324.0712 653.701 324.3025 653.701 330.5184 653.701 336.3229 655.2919 341.2069 658.0492 349.677 662.8311 355.3888 671.1328 355.571 680.7018M486.7518 683.9127C486.7518 671.4194 479.9926 660.5045 469.9312 654.6265 464.9172 651.6972 459.0833 650.0181 452.8572 650.0181 440.3639 650.0181 429.4491 656.7773 423.571 666.8387 420.6417 671.8527 418.9626 677.6866 418.9626 683.9127 418.9626 696.406 425.7218 707.3208 435.7832 713.1989 440.7973 716.1282 446.6311 717.8072 452.8572 717.8072 465.3505 717.8072 476.2653 711.0481 482.1434 700.9866 485.0727 695.9726 486.7518 690.1388 486.7518 683.9127M484.3612 683.9127C484.3612 689.6988 482.8016 695.1208 480.0793 699.7807 474.6155 709.133 464.4703 715.4166 452.8572 715.4166 447.0711 715.4166 441.6491 713.8571 436.9892 711.1347 427.6369 705.6709 421.3533 695.5257 421.3533 683.9127 421.3533 678.1265 422.9128 672.7045 425.6352 668.0446 431.099 658.6923 441.2442 652.4087 452.8572 652.4087 458.6434 652.4087 464.0654 653.9682 468.7253 656.6906 478.0775 662.1544 484.3612 672.2996 484.3612 683.9127" fill="#006fff"/>
</g>
<g clip-path="url(#clip_1)">
<path transform="matrix(1,0,0,-1,0,803.25)" d="M86.45936 686.7308C87.06371 686.9964 87.76897 686.7218 88.03459 686.1175 88.30021 685.5131 88.02562 684.8079 87.42126 684.5423 86.48734 684.1318 86.0313 684.5037 85.5695 684.8103 84.79049 685.3274 84.3541 686.2748 85.23282 687.1801 85.72923 687.6915 86.7661 687.7285 87.27331 687.4238 88.62166 686.6139 89.09259 685.089 89.83075 683.7276 90.32168 682.8222 90.82932 681.9909 91.48254 681.5147 92.26086 680.9472 94.01025 680.7403 96.0506 681.3824 96.81926 681.6243 97.64786 682.0572 98.49378 682.5138 100.7225 683.7168 101.9656 684.6593 102.5023 685.2676L102.8029 685.7151C102.8031 685.7161 102.8657 685.4681 102.8338 685.5366 102.5552 686.1351 102.8146 686.8461 103.4131 687.1246 104.0116 687.4032 104.7226 687.1438 105.0012 686.5453 105.7768 684.8788 104.1789 682.8658 99.62927 680.4101 98.76088 679.9414 97.8149 679.4314 96.76825 679.102 94.23166 678.3037 91.75351 678.3586 90.07422 679.5829 88.902 680.4375 88.25338 681.6214 87.72918 682.5881 87.22874 683.5111 86.7476 684.4342 86.34325 685.0065L86.04227 685.3745C86.0215 685.387 86.23361 685.3022 86.16835 685.3214 86.06147 685.3528 86.77369 685.3671 86.60996 685.3216 86.44833 685.2767 87.00562 685.5741 86.94821 685.515 86.85722 685.4212 87.1839 685.887 87.14256 685.7973 87.07367 685.6479 87.22969 686.2633 87.22842 686.1661 87.22663 686.0283 87.10386 686.6073 87.15328 686.507 87.20374 686.4046 86.76394 686.8868 86.89169 686.802L86.90301 686.7969C86.91221 686.7946 86.75257 686.8079 86.81123 686.8069 86.87849 686.8058 86.28939 686.6561 86.45936 686.7308M96.25595 680.8512C96.91292 680.7864 97.39296 680.2013 97.32815 679.5443 97.26334 678.8874 96.67823 678.4073 96.02127 678.4721 96.0045 678.4738 96.24618 678.502 96.16673 678.4846 96.01142 678.4507 96.77211 679.0075 96.66149 678.835 96.58394 678.7141 96.76772 679.141 96.7627 679.0974L96.96365 678.4822 97.97719 676.8007C98.93404 675.0107 98.97715 673.216 99.03404 672.0092L99.13354 671.0474C99.16127 670.9827 98.63154 671.3401 98.6927 671.3486 99.34666 671.4388 99.94994 670.9818 100.0402 670.3279 100.1304 669.6739 99.67342 669.0706 99.01946 668.9804 98.23533 668.8722 97.22782 669.4255 96.93637 670.1053 96.53517 671.0409 96.66416 671.8814 96.59725 672.8106 96.52943 673.7525 96.36594 674.7438 95.86887 675.6737 95.58672 676.2016 95.10823 676.7555 94.77195 677.5275 94.50562 678.1389 94.30032 678.7097 94.39186 679.404 94.49018 680.1497 95.49741 680.926 96.25595 680.8512M198.095 671.374C198.7269 671.5648 199.394 671.2073 199.5848 670.5753 199.7757 669.9433 199.4181 669.2763 198.7861 669.0855 198.4086 668.9714 198.1832 668.6683 197.3557 669.0647 196.8453 669.3091 196.5886 670.1689 196.6794 670.5278 196.758 670.8381 196.8655 670.9681 196.9497 671.0876 197.6171 672.0351 198.2969 672.9738 198.6845 674.3021L199.3093 676.8677 200.2588 681.0606 200.6195 683.2322 200.9084 685.8832C200.9723 686.8734 201.5268 687.566 201.8344 687.9032L202.4166 688.7229C202.7278 689.1337 203.7804 689.5386 204.4211 689.3014 205.0402 689.0723 205.3564 688.3847 205.1272 687.7656 204.8981 687.1465 204.2105 686.8303 203.5914 687.0594L204.322 687.2792C204.2619 687.1999 204.032 686.7649 203.6006 686.2921 203.3916 686.063 203.3091 685.9621 203.294 685.7291L202.9852 682.8879 202.5989 680.5718 201.6433 676.3503 200.9794 673.6324C200.4683 671.8808 199.5678 670.6532 198.9042 669.711L198.9189 669.7366C198.9039 669.7091 199.0115 669.9859 198.9851 669.8982 198.9597 669.8139 199.0127 670.4639 199.0261 670.2856 199.0384 670.1199 198.7087 671.0191 198.8315 670.8394 198.9386 670.6825 198.3244 671.2595 198.4531 671.187 198.5609 671.1264 198.0971 671.3152 198.1735 671.297 198.2973 671.2676 197.8882 671.3213 197.9319 671.3229ZM207.9874 689.9507C208.1978 689.325 207.8611 688.6472 207.2354 688.4368 206.6096 688.2264 205.9318 688.5631 205.7214 689.1889 205.5906 689.5781 205.5302 689.995 205.6619 690.4517 205.7998 690.9305 206.3282 691.4957 206.9693 691.5444 208.1359 691.6331 208.5555 690.7979 208.9181 690.1883 209.2907 689.5616 209.6362 688.7835 210.0271 687.8664 210.7337 686.2087 211.553 683.8357 212.6261 681.5291 213.1579 680.386 213.7891 679.2678 214.4008 678.2362 217.0818 673.7148 218.1319 673.9267 218.163 672.3934 218.1763 671.7334 217.6521 671.1875 216.9921 671.1741 216.3321 671.1608 215.7862 671.685 215.7728 672.345 215.7716 672.4071 215.9124 672.058 215.8765 672.1052 215.7784 672.2344 214.5036 673.3756 212.3445 677.0169 211.7122 678.0832 211.0418 679.2669 210.4585 680.5207 209.3236 682.9603 208.481 685.3969 207.8279 686.929L206.8633 688.9663 206.629 689.3016C206.6289 689.3017 206.8169 689.1956 206.7367 689.2341 206.6466 689.2773 207.3208 689.1736 207.1505 689.1606 206.9522 689.1456 207.8698 689.5511 207.7216 689.4123 207.6142 689.3117 207.9681 689.7994 207.9311 689.7106 207.8798 689.5873 207.981 689.9907 207.9874 689.9507M201.8649 681.0908C202.5209 681.1646 203.1125 680.6926 203.1863 680.0366 203.2601 679.3805 202.7881 678.7889 202.132 678.7152L199.8698 678.4471 199.227 678.3172C199.1859 678.3046 199.3979 678.4232 199.2905 678.3565 199.2584 678.3365 199.4707 678.4974 199.4176 678.451 199.3754 678.414 199.6166 678.6758 199.5631 678.6062 199.4778 678.4953 199.8227 679.3562 199.785 679.1221 199.746 678.8803 199.5665 680.0391 199.6696 679.8405 199.7603 679.6658 199.3178 680.2144 199.3909 680.164 199.5036 680.0862 199.2848 680.2164 199.3677 680.198 200.3141 679.9877 203.2786 680.2075 205.943 680.2825L212.7652 680.5938C213.571 680.6215 214.2079 680.6351 214.7743 680.5436 215.0598 680.4974 215.3874 680.4717 215.7855 680.0955 216.2344 679.6712 216.2176 678.7195 215.9789 678.3431 215.6253 677.7856 214.8868 677.6203 214.3293 677.9739 213.7718 678.3274 213.6065 679.066 213.9601 679.6235 213.9857 679.6639 213.844 679.3535 213.873 679.4389 213.9026 679.5263 213.8223 678.9689 213.8206 679.1027 213.8189 679.2355 213.9631 678.5684 213.9076 678.6964 213.8546 678.8187 214.1727 678.3245 214.1027 678.3989 213.9755 678.534 214.4448 678.1689 214.3895 678.1924L206.0103 677.8928 201.2543 677.718 199.314 677.7867C198.7542 677.8549 198.0527 677.7662 197.5477 678.7393 197.3483 679.1235 197.4272 679.6958 197.605 679.9739 198.0989 680.7462 198.3772 680.5637 198.6371 680.6349L199.514 680.8111ZM319.4851 688.7096C319.8134 688.1369 319.6152 687.4065 319.0425 687.0782 318.4698 686.7499 317.7393 686.948 317.411 687.5208 316.8613 688.4799 317.2506 689.7882 318.4387 690.1155 319.2677 690.3439 320.069 689.9039 320.5282 689.4074 320.9833 688.9152 321.3009 688.3001 321.5724 687.5895 321.843 686.8811 322.0944 686.0303 322.276 685.036 322.6029 683.2464 322.6165 681.0651 322.6316 678.9593V675.5487L322.5545 672.2349 322.4423 671.5689C322.3882 671.4111 322.366 670.9622 321.5856 670.7584 320.7985 670.553 320.3658 671.1077 320.2491 671.2889 319.9295 671.7855 320.0011 671.9226 319.9397 672.2166 319.7402 673.1733 319.4963 674.6936 319.099 676.1183 318.9217 676.7542 319.2934 677.4135 319.9293 677.5908 320.5652 677.7681 321.2244 677.3964 321.4018 676.7605 321.9141 674.9234 322.1844 673.0329 322.3405 672.4383 322.3522 672.3938 322.2758 672.5673 322.3209 672.4728 322.3331 672.4474 322.2346 672.6218 322.2633 672.5766 322.2931 672.5296 322.0426 672.8364 322.1172 672.7604 322.1949 672.6812 321.5428 673.0986 321.733 673.0195 321.9278 672.9385 320.7653 673.0221 321.0147 673.0796 321.2517 673.1343 320.3665 672.6926 320.4822 672.7991 320.5873 672.8959 320.2357 672.4802 320.2768 672.5482 320.3491 672.6679 320.1575 672.2693 320.1711 672.3141 320.2088 672.438 320.1589 672.2661 320.169 672.3934L320.2411 675.569V678.9421C320.2261 681.0256 320.1934 683.1335 319.9243 684.6064 319.7697 685.4529 319.5591 686.1608 319.3392 686.7363 319.1392 687.2599 318.9145 687.6313 318.773 687.7843L318.7442 687.8259C318.6787 687.8534 319.1905 687.843 319.0738 687.8108 318.943 687.7748 319.4763 688.0827 319.3987 688.0023 319.288 687.8879 319.5784 688.4391 319.5644 688.3338 319.5504 688.2276 319.4039 688.8513 319.4851 688.7096M319.6457 689.2858C320.0688 688.7791 320.0011 688.0253 319.4944 687.6022 318.9877 687.179 318.2339 687.2467 317.8108 687.7534L316.9447 688.4758C316.7068 688.7058 316.4034 689.294 316.5852 689.8513 316.8358 690.6195 317.3065 690.697 317.6084 690.8118L318.6272 691.0816C321.2511 691.6001 324.1469 692.0082 326.5593 692.0178 327.7217 692.0224 328.7402 691.9578 329.6175 691.6165 330.0588 691.4448 330.5238 691.1773 330.8306 690.6652 331.1455 690.1395 331.1378 689.4412 330.9329 688.926 330.689 688.3125 329.994 688.0129 329.3806 688.2568 328.7671 688.5007 328.4676 689.1958 328.7115 689.8092 328.7151 689.8184 328.7038 689.6251 328.7013 689.7022 328.6988 689.7806 328.8129 689.3768 328.7718 689.4505 328.7353 689.5158 328.8756 689.325 328.8612 689.3367 328.4567 689.668 323.2697 689.5622 319.0907 688.7363L318.4457 688.5735C318.4238 688.5616 318.6623 688.7491 318.5888 688.6802 318.5282 688.6235 318.8626 689.0908 318.7947 688.9572 318.7416 688.8526 318.9205 689.479 318.9058 689.3364 318.8838 689.121 318.7333 690.0653 318.8054 689.9158 318.8732 689.7751 318.5515 690.2475 318.6067 690.1942 318.6585 690.1441 319.1783 689.8455 319.6457 689.2858M322.2996 684.2551C322.9596 684.2683 323.5054 683.7439 323.5185 683.0839 323.5317 682.4239 323.0074 681.8782 322.3473 681.865L319.6869 681.7631 318.8142 681.6801 318.6461 681.6509C318.6459 681.6509 318.7609 681.6937 318.7115 681.6737 318.6833 681.6623 318.8872 681.7648 318.8326 681.7332 318.7736 681.699 319.171 682.0224 319.0714 681.92 318.611 681.4468 317.8543 681.4364 317.3811 681.8967 316.9079 682.357 316.8975 683.1138 317.3578 683.587 318.0833 684.3327 318.1806 683.9535 318.2651 683.9518L319.6478 683.7933C320.3455 683.7216 321.244 683.6596 322.2685 683.6747 325.1695 683.7175 327.9736 683.9633 330.3509 684.1724 332.6255 684.3726 334.3103 684.6108 335.5559 684.3628 336.2034 684.2339 336.6237 683.6045 336.4948 682.9571 336.3659 682.3096 335.7365 681.8893 335.0891 682.0182 333.8323 682.2684 328.2893 681.3727 322.3038 681.2843 321.0877 681.2664 320.0417 681.3458 319.2586 681.4305L318.382 681.538 318.1836 681.5629 318.2172 681.5617C318.1912 681.5622 318.4531 681.58 318.3675 681.5696 318.3196 681.5638 318.6788 681.6474 318.579 681.6157 318.4689 681.5808 319.2814 682.1359 319.0714 681.92L317.3578 683.587C318.0502 684.2987 318.1902 684.0059 318.4766 684.0468L319.5252 684.1483ZM457.2027 693.1289C457.8535 693.0178 458.2909 692.4002 458.1798 691.7495 458.0688 691.0987 457.4512 690.6612 456.8004 690.7723 454.9542 691.0875 453.7181 691.5979 452.8078 691.5344 452.4119 691.5068 450.1788 690.605 448.5519 688.6117 447.7902 687.6786 447.0963 686.4521 446.7069 685.1557 446.4876 684.426 446.3892 683.658 446.3838 682.9144 446.378 682.1097 446.4286 681.4051 446.5983 680.8725 447.0064 679.5915 448.4238 678.7081 450.2941 678.2455 451.2368 678.0124 452.3356 677.9215 453.5228 677.9728 456.3356 678.0943 460.1905 679.348 463.3967 681.3249 464.9987 682.3126 466.392 683.3824 467.1978 684.4789 468.2098 685.856 468.1702 687.5176 467.432 688.8059 466.7519 689.9928 464.9169 690.9825 462.752 691.3817 460.1984 691.8527 457.2283 691.3895 455.3654 690.5268 454.7664 690.2494 454.0559 690.5101 453.7785 691.1091 453.501 691.7081 453.7617 692.4186 454.3608 692.6961 456.7518 693.8034 460.0643 694.3084 463.1856 693.7327 465.7858 693.2532 468.2898 692.1173 469.5062 689.9945 470.6669 687.9689 470.7057 685.2152 469.1241 683.0632 468.0153 681.5543 466.3864 680.3597 464.6514 679.29 461.1057 677.1038 457.0008 675.7301 453.626 675.5844 452.2501 675.525 450.9306 675.6254 449.7201 675.9248 447.4264 676.4921 445.0854 677.7458 444.3205 680.1468 444.0255 681.0726 443.9866 682.0179 443.9933 682.9318 444.0001 683.8749 444.1234 684.8652 444.4173 685.8435 444.9093 687.4814 445.7452 688.9537 446.6999 690.1234 447.7266 691.3813 448.8918 692.2936 449.9617 692.9174 450.9878 693.5156 451.8441 693.8636 452.6414 693.9192 454.3035 694.0352 455.6372 693.3961 457.2027 693.1289" fill="#ed3624"/>
<path transform="matrix(1,0,0,-1,0,803.25)" d="M123.808 703.5219C124.4671 703.5581 125.0309 703.0531 125.0671 702.394 125.1034 701.7348 124.5984 701.1711 123.9392 701.1348L123.0544 701.0807 122.7148 701.112C122.5379 701.1509 121.9883 701.2504 121.7973 701.9908 121.6551 702.542 121.905 702.896 122.0225 703.0442 122.2954 703.3884 122.3599 703.3455 122.4283 703.3873L123.0481 703.8164C123.6506 704.2382 124.6474 705.5391 126.6446 707.0515 128.0802 708.1386 130.1282 709.454 132.8207 710.6483 134.0916 711.212 135.4722 711.7284 136.8758 712.1858 141.8881 713.8191 146.8835 714.2589 151.1626 714.3512 155.1706 714.4377 158.8212 714.2606 162.0108 712.7792 164.2455 711.7412 165.8676 710.1138 167.3363 708.7759 168.2406 707.9521 169.3089 707.1535 170.3366 706.4892L172.6272 705.0998 173.3473 704.6828C174.3821 704.0742 175.3233 703.2871 176.1088 702.6502L177.0238 702.0011 177.6794 701.4952C178.1915 701.0424 178.3428 700.5965 178.4092 700.5015L178.689 700.2421 178.7774 700.1749C178.8138 700.1603 178.2877 700.2232 178.4751 700.225 178.5787 700.226 177.9224 700.0751 178.0779 700.141 178.2393 700.2095 177.5194 699.6436 177.6344 699.7954 177.7146 699.9012 177.4797 699.3387 177.4916 699.443 177.5011 699.5266 177.4978 699.2817 177.4947 699.2959 177.4766 699.379 176.8179 700.2819 176.3135 701.3364 175.8181 702.3722 175.2805 703.8534 174.723 705.2424L173.9291 707.0317 173.7387 707.469C173.697 707.5628 173.8324 707.3803 173.7439 707.4928 173.687 707.5653 174.1393 707.159 174.0104 707.2456 173.8769 707.3355 174.7705 707.0287 174.5523 707.0506 174.3356 707.0722 175.3192 707.2221 175.1539 707.148 174.9981 707.0782 175.5697 707.4529 175.4934 707.3786 175.3552 707.2439 175.7477 707.7447 175.714 707.678 175.6575 707.5659 175.7851 707.8655 175.7805 707.8479 175.7296 707.6516 175.5922 705.6063 175.6727 703.4958L175.9686 699.2011 176.1313 697.8633C176.1807 697.4327 176.3594 696.9067 175.8322 696.2116 175.4725 695.7375 175.0017 695.6811 174.7307 695.6738 173.9016 695.6515 173.3352 695.9649 172.5531 696.2878L169.9939 697.404 166.9208 698.7716 166.2051 699.0409 166.1086 699.0744C165.4534 698.9932 164.8566 699.4586 164.7754 700.1137 164.6943 700.7689 165.1596 701.3658 165.8148 701.4469 167.2845 701.6289 168.3148 700.7454 170.9503 699.595L173.7666 698.3756 174.6351 698.0779 174.6665 698.0636C174.7133 698.0648 174.2837 697.968 174.4108 698.0131 174.5498 698.0623 173.7781 697.4595 173.9275 697.6564 174.009 697.7638 173.7738 697.3259 173.7912 697.3883 173.8166 697.4795 173.778 697.3017 173.7757 697.3643L173.5856 699.0111 173.2838 703.4047C173.2334 704.7255 173.2498 705.9655 173.3007 706.9328L173.3978 708.0821 173.4942 708.5441C173.527 708.6468 173.5291 708.7879 173.8027 709.0685 173.9634 709.2332 174.3233 709.4719 174.7796 709.4303 175.2293 709.3894 175.4981 709.1296 175.6235 708.9701 175.9639 708.537 175.9829 708.2944 176.1107 708.0093L176.9416 706.1328C177.5135 704.708 178.0622 703.2209 178.4702 702.368L179.3786 700.8607C179.5463 700.5751 179.7131 700.2736 179.8126 699.8807 179.917 699.469 179.9109 698.8412 179.5398 698.3516 179.2638 697.9873 178.7972 697.8374 178.498 697.8345 177.7295 697.8272 177.4943 698.1366 177.1966 698.3746 176.9014 698.6104 176.6691 698.8179 176.4492 699.1326L176.0957 699.7044 175.5934 700.0856 174.6033 700.7932C173.816 701.4315 172.9423 702.1476 172.1354 702.6221L171.436 703.0271 169.0388 704.4815C167.9115 705.2102 166.7512 706.0751 165.7264 707.0086 164.2269 708.3746 162.7824 709.7848 161.0037 710.611 158.3617 711.8382 155.095 712.0449 151.2141 711.9611 147.0696 711.8717 142.3095 711.4421 137.6165 709.9128 136.2799 709.4773 134.9705 708.9865 133.79 708.463 131.2838 707.3513 129.3936 706.1344 128.0877 705.1456 126.3149 703.8032 125.5565 702.6541 124.419 701.8579L123.6753 701.3477 123.6921 701.3604C123.6728 701.3462 123.8336 701.4842 123.7871 701.4402 123.7387 701.3944 124.0811 701.8565 123.9942 701.7045 123.95 701.6271 124.1507 702.158 124.1186 702.021 124.0861 701.8821 124.0926 702.7002 124.128 702.5177 124.1627 702.339 123.8183 703.1305 123.9157 702.9993 124.0072 702.8761 123.5482 703.3295 123.6361 703.269 123.7952 703.1597 123.1965 703.4566 123.2784 703.4346 123.414 703.3982 123.0181 703.4719 123.052 703.4705ZM139.8391 734.562C140.4936 734.476 140.9546 733.8757 140.8686 733.2212 140.7827 732.5667 140.1824 732.1057 139.5279 732.1917 138.0132 732.3906 136.8723 732.6167 136.595 732.5699 136.5155 732.5565 136.7447 732.6224 136.7437 732.6217L136.5549 732.4667C135.9164 731.9231 135.2098 731.5111 134.748 730.797 134.3661 730.2065 134.0688 728.6729 134.0897 727.1838 134.1206 724.9731 134.8029 724.1026 136.4719 723.7964 138.181 723.4829 140.6733 724.0794 142.6253 725.4617 144.1649 726.552 145.4399 728.1447 146.1316 729.6647 146.4872 730.4462 146.6358 731.2267 146.6048 731.8209 146.571 732.4705 146.1432 732.9214 144.9516 733.1972 143.6674 733.4945 142.265 733.4891 141.2711 733.2609 140.8081 733.1546 140.4755 732.9943 140.3605 732.9016 140.318 732.8674 140.3839 732.9819 140.3586 732.9245 140.3296 732.8584 140.3725 733.2098 140.3844 733.1555 140.5251 732.5105 140.1163 731.8735 139.4714 731.7328 138.8264 731.5921 138.1894 732.0009 138.0487 732.6459 137.8691 733.4693 138.3108 734.3202 138.8607 734.7633 140.4572 736.0495 143.0241 736.0973 145.4907 735.5263 147.3096 735.1052 148.8966 733.7783 148.9922 731.9453 149.047 730.8942 148.8052 729.7682 148.3075 728.6745 147.428 726.7417 145.9214 724.8666 144.0069 723.5108 141.5607 721.7785 138.5715 720.9808 136.0406 721.445 134.7284 721.6858 133.5518 722.3133 132.7974 723.3277 132.0403 724.3457 131.72 725.6709 131.6993 727.1504 131.6744 728.9283 131.868 730.746 132.7405 732.0952 133.5391 733.33 134.6314 733.9687 135.0051 734.2869 135.2243 734.4735 135.5822 734.8236 136.1977 734.9273 137.3823 735.127 138.4605 734.743 139.8391 734.562M151.8953 725.5434C152.5548 725.514 153.0656 724.9555 153.0362 724.296 153.0067 723.6365 152.4482 723.1257 151.7887 723.1552 150.9369 723.1932 150.445 723.2216 149.8665 723.5479 149.7735 723.6003 149.6396 723.6464 149.4421 723.9284 149.2362 724.2225 149.2083 725.1332 149.6065 725.5043 150.1689 726.0285 150.3663 725.8378 150.5025 725.8362 150.8614 725.8318 151.1319 725.757 151.5561 725.635 152.1905 725.4526 152.5569 724.7903 152.3745 724.1559 152.192 723.5215 151.5298 723.1551 150.8953 723.3375L150.4351 723.4474 150.4936 723.4458C150.4569 723.4453 150.7852 723.4887 150.685 723.4677 150.6337 723.457 150.9687 723.564 150.8847 723.5294 150.7979 723.4936 151.334 723.8399 151.2082 723.73 151.0789 723.617 151.6311 724.4901 151.5555 724.2568 151.4816 724.0286 151.5274 725.1057 151.5757 724.9188 151.6202 724.7464 151.338 725.3884 151.3997 725.3006 151.5093 725.1444 151.0814 725.6091 151.1421 725.5646 151.242 725.4914 150.9465 725.6762 150.9718 725.6651ZM161.6537 737.4211C162.313 737.4537 162.874 736.9457 162.9066 736.2863 162.9392 735.627 162.4311 735.066 161.7718 735.0334 161.1953 735.0049 160.7661 735.1384 160.2631 735.4124 159.9091 735.6053 159.5962 735.9025 159.4341 736.354 159.2649 736.8256 159.3831 737.5362 159.8023 737.9381 160.5561 738.6608 161.3528 738.6217 162.1914 738.6875L164.9819 738.8475C166.739 738.9841 168.8454 739.082 170.435 738.9445 171.047 738.8916 171.623 738.7951 172.16 738.3918 172.7274 737.9657 172.99 736.9617 172.7353 736.3043 172.4341 735.5265 171.9988 735.2735 171.3876 734.7429 170.7478 734.1874 169.9373 733.5796 169.0101 733.0279 168.0233 732.4409 167.0392 731.9625 166.2595 731.5671L165.1725 731.0119C165.088 730.9624 165.2391 731.1134 165.1526 731.0194 165.1261 730.9906 165.2889 731.2108 165.2511 731.15 165.1901 731.0518 165.4198 731.8083 165.4014 731.6051 165.3824 731.3954 165.1866 732.3829 165.2767 732.2159 165.3308 732.1156 165.0804 732.4566 165.122 732.4184 165.2831 732.2705 167.4245 732.1511 169.2791 731.2237 170.4418 730.6423 171.3894 729.8795 172.0594 729.1019 172.324 728.7947 172.7159 728.5138 172.9139 727.7885 173.0293 727.3659 172.9789 726.7939 172.6979 726.3828 171.9162 725.2399 170.8711 725.4499 169.9843 725.4307 167.4963 725.3769 165.441 725.4683 164.0446 725.3621 163.3863 725.3121 162.8121 725.8051 162.7621 726.4633 162.712 727.1216 163.205 727.6958 163.8633 727.7459 165.4922 727.8697 167.5238 727.7687 169.9327 727.8208L170.9265 727.9253 170.8935 727.9048C170.9571 727.9475 170.5734 727.3958 170.6405 727.5714 170.7077 727.7474 170.6257 727.0929 170.6077 727.1589 170.5756 727.2763 170.6518 727.0607 170.5921 727.138L170.2482 727.5415C169.8059 728.0549 169.0759 728.6524 168.2099 729.0855 167.6224 729.3793 166.6773 729.5914 165.7678 729.7938L164.4679 730.1316C164.0535 730.2728 163.5426 730.3952 163.1728 731.0807 162.865 731.6512 163.1591 732.3836 163.3933 732.6381 163.973 733.2681 164.5012 733.356 165.1783 733.6993L167.7878 735.0825C168.5756 735.5511 169.2848 736.0831 169.8203 736.548L170.4234 737.1215 170.5567 737.2769C170.5728 737.2984 170.4556 737.0375 170.5061 737.1678 170.5115 737.1817 170.4777 737.0013 170.4832 737.0595 170.4937 737.1718 170.6558 736.5197 170.5804 736.646 170.5264 736.7363 170.763 736.4521 170.729 736.4769L170.229 736.5627C168.9125 736.6766 166.8457 736.5946 165.1672 736.4641L162.3784 736.3042 161.5313 736.1932 161.3688 736.1445C161.3589 736.1402 161.5201 736.2732 161.4567 736.2124 161.3407 736.1012 161.7535 736.8744 161.7158 736.688 161.6879 736.5502 161.6881 737.1718 161.7124 737.0647 161.7472 736.9115 161.4996 737.4542 161.5567 737.3866 161.6104 737.323 161.3612 737.5366 161.4067 737.5118 161.4833 737.4701 161.5195 737.4145 161.6537 737.4211M226.2483 713.1061C226.8979 712.9885 227.3292 712.3666 227.2117 711.717 227.0941 711.0674 226.4722 710.6361 225.8226 710.7537 225.7804 710.7613 225.9505 710.7784 225.8709 710.7646 225.8003 710.7524 226.3457 711.0128 226.2019 710.9097 226.0867 710.8272 226.6182 711.5017 226.5321 711.3138 226.4661 711.1699 226.623 711.9559 226.6283 711.7917 226.6361 711.5484 226.314 712.5274 226.4207 712.3861 226.5224 712.2515 226.0255 712.6962 226.1173 712.6477 226.2634 712.5706 225.772 712.7463 225.8225 712.7413L226.0688 712.7953C226.2681 712.8407 226.786 713.4555 227.9556 714.3431 228.989 715.1275 230.6235 716.1281 232.7051 717.2221 234.865 718.3572 237.4197 719.537 240.1813 720.5529 243.5421 721.7893 247.1623 722.9001 250.7393 723.8419L255.9822 725.113 259.1171 725.7348C261.9323 726.2364 264.5916 726.4645 267.4282 726.4968 269.2534 726.5177 271.3773 726.5964 273.647 726.2835 274.8586 726.1165 276.067 725.8215 277.2305 725.4575 279.5645 724.7272 281.5414 723.5155 283.3098 722.2312L285.7282 720.3916C287.0002 719.4493 288.5066 718.6576 289.9773 717.97L293.7992 716.0752C295.1353 715.3589 296.2527 714.4545 297.1555 713.7031 298.7981 712.3358 299.1235 710.604 299.0398 709.4375 299.0074 708.985 299.0355 708.5643 299.0953 708.2593L299.165 707.9826 299.1542 708.0046C299.1656 707.9828 299.0448 708.1643 299.0842 708.1128 299.1218 708.0637 298.7995 708.3739 298.8955 708.3003 298.9853 708.2315 298.3254 708.5391 298.5014 708.4927 298.6612 708.4505 297.7824 708.4643 297.9649 708.5041 298.1233 708.5386 297.4508 708.2533 297.5586 708.3278 297.7381 708.452 297.1807 707.8874 297.2351 707.9808 297.3085 708.1069 297.1289 707.7051 297.1379 707.7442L297.132 707.7159C297.1945 708.5331 297.1285 709.8614 297.1285 711.4929L297.1287 715.7503C297.1357 716.2251 297.1148 716.8338 297.2077 717.4401 297.2568 717.7606 297.3254 718.0468 297.5454 718.3704 297.6649 718.5462 297.8418 718.8131 298.3339 718.9351 298.8732 719.0688 299.5144 718.6819 299.7098 718.3706 300.3447 717.3588 300.0963 716.481 300.0286 715.4091L299.8272 712.0523C299.8087 710.5393 299.8675 709.1973 299.7552 708.1439 299.7277 707.8858 299.9552 707.4377 299.3357 706.7119 298.9232 706.2285 298.205 706.0794 297.7256 706.1582 296.4048 706.3754 295.5168 707.3147 294.3684 708.2075L291.8664 710.0055C290.0314 711.2923 288.4488 711.884 287.2484 712.0374 286.1399 712.1791 285.399 711.9295 285.1019 711.7006 284.579 711.2976 283.8284 711.3949 283.4255 711.9178 283.0226 712.4407 283.1198 713.1913 283.6427 713.5942 285.5405 715.0566 289.1557 714.8264 293.2391 711.9627L295.8358 710.0948C296.604 709.4975 297.2841 708.9671 297.7652 708.6863L298.1134 708.5172C298.1393 708.5129 297.7572 708.4609 297.8809 708.496 298.0129 708.5335 297.433 708.165 297.5174 708.2639 297.6174 708.381 297.3332 707.9081 297.3526 707.9712L297.3781 708.3974C297.4588 709.1544 297.4176 710.5145 297.4368 712.0815 297.4515 713.2825 297.5768 714.5166 297.6427 715.5599L297.6775 716.8268 297.6455 717.1589C297.6354 717.2106 297.7464 717.0018 297.6849 717.0998 297.6488 717.1574 297.9073 716.8401 297.8385 716.9083 297.7718 716.9745 298.2026 716.6603 298.0968 716.7173 297.8929 716.827 299.0251 716.6257 298.7984 716.5931 298.6071 716.5655 299.3447 716.8239 299.2407 716.7571 299.073 716.6494 299.5618 717.0834 299.5192 717.0218 299.4638 716.9415 299.5853 717.144 299.5835 717.1388L299.5708 717.078 299.519 715.715 299.5192 711.4929C299.5192 709.921 299.5977 708.6072 299.5157 707.5338 299.4999 707.3273 299.4947 707.117 299.3068 706.7879 299.1452 706.5048 298.5366 706.0223 297.9119 706.176 297.0837 706.3797 297.0596 706.8208 296.9604 707.058L296.7493 707.7993C296.6421 708.3462 296.6087 708.9575 296.6553 709.6084 296.7173 710.472 296.7502 710.93 295.6261 711.8657 294.7592 712.5873 293.76 713.3837 292.6697 713.9682L288.9648 715.8044C287.4179 716.5276 285.7769 717.3804 284.3052 718.4706L281.905 720.2968C280.2523 721.4971 278.5064 722.5534 276.5167 723.1759 275.4557 723.5078 274.3701 723.7706 273.3205 723.9153 271.2961 724.1944 269.3064 724.1275 267.4555 724.1064 264.73 724.0753 262.2209 723.8596 259.5365 723.3812L256.4894 722.7768 251.348 721.5301C247.836 720.6054 244.2822 719.5143 241.0067 718.3093 238.3595 717.3354 235.893 716.1968 233.8172 715.1059 231.8203 714.0564 230.2564 713.0882 229.4009 712.4389 228.5126 711.7647 227.9785 710.7784 226.5998 710.4644 226.2493 710.3846 225.8391 710.0912 225.0011 710.5337 224.7288 710.6775 224.4369 710.9316 224.3023 711.3499 224.0914 712.0054 224.5732 712.7657 225.0347 712.9857 225.4674 713.1919 225.8641 713.1756 226.2483 713.1061M251.4612 745.8082C252.0478 745.5053 252.2779 744.7843 251.975 744.1977 251.6722 743.6111 250.9512 743.3811 250.3646 743.6839 249.2999 744.2335 248.8599 744.4816 248.7261 744.4438 248.6262 744.4155 248.2087 744.2317 247.7222 743.5844 247.3302 743.0627 246.9214 742.2841 246.6129 741.3508 246.3313 740.4991 246.1856 739.2567 246.197 738.0717 246.2046 737.2781 246.3565 736.5348 246.6285 735.9456 247.2547 734.5896 248.553 734.0123 250.3009 733.9995 252.1303 733.9861 254.2662 734.6225 256.0555 735.558 258.3864 736.7767 260.3364 738.5431 261.1813 740.227 261.8012 741.4623 261.7771 743.0302 261.1827 744.2072 260.5393 745.4812 258.6836 746.3356 256.7568 746.4074 254.8535 746.4784 253.2433 745.7361 252.9011 744.8775 252.6566 744.2642 251.9614 743.9653 251.3481 744.2097 250.7349 744.4541 250.4359 745.1494 250.6803 745.7626 251.5967 748.0616 254.3272 748.8903 256.8459 748.7964 259.383 748.7019 262.1204 747.6536 263.3167 745.2849 264.2611 743.4148 264.2922 741.0963 263.3181 739.1548 262.1506 736.8281 259.844 734.8411 257.1631 733.4395 255.0812 732.351 252.6417 731.5917 250.2833 731.609 247.9456 731.6261 245.5243 732.6345 244.4581 734.9435 244.0177 735.8974 243.8169 736.965 243.8065 738.0487 243.7931 739.4399 243.9378 740.8753 244.3431 742.1012 244.7247 743.2555 245.2298 744.2471 245.8111 745.0206 246.5747 746.0367 247.4071 746.5552 248.0756 746.7442 249.5419 747.1588 250.5837 746.2612 251.4612 745.8082M267.5965 736.4637C268.2134 736.2287 268.523 735.5381 268.288 734.9212 268.053 734.3043 267.3624 733.9947 266.7455 734.2297 266.1224 734.4671 265.7262 734.3871 265.078 735.0598 264.8559 735.2903 264.5645 736.1228 264.94 736.6585 265.4138 737.3343 265.7416 737.204 265.9771 737.2434L266.7659 737.3167C267.4252 737.3497 267.9864 736.8419 268.0193 736.1825 268.0522 735.5232 267.5444 734.962 266.8851 734.9291L266.3628 734.8846 266.4495 734.9155C266.4026 734.8955 266.7382 735.0968 266.6505 735.0317 266.5618 734.9659 267.0473 735.5361 266.95 735.3683 266.8546 735.204 267.1006 736.1795 267.1047 735.9675 267.1085 735.7727 266.9288 736.5688 266.9881 736.4487 267.0406 736.3421 266.7878 736.734 266.834 736.681 266.9131 736.5901 266.6434 736.8486 266.6729 736.828ZM281.2889 751.6116C281.9321 751.463 282.3331 750.8212 282.1845 750.1779 282.0359 749.5347 281.394 749.1337 280.7508 749.2823 279.5725 749.5545 279.1041 749.902 278.3848 749.7478 278.0138 749.6683 277.3485 749.4283 276.5742 748.8459 275.7004 748.1888 274.7203 747.1287 273.9093 745.6865 273.1884 744.4043 272.6598 742.838 272.424 741.3032 272.1929 739.7988 272.2228 738.3816 272.5517 737.3268 273.2814 734.9873 276.6088 734.1524 279.4375 734.0296 282.83 733.8823 285.3577 735.434 286.0488 737.1234 286.3093 737.7601 286.3693 738.2557 286.2875 738.5113 286.261 738.5942 286.338 738.4188 286.3027 738.4541 285.7419 739.0139 282.5364 739.8898 279.4729 739.8905 277.9571 739.8909 276.5194 739.7111 275.4849 739.3356 274.5252 738.9872 274.1134 738.5584 274.0479 738.1464 273.9442 737.4945 273.3317 737.05 272.6797 737.1537 272.0277 737.2573 271.5833 737.8699 271.687 738.5219 271.9499 740.1751 273.4226 741.1856 274.9558 741.6809 277.3067 742.4404 280.2209 742.4193 282.8447 742.0335 284.1327 741.8441 285.3178 741.5621 286.3086 741.1649 287.2727 740.7784 288.2114 740.3434 288.5644 739.2397 288.9109 738.1568 288.6258 737.1089 288.2615 736.2182 287.0758 733.3198 283.5016 731.4603 279.3338 731.6412 277.7799 731.7087 275.9555 731.9217 274.25 732.6107 272.5345 733.3038 270.8982 734.5991 270.2695 736.615 269.7875 738.1606 269.791 739.9077 270.0611 741.6661 270.3405 743.485 270.947 745.2959 271.8255 746.8582 272.7959 748.5839 273.9794 749.8857 275.1373 750.7565 276.1913 751.5493 277.1665 751.9317 277.8838 752.0854 279.4376 752.4184 280.5372 751.7852 281.2889 751.6116M360.1433 717.6772C360.803 717.6518 361.3171 717.0964 361.2917 716.4367 361.2662 715.7771 360.7108 715.2629 360.0511 715.2884L359.0588 715.3005 358.8453 715.2926 358.787 715.2895 358.7357 715.2875 358.6286 715.2898 358.3703 715.3354C358.1578 715.3976 357.2467 716.5207 357.7451 717.1939 358.1595 717.7547 358.3019 717.6127 358.3784 717.6361L358.8025 717.7475C358.9091 717.8024 358.6378 717.632 358.6469 717.641 358.7447 717.7371 359.4205 718.832 360.7122 720.0326 361.4129 720.684 362.3054 721.5387 363.5296 722.5078 364.975 723.652 367.0803 725.182 369.5794 726.6129 372.8372 728.4782 376.621 729.8956 380.4793 731.2139 382.1743 731.7931 383.907 732.3736 385.7154 732.8667 388.5443 733.6381 391.3729 734.1511 394.1821 734.4606 397.9051 734.8708 401.5393 734.9869 404.9944 734.911 407.1216 734.8643 409.2046 734.6706 411.3341 734.3216 413.5937 733.9512 415.8557 733.408 418.0041 732.7601 419.3002 732.3692 420.5445 731.9387 421.6884 731.4591 422.8231 730.9834 423.876 730.4838 424.7842 729.9024 427.3444 728.2637 428.6078 725.3402 429.5777 724.05 429.8338 723.7093 430.2325 723.4002 430.5278 722.7325 430.7726 722.1791 430.8165 721.2406 430.2359 720.7161L430.2124 720.7022C430.1691 720.647 430.4211 721.2409 430.3786 721.0587 430.3458 720.9176 430.3601 721.603 430.3851 721.4804 430.403 721.3928 430.2981 721.7248 430.3197 721.6794 430.3733 721.5666 430.2721 721.7555 430.3521 721.6685 430.4902 721.5182 430.3335 721.588 430.4536 721.5319 430.5589 721.4828 429.9746 721.6023 430.0946 721.6058 430.2672 721.611 429.7546 721.5019 429.7848 721.5218L429.8767 721.621C430.4463 722.3103 431.1369 723.9855 431.8332 725.6569L432.6734 727.7727 433.0261 728.7262 433.1608 729.0787 433.2648 729.2911C433.3245 729.3944 433.2849 729.6729 434.0022 729.8761 434.3502 729.9748 434.8037 729.8636 435.0444 729.6846 435.7921 729.1285 435.5136 728.9445 435.5264 728.8423 435.5921 728.3166 435.5101 727.901 435.3586 727.1669 434.9587 725.2293 434.3548 723.3783 433.8505 722.0319 433.4908 721.0716 432.6952 720.2301 431.6868 719.9813 430.684 719.7338 429.6283 719.9414 428.4515 720.3317 423.8281 721.8649 418.4342 724.7823 416.6188 724.2243 415.9877 724.0303 415.319 724.3846 415.125 725.0156 414.931 725.6467 415.2854 726.3154 415.9164 726.5094 417.8946 727.1175 420.0911 726.2878 422.3955 725.3715 424.7352 724.4412 427.1236 723.2907 429.2039 722.6008 430.1648 722.2821 430.8224 722.2303 431.1141 722.3023 431.3475 722.3599 431.4439 722.4222 431.6118 722.8704 432.0814 724.1243 432.6529 725.8843 433.0173 727.65L433.1414 728.4673 433.1489 728.6097C433.1488 728.6155 433.1789 728.4014 433.1624 728.4928 433.1525 728.5472 433.358 728.0033 433.2678 728.1813 433.2426 728.2309 433.4292 727.9366 433.3778 728.0048 433.2958 728.1137 434.0505 727.5364 433.8211 727.6445 433.7019 727.7006 434.3787 727.5227 434.2307 727.535 434.0825 727.5472 434.7815 727.6122 434.6541 727.5761 434.4616 727.5216 435.1437 727.8478 435.0573 727.7804 434.906 727.6624 435.3319 728.0861 435.2956 728.0331 435.2377 727.9483 435.3667 728.1564 435.3636 728.1498L434.8994 726.9008 434.04 724.7376C433.349 723.0789 432.7257 721.3157 431.7195 720.0982 431.244 719.5227 430.3316 718.9508 429.4429 719.3654 428.9095 719.6143 428.6783 719.9568 428.592 720.0507 428.3541 720.3095 427.9916 720.614 428.0148 721.3304 428.0384 722.0612 428.4717 722.344 428.6333 722.4901 428.7146 722.5635 428.3667 722.0818 428.4193 722.1972 428.4969 722.3673 428.3553 721.7043 428.346 721.7856 428.3384 721.8524 428.3622 721.7186 428.3416 721.7653L427.6668 722.6135C426.431 724.2575 425.2541 726.7632 423.4954 727.8889 422.7657 728.356 421.8251 728.8095 420.764 729.2544 419.7176 729.6932 418.5477 730.0992 417.3138 730.4713 415.2572 731.0916 413.091 731.6111 410.9475 731.9624 408.924 732.2941 406.959 732.4767 404.9419 732.521 401.5783 732.5949 398.0483 732.4815 394.4439 732.0843 391.7477 731.7873 389.0434 731.2963 386.3444 730.5603 384.6182 730.0896 382.934 729.5263 381.2522 728.9517 377.4497 727.6524 373.7951 726.2719 370.7673 724.5383 368.404 723.1851 366.3841 721.7184 365.0134 720.6334 363.8794 719.7357 363.0551 718.9465 362.3398 718.2817 361.7195 717.7051 361.3098 717.1972 360.9957 716.7795 360.6961 716.3811 360.617 715.9933 359.8979 715.6226L359.2066 715.3765 359.0382 715.3388 359.0765 715.3496C359.0512 715.3419 359.2832 715.4341 359.2113 715.4012 359.1717 715.383 359.4414 715.5372 359.3716 715.4907 359.2962 715.4404 359.7835 715.9299 359.6671 715.7724 359.1683 715.0985 358.8295 717.6919 359.0417 717.6298 359.2064 717.5816 358.7466 717.6779 358.7867 717.6752 358.9074 717.6671 358.6562 717.6766 358.6638 717.6769ZM391.0877 753.6545C391.5875 753.2232 391.6431 752.4685 391.2119 751.9686 390.7806 751.4688 390.0258 751.4132 389.526 751.8445L388.2335 753.112 388.1873 753.1458C388.1243 753.1854 388.8821 753.0941 388.7687 753.0616 388.4724 752.9766 388.0594 752.8087 387.5719 752.1457 387.1113 751.5194 386.5282 750.291 386.2 748.9714 385.8913 747.7297 385.8395 746.414 386.2286 745.4145 386.8571 743.8 388.8269 742.9648 391.0772 742.9211 392.1888 742.8995 393.3332 743.0854 394.3723 743.4334 396.2481 744.0617 397.5296 745.1441 398.0906 746.2657 398.5771 747.2382 398.5343 748.5637 397.8949 749.8397 397.6506 750.3272 397.1818 750.8569 396.6451 751.4027 395.2939 752.7768 393.5159 753.469 391.9413 753.5406 390.426 753.6096 389.2377 753.0704 388.8191 752.3746 388.4788 751.809 387.7443 751.6263 387.1786 751.9666 386.613 752.3069 386.4303 753.0414 386.7706 753.6071 388.8158 757.0064 394.7933 756.6956 398.3497 753.0788 398.9361 752.4825 399.5859 751.8014 400.0322 750.9107 400.9524 749.0743 401.1043 746.9467 400.2287 745.1963 399.3232 743.3859 397.488 741.9558 395.1316 741.1666 393.8376 740.7332 392.435 740.5036 391.0307 740.5309 388.2125 740.5856 385.1052 741.7103 384.0009 744.5472 383.3556 746.2048 383.4929 747.9914 383.8801 749.5483 384.2808 751.16 384.9252 752.5819 385.6459 753.562 386.4564 754.6641 387.4463 755.1694 388.1097 755.3596 388.6954 755.5276 389.4467 755.1879 389.6535 755.0352 390.3362 754.5312 390.8398 753.8684 391.0877 753.6545M407.0088 744.7777C407.6459 744.6048 408.0222 743.9482 407.8493 743.3111 407.6764 742.674 407.0198 742.2976 406.3827 742.4705 405.8496 742.6152 405.2834 742.8026 404.7388 743.1954 404.5865 743.3052 404.2821 743.3707 404.1526 744.0674 404.0384 744.6814 404.6319 745.3418 404.9499 745.4629 405.6889 745.7444 405.987 745.5601 406.6574 745.4492 407.3087 745.3414 407.7493 744.7261 407.6416 744.0748 407.5338 743.4235 406.9185 742.9828 406.2672 743.0906L405.6842 743.1685 405.601 743.1769C405.5654 743.1724 405.9161 743.2737 405.8077 743.2315 405.7525 743.21 406.0854 743.3861 406.0077 743.335 405.9288 743.2832 406.347 743.6685 406.2617 743.5643 406.1766 743.4601 406.5161 744.0994 406.4699 743.9512 406.4251 743.8075 406.5101 744.5069 406.5194 744.3756 406.5366 744.1317 406.2919 744.9905 406.3562 744.8865 406.4116 744.7968 406.1844 745.0976 406.219 745.0624 406.3244 744.9555 406.1249 745.1404 406.1744 745.1129ZM415.1932 754.5828C415.2115 753.9229 414.6913 753.3732 414.0314 753.3549 413.3715 753.3367 412.8217 753.8569 412.8035 754.5168 412.8028 754.5436 412.8275 754.3153 412.8165 754.3831 412.8046 754.4562 413.0549 753.8154 412.9477 754.0079 412.8903 754.111 413.4219 753.5207 413.2587 753.6468 413.0898 753.7772 414.1733 753.3878 413.9258 753.4003 413.6873 753.4123 414.6453 753.5865 414.5054 753.5184 414.376 753.4554 414.8404 753.7583 414.7793 753.7031 414.6692 753.6037 414.998 753.9678 414.966 753.9194 414.9118 753.8375 415.0471 754.0685 415.0396 754.0514 415.0108 753.9865 414.6473 752.6676 414.3501 751.1329 414.1287 749.9894 413.9192 748.7446 413.8662 747.6682 413.779 745.8972 414.155 745.4195 414.8828 745.2208 415.9348 744.9336 417.7079 745.7316 419.4022 746.9648L421.5529 748.5871C422.0161 748.9658 422.4113 749.4108 422.9409 749.789 423.1986 749.973 423.379 750.1971 423.978 750.2587 424.3197 750.2939 424.8343 750.1244 425.0987 749.8332 425.343 749.5641 425.3984 749.335 425.4391 749.1732 426.1664 746.2828 425.3969 741.9988 425.1541 740.3633 425.0571 739.7103 424.4492 739.2595 423.7962 739.3565 423.1432 739.4534 422.6924 740.0614 422.7894 740.7144 423.0213 742.276 423.6036 746.6708 423.1207 748.5898 423.1175 748.6029 423.1819 748.4311 423.157 748.4879 423.1328 748.5428 423.3675 748.1768 423.294 748.2665 423.2263 748.3492 423.7025 747.9512 423.5806 748.0224 423.4729 748.0853 424.0384 747.8722 423.9242 747.8938 423.7313 747.9302 424.4514 747.9284 424.3592 747.9048 424.2395 747.8742 424.5032 747.9586 424.4895 747.9505L424.3302 747.8435 423.0661 746.7363 420.8091 745.032C418.9121 743.6512 416.6205 742.2683 414.2532 742.9145 412.4285 743.4126 411.3619 745.4182 411.4784 747.7857 411.5414 749.0639 411.7725 750.3969 412.003 751.5874L412.5745 754.1362 412.8001 754.8867C412.8393 754.9921 412.7781 755.0601 413.1069 755.4087 413.2142 755.5224 413.4092 755.7471 413.8899 755.7856 414.2765 755.8165 414.6989 755.5964 414.8885 755.3805 415.3569 754.8472 415.1902 754.6914 415.1932 754.5828"/>
<path transform="matrix(1,0,0,-1,0,803.25)" d="M125.7954 653.3455C126.4204 653.558 127.0993 653.2236 127.3119 652.5986 127.5244 651.9736 127.19 651.2946 126.565 651.0821L126.453 651.0443C126.4348 651.0363 126.6599 651.1748 126.5863 651.1222 126.5461 651.0935 126.7857 651.3063 126.7307 651.2483 126.6731 651.1876 126.9612 651.6027 126.9065 651.4966 126.846 651.3792 127.0401 651.9864 127.0232 651.8647 126.9924 651.6429 126.9301 652.5113 126.9727 652.3885 127.0076 652.2881 126.8379 652.6532 126.8689 652.6045 126.9181 652.5271 126.7539 652.7481 126.7706 652.7311L126.9065 652.6357C128.0955 651.8467 130.1295 650.7678 132.3816 648.7217 133.4676 647.7349 134.5178 646.6224 135.6875 645.6841 137.8071 643.9839 140.2536 643.0415 143.3101 642.163 147.631 640.9211 153.1784 639.2991 158.8636 637.4339 161.1933 636.6696 163.4901 635.8472 165.8879 635.1424 169.3604 634.1217 173.1773 633.3099 176.9961 632.8403 181.8026 632.2493 186.5897 632.0397 191.4291 631.6917L197.934 631.2164C202.134 630.9614 206.1877 630.8727 210.3902 630.9833 212.7144 631.0446 214.8348 631.1569 216.9441 631.3814 219.1308 631.6143 221.3477 631.9465 223.6267 632.3244L229.0441 633.2671C235.7188 634.4765 241.1324 635.5023 246.0877 636.6846L254.131 638.7436C257.9779 639.7831 261.6617 640.7927 265.2624 641.8601L271.8976 643.8555C274.7782 644.7733 277.2289 645.6775 279.2792 646.7286 280.4301 647.3186 281.4863 647.9458 282.5102 648.6065L286.4309 651.3199 291.4682 654.8581 294.1211 656.5699 296.1282 657.6603 296.685 658.0075 296.6698 657.9876C296.6846 658.0078 296.5832 657.8301 296.608 657.8825 296.6488 657.9684 296.5292 657.2742 296.5239 657.4647 296.5185 657.6636 296.8414 656.7345 296.7258 656.8875 296.6288 657.016 297.0649 656.6093 296.9948 656.6486 296.9032 656.7 297.1172 656.5974 297.1037 656.6001L296.94 656.6164 295.8816 656.6546C295.2217 656.6728 294.7015 657.2225 294.7197 657.8824 294.7379 658.5423 295.2876 659.0625 295.9475 659.0443L297.0556 659.0042C297.5047 658.9825 298.0798 659.0612 298.6332 658.3287 298.9308 657.9349 298.9534 657.3357 298.8196 656.9796 298.4697 656.0481 297.8457 655.8453 297.195 655.5209L295.336 654.511 292.8342 652.8961 287.8233 649.3766C286.517 648.4406 285.1902 647.4908 283.8065 646.5979 282.731 645.9037 281.6032 645.2335 280.3698 644.6012 278.1384 643.4573 275.5689 642.5162 272.6233 641.5777L265.9419 639.5681C262.3105 638.4916 258.6081 637.477 254.7546 636.4358L246.6425 634.3593C241.6136 633.1594 236.158 632.1265 229.4703 630.9148L224.0178 629.966C221.7128 629.5838 219.4502 629.2442 217.1972 629.0043 215.0063 628.771 212.8183 628.6558 210.4532 628.5935 206.1772 628.4809 202.0492 628.5715 197.7891 628.8301L191.2576 629.3072C186.4545 629.6527 181.625 629.8625 176.7043 630.4676 172.7463 630.9543 168.8115 631.7913 165.2137 632.8488 162.7361 633.5771 160.4133 634.4095 158.1184 635.1624 152.4796 637.0123 146.9592 638.6268 142.6497 639.8654 139.4695 640.7794 136.6618 641.8379 134.1917 643.8193 132.8659 644.8828 131.7737 646.044 130.774 646.9523 128.735 648.8048 126.9286 649.7519 125.5846 650.6438L125.1025 651.0188 124.8089 651.3935C124.6894 651.6086 124.5204 652.0851 124.7815 652.5917 125.2475 653.4959 125.6564 653.2982 125.7954 653.3455"/>
</g>
<g clip-path="url(#clip_2)">
<path transform="matrix(1,0,0,-1,0,803.25)" d="M126.0708 650.7031C126.6991 650.5005 127.0442 649.8269 126.8415 649.1986 126.6389 648.5703 125.9653 648.2253 125.337 648.4279L125.0909 648.5052 125.1864 648.4934C125.1345 648.4971 125.5656 648.5251 125.4392 648.5049 125.3752 648.4947 125.7703 648.6058 125.6758 648.5691 125.5798 648.5318 126.1163 648.8557 126.0009 648.7601 125.8854 648.6645 126.3821 649.2975 126.3052 649.1434 126.2309 648.9947 126.4366 649.7277 126.4269 649.5892 126.4178 649.4594 126.3845 650.008 126.4036 649.9186 126.4385 649.7561 126.2411 650.3136 126.2796 650.2456 126.344 650.1322 126.1299 650.4494 126.1525 650.4243L126.6338 649.9914C127.7194 648.9508 128.3993 647.3506 129.0022 645.7041L130.0706 642.6899 130.4316 641.9279C130.4441 641.9065 130.268 642.1314 130.3324 642.06 130.3636 642.0255 130.1309 642.2372 130.1954 642.187 130.2597 642.1369 129.7748 642.4018 129.909 642.3494 130.0426 642.2972 129.1541 642.4035 129.3722 642.4242 129.5821 642.444 128.6146 642.0734 128.7782 642.1954 128.927 642.3064 128.4042 641.7405 128.4679 641.849 128.5788 642.0382 128.3096 641.3425 128.3225 641.4345 128.3425 641.577 128.3228 641.1587 128.3183 641.1948L128.2607 641.3384C127.8436 642.3426 126.7151 643.9258 125.9136 646.0205 125.1952 647.8978 124.7788 650.1868 124.6512 652.1357 124.5952 652.9912 124.498 653.7177 124.6298 654.4584 124.6696 654.6817 124.7044 654.939 124.9486 655.2707 125.1476 655.5412 125.5612 655.7933 125.9276 655.8279 126.8856 655.9183 127.0658 655.5208 127.4747 655.2914L129.0939 654.452C132.453 652.8884 139.1182 652.2341 142.0941 651.0551 142.7079 650.812 143.0083 650.1174 142.7652 649.5036 142.522 648.8899 141.8274 648.5894 141.2136 648.8326 138.9911 649.713 132.1215 650.4058 128.0851 652.2846L126.3051 653.2064 125.858 653.4554 125.8358 653.4726C125.7759 653.4895 126.412 653.4875 126.2172 653.4561 126.0623 653.4312 126.8182 653.7637 126.6843 653.6597 126.5867 653.5838 126.943 653.955 126.8971 653.8866 126.8336 653.7919 126.9962 654.0929 126.9881 654.0676L126.9835 654.0394 127.0368 652.2919C127.149 650.5769 127.5518 648.4285 128.1463 646.8748 128.8263 645.098 129.8793 643.6739 130.4685 642.2554 130.6006 641.9371 130.7046 641.7156 130.7031 641.2887 130.7027 641.1646 130.7135 640.9969 130.5667 640.7067 130.4423 640.4609 130.0851 640.1029 129.6291 640.0476 128.985 639.9695 128.7283 640.2826 128.5966 640.4169L128.3723 640.7136 127.8555 641.7909 126.7573 644.8821C126.2104 646.3759 125.495 647.7715 124.9795 648.2656 124.7475 648.488 124.6205 648.4813 124.2856 648.9349 124.2262 649.0153 124.1285 649.1253 124.0659 649.4184 124.0035 649.7107 124.1099 650.2809 124.4502 650.5792 124.9801 651.0439 125.2632 650.8881 125.3997 650.8742ZM175.051 626.6744C175.6187 626.3374 175.8058 625.6041 175.4688 625.0364 175.1319 624.4687 174.3986 624.2816 173.8309 624.6186 173.8226 624.6235 173.9863 624.5605 173.9278 624.5784 173.812 624.6139 174.6329 624.6633 174.4467 624.5968 174.3115 624.5485 174.7769 624.8134 174.7263 624.7652 174.663 624.7047 174.7802 624.83 174.752 624.7804L174.6039 624.4845C173.9086 623.0324 172.0532 621.1268 170.9239 619.2034 170.3694 618.259 170.1232 617.5537 170.0974 617.1987 170.0775 616.9247 170.0601 617.0035 170.1925 616.9203 171.0214 616.3999 176.675 615.9829 180.0153 617.9548 180.5837 618.2904 181.3166 618.1017 181.6523 617.5332 181.9879 616.9647 181.7991 616.2318 181.2306 615.8962 179.0856 614.6298 176.5215 614.1614 174.223 614.0738 171.991 613.9888 170.1554 614.1208 168.9213 614.8956 168.1324 615.391 167.6434 616.414 167.7131 617.3721 167.783 618.333 168.2082 619.2996 168.8623 620.4137 170.1637 622.6303 172.1435 624.8818 172.4477 625.5169 172.5831 625.7998 172.6883 626.136 173.095 626.5127 173.5495 626.9335 174.5452 626.9746 175.051 626.6744M183.1219 621.9472C183.7411 622.1762 184.4286 621.8599 184.6576 621.2407 184.8866 620.6216 184.5703 619.934 183.9511 619.705 183.1633 619.4137 182.1545 618.8756 181.393 618.1149 181.0324 617.7547 180.7056 617.2301 180.4378 616.6779 179.7457 615.2508 179.6304 613.8507 179.8826 612.8794 180.1153 611.9828 180.5551 611.6006 181.0363 611.5694 181.6951 611.5268 182.1946 610.9582 182.1519 610.2994 182.1093 609.6406 181.5407 609.1412 180.8819 609.1838 179.2117 609.2919 177.9801 610.6936 177.5686 612.2787 177.1494 613.8937 177.3728 615.8366 178.2867 617.7211 178.6264 618.4215 179.0653 619.1688 179.7035 619.8063 180.7928 620.8944 182.0746 621.5599 183.1219 621.9472M105.7644 638.9423C106.1548 639.4746 106.9028 639.5898 107.4351 639.1994 107.9675 638.809 108.0826 638.061 107.6923 637.5286 107.4885 637.2508 107.327 636.9242 107.3437 636.5165 107.3568 636.1947 108.049 634.8819 109.1203 633.6628 110.7144 631.8488 112.6328 630.3095 114.4613 628.4981 116.5359 626.4429 118.1618 623.9572 120.2511 621.5832 121.5505 620.1068 123.0217 618.6148 124.7466 617.1612 129.9936 612.7395 136.2587 609.6575 142.9442 607.2621 146.4713 605.9983 150.1479 604.9492 154.1348 603.9361 157.3298 603.1242 160.6671 602.3361 164.1244 601.6403L170.19 600.4214 176.2943 599.204C179.2421 598.6542 182.2343 598.1997 185.3021 597.8603 191.5793 597.166 198.0896 596.5116 204.7954 596.0646 207.5541 595.8807 210.4907 595.7454 213.3933 595.6953L220.0621 595.6563H225.2374C228.0476 595.6883 230.8539 595.8603 233.6528 596.0641 240.1815 596.5395 247.2055 597.4618 254.1195 598.7602 257.6238 599.4183 261.1439 600.1734 264.6202 600.9866 268.5688 601.9104 272.6338 602.968 276.6615 604.0677 282.3144 605.611 287.7854 607.324 293.0516 609.1328 296.7782 610.4128 300.4954 611.7251 304.0801 613.0916 310.0858 615.3811 315.7491 617.8986 321.4073 620.3631L335.8387 626.4739 341.9183 629.0571 348.2029 631.6375C352.6642 633.4727 357.0398 635.3206 361.0997 637.1529L366.1918 639.5826C370.1406 641.5191 373.5946 643.2979 376.6567 644.9835 380.3652 647.0249 384.3493 649.1182 388.4886 651.3012 391.3178 652.7932 394.2716 654.3883 397.2334 655.775 400.5922 657.3475 403.3809 658.6305 405.3727 659.8212 406.2816 660.3646 407.022 660.9245 407.7591 661.4589 409.3681 662.6255 410.7011 663.4575 411.3552 664.0762 411.8882 664.5804 411.8762 664.2532 411.5755 664.6243 411.1599 665.1372 411.2388 665.8899 411.7517 666.3055 412.2646 666.7211 413.0173 666.6422 413.4329 666.1293 413.8927 665.5619 414.1887 664.7851 414.0474 664.0419 413.8409 662.9562 413.0507 662.3226 412.2228 661.69L409.1623 659.5235C408.4463 659.0044 407.6318 658.3865 406.5993 657.7693 404.4347 656.4753 401.6044 655.1817 398.2471 653.6099 395.3653 652.2607 392.442 650.6834 389.6038 649.1866 385.4639 647.0033 381.4909 644.9157 377.8096 642.8892 374.7061 641.1809 371.2191 639.3854 367.2445 637.4362L362.0831 634.9739C357.9869 633.1252 353.5885 631.268 349.1125 629.4266L342.8463 626.854 336.7674 624.2711 322.3619 618.1713C316.7104 615.7098 311.0108 613.1753 304.9316 610.8578 301.3103 609.4773 297.5688 608.1567 293.8282 606.8718 288.5189 605.0482 282.9991 603.3198 277.2911 601.7614 273.2438 600.6565 269.1519 599.5917 265.1648 598.6589 261.659 597.8387 258.105 597.0763 254.5607 596.4107 247.5592 595.0958 240.4535 594.1624 233.8264 593.6798 231.0063 593.4744 228.1511 593.2987 225.2647 593.2658L220.0557 593.2657 213.352 593.305C210.4035 593.3559 207.4303 593.4931 204.6364 593.6793 197.8801 594.1297 191.3347 594.7878 185.0393 595.4842 181.9088 595.8305 178.8573 596.2941 175.856 596.8539L169.727 598.0761 163.6527 599.2967C160.1458 600.0025 156.7693 600.8001 153.5461 601.6191 149.5143 602.6436 145.7624 603.7129 142.1378 605.0116 135.2777 607.4696 128.7425 610.6675 123.2061 615.3331 121.3776 616.874 119.8204 618.4541 118.4565 620.0038 116.2487 622.5125 114.6248 624.9711 112.7788 626.7998 111.0536 628.5088 109.0841 630.0825 107.3246 632.0847 106.0982 633.4802 105.0195 634.8404 104.955 636.419 104.9099 637.5251 105.3654 638.3981 105.7644 638.9423M103.6002 640.6966C103.6121 641.3567 104.1569 641.882 104.8169 641.8701 105.477 641.8581 106.0024 641.3133 105.9904 640.6533 105.9871 640.4712 105.9365 641.0128 105.9503 640.9655L106.3857 639.9599C106.5756 639.4712 106.8454 638.8002 107.0701 637.9657 107.4644 636.5012 107.639 634.5647 107.6248 632.6301 107.6165 631.507 107.5346 630.4338 107.4088 629.4931L107.0114 627.4326C106.9017 627.0567 106.8169 626.7515 106.5244 626.3973 106.4039 626.2515 106.2245 626.0636 105.8841 625.9533 105.2377 625.7439 104.5371 626.2493 104.355 626.5601 103.9056 627.3271 104.0227 627.8979 104.0789 628.7456 104.215 630.7995 104.5289 633.4653 104.792 636.0787L105.2125 639.5108C105.3972 640.6424 105.4142 641.4266 106.1603 642.146 106.5806 642.5512 107.4731 642.6342 107.9374 642.3907 108.3653 642.1663 108.5938 641.8803 108.8281 641.5807 109.3533 640.9087 109.6325 640.1911 110.0995 639.5583 111.5685 637.5672 115.289 636.1874 118.887 635.1008 119.5189 634.9099 119.8765 634.2429 119.6856 633.6109 119.4948 632.979 118.8278 632.6214 118.1958 632.8122 114.5023 633.9277 110.3367 635.2102 108.1758 638.1389 107.5306 639.0134 107.1617 639.8306 106.9445 640.1085 106.8068 640.2847 106.9499 640.2091 106.8272 640.2735 106.7667 640.3052 107.2951 640.1782 107.1451 640.1881 107.0083 640.1972 107.6994 640.3171 107.5701 640.2614 107.4603 640.2141 107.8676 640.4703 107.8145 640.4201 107.7318 640.3419 107.9075 640.5349 107.8982 640.5161 107.8402 640.3986 107.6975 639.8955 107.5718 639.1256L107.1706 635.8393C106.9054 633.2054 106.594 630.5446 106.4642 628.5875L106.4752 627.6575C106.4816 627.6208 106.4303 627.7538 106.4594 627.6872 106.4746 627.6524 106.3216 627.9087 106.3707 627.8406 106.4203 627.7718 105.9993 628.1691 106.1227 628.0831 106.2443 627.9984 105.4498 628.2971 105.6403 628.271 105.8197 628.2464 104.9931 628.1759 105.1364 628.224 105.2657 628.2674 104.7689 628.0164 104.8397 628.0693 104.962 628.1607 104.6175 627.8316 104.6433 627.8696 104.7144 627.974 104.8678 628.5268 105.0393 629.8099 105.1515 630.6489 105.2267 631.631 105.2342 632.6477 105.2472 634.4054 105.0643 636.2203 104.7617 637.3442L104.1574 639.094 103.8376 639.8464C103.7569 640.0232 103.5873 639.989 103.6002 640.6966M322.7952 610.7463C322.7364 611.4038 323.2217 611.9845 323.8793 612.0434 324.5368 612.1022 325.1175 611.6168 325.1763 610.9593L325.2181 609.52C325.2205 609.4043 325.3621 609.0482 325.3074 608.4092 325.2472 607.7048 324.8927 606.9256 324.0793 606.5469 323.2889 606.1789 322.3131 606.3645 321.7374 606.846 321.177 607.3147 320.8783 607.9585 320.7922 608.6341 320.7254 609.1587 320.7377 609.9174 321.1458 610.6309 322.1371 612.3639 324.281 613.2261 326.4931 613.6211 327.5121 613.803 328.5915 613.8749 329.6496 613.6944 331.3169 613.41 332.8293 612.3687 333.5289 610.7976 334.2729 609.1268 333.8597 606.9983 332.8766 604.8829 332.3706 603.7941 331.6744 602.8313 331.0088 601.9519 329.6552 600.1634 328.4221 598.8651 327.2924 597.9952 326.7079 597.545 326.1709 597.2367 325.8066 597.0264L325.4839 596.8359 325.5178 596.8624C325.4822 596.8329 325.812 597.2261 325.7152 597.0826 325.6684 597.0132 325.9008 597.5154 325.8586 597.3809 325.8169 597.2484 325.8814 598.0586 325.9038 597.8724 325.9251 597.6957 325.6434 598.4974 325.7299 598.3608 325.8086 598.2366 325.4026 598.7055 325.4822 598.6405 325.6216 598.5266 325.0928 598.8506 325.165 598.8236 325.2756 598.7822 324.9803 598.8726 324.9964 598.87L325.3066 598.8383C325.9531 598.7649 326.8822 598.6754 328.2258 598.6434L331.0696 598.6437 338.7672 598.8861 341.9797 599.0185C342.7852 599.0498 343.0448 599.1475 343.6735 599.0365 344.3236 598.9217 344.7575 598.3016 344.6427 597.6515 344.5278 597.0014 343.9078 596.5675 343.2577 596.6823 343.0288 596.7227 335.8427 596.3059 331.0962 596.2532L328.1689 596.2535C326.7435 596.2874 325.7238 596.3849 325.0368 596.463L324.6918 596.499C324.5854 596.5125 324.4565 596.4293 324.0198 596.7503 323.8223 596.8955 323.5558 597.2337 323.5251 597.6401 323.4741 598.3144 323.8097 598.5368 323.9315 598.6497 324.2228 598.9195 324.3605 598.952 324.6115 599.0968L325.8338 599.8892C326.7294 600.579 327.8417 601.7285 329.1026 603.3946 329.7332 604.2278 330.3274 605.0701 330.7086 605.8904 331.5026 607.599 331.6028 609.2462 331.345 609.8251 330.9985 610.6033 330.2209 611.1718 329.2477 611.3378 328.5604 611.455 327.7356 611.4145 326.9132 611.2676 325.1423 610.9515 323.5696 610.0535 323.221 609.444 323.1397 609.3018 323.1308 609.1944 323.1637 608.936L323.2711 608.6798 323.0704 608.7142C323.16 608.7559 322.9117 608.5733 322.924 608.594L322.9255 608.613 322.828 609.472ZM480.107 714.577C480.0667 715.2359 480.5683 715.8027 481.2272 715.843 481.8861 715.8832 482.4529 715.3817 482.4931 714.7228L482.5675 714.0949 482.5604 714.1058C482.5759 714.0739 482.3904 714.3303 482.4524 714.2618 482.571 714.1305 481.6516 714.5741 481.8698 714.5525 482.0236 714.5373 481.5001 714.504 481.5541 714.5221L481.9532 714.8564C482.6039 715.4473 483.9363 716.8286 486.0057 718.523L489.3259 721.0811C492.6724 723.479 496.4462 725.4449 500.8824 727.0698 503.3658 727.9793 506.0546 728.7987 508.9809 729.4253 511.9373 730.0582 515.2128 730.4796 518.4509 730.8026 522.2482 731.1813 525.7716 731.3277 528.8712 731.1055 533.559 730.7694 537.2241 729.1495 539.6833 726.6092 541.7656 724.458 542.8147 721.612 542.9783 718.5424 543.0477 717.2413 543.1232 715.8361 542.9324 714.3893 542.5402 711.415 541.018 708.9606 539.5335 706.8359 538.1041 704.7901 536.813 702.8425 535.4175 700.9424 534.7273 700.0027 533.9932 699.0458 533.0929 698.1308 531.8946 696.9128 530.4524 695.8267 528.8978 694.9477 527.6688 694.2529 526.3941 693.712 525.1667 693.2918 523.9761 692.8843 522.8321 692.6561 521.7605 692.4364L515.9231 691.0877C513.5312 690.5191 511.5086 690.2108 509.3986 689.9797 507.0614 689.7236 504.0947 689.3636 501.5567 689.161 499.246 688.9765 497.5385 688.9801 496.4268 688.9553L495.1697 688.8847 492.6648 688.8833H491.2008L490.7339 688.8726C490.582 688.8678 490.6043 688.6275 489.8649 689.0269 489.284 689.3407 489.0675 690.0659 489.3813 690.6467 489.6951 691.2275 490.4202 691.444 491.001 691.1303 491.1683 691.0399 490.5425 691.2578 490.6251 691.2491 490.7582 691.235 490.4637 691.2484 490.472 691.2499 490.7318 691.2995 491.8465 691.8023 492.3655 692.1558 492.9111 692.5274 493.6546 692.3864 494.0263 691.8408 494.3979 691.2952 494.2569 690.5516 493.7113 690.18 493.2244 689.8483 492.6257 689.5346 492.0321 689.2768L491.1693 688.9605C490.8817 688.881 490.606 688.6266 489.8649 689.0269L491.0011 691.1302C491.1108 691.071 490.6953 691.2441 490.7538 691.2286 490.8522 691.2025 490.557 691.2607 490.5833 691.2586L491.2153 691.2739H492.6648L495.0532 691.2725 496.3735 691.3453C497.5302 691.3711 499.1485 691.367 501.3665 691.544 503.8332 691.741 506.7844 692.0982 509.1383 692.3561 511.1837 692.5801 513.0819 692.8696 515.3701 693.4136L521.2804 694.7783C522.3474 694.9971 523.3815 695.2076 524.3924 695.5536 525.5022 695.9335 526.645 696.4203 527.7212 697.0287 529.0893 697.8023 530.3642 698.766 531.3888 699.8074 532.1641 700.5954 532.8259 701.4524 533.4907 702.3576 534.8444 704.2007 536.1268 706.134 537.5738 708.2051 538.9859 710.2261 540.2513 712.3428 540.5623 714.7018 540.717 715.8751 540.6594 717.1337 540.5911 718.4151 540.4516 721.0313 539.611 723.2467 537.9656 724.9464 535.9516 727.0269 532.9304 728.4177 528.7002 728.721 525.7965 728.9291 522.3938 728.7934 518.6881 728.4238 515.5015 728.1059 512.3017 727.6914 509.4814 727.0876 506.6783 726.4875 504.0991 725.702 501.7046 724.825 497.4441 723.2645 493.8805 721.4036 490.7183 719.1378L487.5202 716.6734C485.5503 715.0604 484.3332 713.7885 483.5604 713.0867 483.259 712.8129 482.986 712.5834 482.6495 712.4023 482.3895 712.2624 482.0437 712.1178 481.583 712.1795 480.8606 712.2762 480.4321 712.9266 480.297 713.3447 480.1676 713.7453 480.1342 714.1307 480.107 714.577M498.6657 694.762C498.2154 694.2792 497.4591 694.2529 496.9763 694.7032 496.4936 695.1535 496.4672 695.9098 496.9175 696.3926L497.1739 696.6724C497.1852 696.6857 497.0481 696.4735 497.1147 696.5844 497.1353 696.6186 496.9972 696.3272 497.0317 696.4152 497.0601 696.4877 496.9414 695.888 496.9533 696.0646 496.963 696.2088 497.1715 695.2475 497.0625 695.4808 496.9778 695.6621 497.6321 694.8887 497.4635 695.0056 497.3397 695.0913 497.9357 694.8057 497.8248 694.8364 497.6661 694.8803 498.2982 694.8001 498.2032 694.7951 498.1137 694.7904 498.4627 694.8368 498.4105 694.8246 498.3053 694.7998 498.6262 694.8986 498.594 694.8847L495.2992 692.6526C494.3148 691.995 493.2701 691.2624 492.3643 690.5399 490.8013 689.2934 490.3029 688.4508 490.301 688.4269 490.2948 688.3491 490.2103 688.6499 490.2787 688.591L491.1003 688.1723C491.8421 687.8833 492.7217 687.5739 493.7279 687.2981 495.7526 686.7431 497.801 686.3471 499.2991 685.94 500.0061 685.7478 500.5518 685.6904 501.1472 685.1313 501.4989 684.8011 501.6788 683.709 501.2757 683.2318 500.923 682.8141 500.5956 682.7257 500.2534 682.608 499.6291 682.3934 498.949 682.7255 498.7344 683.3498 498.5197 683.974 498.8518 684.6541 499.4761 684.8688L499.6216 684.9265C499.6249 684.9283 499.3747 684.693 499.4704 684.7984 499.5202 684.8533 499.2604 684.4481 499.311 684.5568 499.362 684.6662 499.2076 684.0171 499.2144 684.1629 499.2211 684.3044 499.3116 683.6515 499.2715 683.7665 499.234 683.8743 499.4476 683.4502 499.4027 683.5126 499.3224 683.6242 499.6014 683.3166 499.5729 683.337 499.3957 683.4635 496.178 684.1477 493.0959 684.9925 491.9931 685.2948 491.0333 685.6328 490.2326 685.9447 489.686 686.1576 489.1715 686.3891 488.7178 686.7803 488.0141 687.3869 487.7475 688.7007 488.2185 689.6171 488.6922 690.5386 489.568 691.3676 490.8736 692.4089 491.8601 693.1957 492.9522 693.9597 493.9713 694.6405L496.3708 696.2668 497.1434 696.7865C497.339 696.9145 497.222 697.0011 497.8638 697.1518 497.9824 697.1797 498.1732 697.2366 498.5157 697.1243 498.8733 697.0071 499.2604 696.5517 499.3233 696.1913 499.5049 695.1514 499.1377 695.3065 499.0832 695.2334ZM515.6578 754.0806C516.3173 754.1105 516.8762 753.6001 516.906 752.9406 516.9359 752.2811 516.4256 751.7223 515.7661 751.6924 514.6971 751.6439 514.2479 751.8498 514.2433 751.8476 514.1764 751.8145 514.2852 751.8831 514.2175 751.7898L513.9124 751.2327C513.6199 750.5964 513.0832 748.8913 512.709 747.0517 512.5299 746.171 512.4262 745.2361 512.3558 744.3453 512.1941 742.2996 512.6694 741.4501 512.9674 741.2807 513.2621 741.1132 514.1176 741.1873 515.2397 741.9139 517.1015 743.1197 518.9799 745.9111 519.5379 748.5843 519.9525 750.5706 519.5638 752.751 518.9139 754.1261 518.6154 754.7576 518.2469 755.1194 518.2074 755.1395 518.2018 755.1423 518.3786 755.1077 518.3141 755.1138 518.2088 755.1237 518.6887 755.2294 518.6254 755.1874L518.5923 755.1162C518.2675 754.5415 517.5383 754.3389 516.9635 754.6637 516.3888 754.9885 516.1862 755.7177 516.511 756.2924 517.0236 757.1994 518.3899 757.7278 519.2894 757.2712 520.5646 756.624 521.1753 755.2458 521.6346 753.6443 522.1071 751.9968 522.284 750.0404 521.8781 748.0958 521.1799 744.7512 519.101 741.5664 516.5392 739.9073 515.0324 738.9315 513.2688 738.3596 511.7861 739.2024 510.2829 740.0568 509.7763 742.0504 509.9726 744.5336 510.0474 745.4809 510.1587 746.507 510.3664 747.5282 510.7713 749.5191 511.2903 751.2523 511.7404 752.2312 512.0546 752.9147 512.3888 753.5976 513.1839 753.9906 514.4595 754.6213 515.5159 754.0741 515.6578 754.0806M523.4093 741.082C524.0659 741.0135 524.5427 740.4258 524.4743 739.7692 524.4058 739.1126 523.8181 738.6358 523.1615 738.7042 522.1244 738.8123 521.1503 739.2928 520.9359 740.5056 520.8178 741.1732 521.3296 741.9949 521.9116 742.2544 522.4719 742.5043 523.0553 742.5126 523.7489 742.4383 524.4053 742.368 524.8804 741.7789 524.8101 741.1225 524.7398 740.4661 524.1507 739.991 523.4943 740.0613L522.8852 740.071C522.8443 740.0528 523.1832 740.3347 523.0963 740.2351 523.0161 740.1432 523.3116 740.7324 523.2797 740.5958 523.2522 740.478 523.277 741.0009 523.2915 740.9132 523.315 740.7705 523.1757 741.1871 523.1982 741.1567ZM532.7191 751.9078C533.3782 751.8706 533.8824 751.3062 533.8452 750.6471 533.808 749.988 533.2436 749.4838 532.5845 749.521 532.1391 749.5461 531.692 749.5691 531.2253 749.9997 530.7182 750.4677 530.7529 751.3448 530.933 751.7143 531.2227 752.3086 531.5144 752.5128 531.9323 752.9761 532.285 753.3671 532.6609 753.6008 532.9522 753.7904 534.7347 754.9506 537.6747 755.182 540.0794 753.6621 541.3599 752.8527 542.372 751.4783 542.4375 749.8156 542.4975 748.2909 541.7248 746.8837 540.6482 745.6544L536.9877 741.5535C536.3227 740.8454 535.6411 740.1383 534.9325 739.5683 534.1081 738.9052 533.2728 738.5645 532.5386 738.4669 532.1196 738.4111 531.7274 738.42 531.3743 738.4668L531.013 738.4846 530.5612 738.5575C530.3108 738.6368 529.9143 738.9006 529.7494 739.2886 529.5226 739.8226 529.7315 740.2917 529.8731 740.5044 530.2256 741.0341 530.5109 741.0948 530.8069 741.2374 531.8448 741.7374 532.7575 741.5305 533.3072 741.5254L534.6774 741.5218C536.0246 741.4172 538.4213 740.8367 540.8747 740.2277L544.1564 739.3689 545.2712 739.0405C545.5553 738.9498 545.6174 739.0925 546.1586 738.628 546.6595 738.198 546.717 737.4434 546.287 736.9425 545.857 736.4415 545.1024 736.384 544.6015 736.814 544.3016 737.0714 536.6878 738.9679 534.4923 739.1384L533.2851 739.1349C532.4506 739.1426 532.1451 739.2285 531.8446 739.0837L531.7186 739.0139C531.7037 739.0019 531.9473 739.3062 531.8632 739.1799 531.8155 739.1081 532.0515 739.7026 532.0123 739.5306 531.9917 739.44 532.0307 739.9684 532.038 739.8488 532.0456 739.7269 531.8982 740.3447 531.9497 740.2233 532.0187 740.0611 531.4864 740.7624 531.6212 740.6552 531.7348 740.5648 531.233 740.8549 531.3158 740.8255 531.4465 740.7791 531.0911 740.8746 531.1079 740.8733L531.6881 740.8367 532.2234 740.8366C532.5501 740.8801 532.8866 740.9907 533.4341 741.4311 533.9759 741.8669 534.6052 742.5087 535.245 743.19L538.8498 747.2295C539.6883 748.187 540.0747 749.0621 540.0487 749.7216 540.0175 750.5155 539.5807 751.1491 538.8022 751.6413 537.329 752.5724 535.0766 752.3207 534.2564 751.7868L533.7074 751.3748 533.2043 750.7959 533.0554 750.6096C533.0275 750.5725 533.146 750.7982 533.0819 750.6668 533.0672 750.6366 533.1497 750.8739 533.1328 750.8079 533.1006 750.682 533.0233 751.5886 533.1026 751.3667 533.1626 751.1988 532.7306 751.8595 532.8324 751.7694 532.9046 751.7055 532.6028 751.9156 532.6493 751.8931 532.764 751.8376 532.571 751.9162 532.7191 751.9078"/>
</g>
</svg>
