<svg xmlns="http://www.w3.org/2000/svg" xmlns:xlink="http://www.w3.org/1999/xlink" width="671.004" height="457.155" viewBox="0 0 503.253 342.866"><path stroke-width=".199" stroke-miterlimit="10" fill="none" stroke="#929292" d="M159.79 91.705v-4.252M90.417 22.332h4.252"/><path stroke-width=".399" stroke-miterlimit="10" fill="none" stroke="#000" d="M11.846 89.579h159.401"/><path d="m173.24 89.579-3.188-1.594 1.195 1.594-1.195 1.594"/><path stroke-width=".399" stroke-miterlimit="10" fill="none" stroke="#000" d="M92.543 170.276V10.875"/><path d="m92.543 8.882-1.594 3.188 1.594-1.195 1.594 1.195"/><symbol id="a"><path d="M.197.641c0 .023 0 .024-.02.024C.153.638.103.601 0 .601V.572c.023 0 .073 0 .128.026V.077C.128.041.125.029.037.029H.006V0C.033.002.13.002.163.002S.292.002.319 0v.029H.288C.2.029.197.041.197.077v.564z"/></symbol><use xlink:href="#a" transform="matrix(11.9552 0 0 -11.9552 164.977 103.512)"/><use xlink:href="#a" transform="matrix(11.9552 0 0 -11.9552 81.55 18.233)"/><path stroke-width="1.196" stroke-linecap="round" stroke-miterlimit="10" fill="none" stroke="#009b77" d="m159.79 89.579-.01-1.174-.03-1.173-.052-1.173-.072-1.171-.092-1.17-.112-1.168-.133-1.166-.154-1.164-.172-1.16-.193-1.158-.215-1.154-.234-1.151-.254-1.145-.274-1.14-.294-1.138-.314-1.13-.333-1.126-.352-1.12-.373-1.113-.392-1.107-.411-1.098-.43-1.092-.45-1.085-.468-1.076-.486-1.068-.506-1.06-.524-1.05-.54-1.04-.561-1.033-.578-1.02-.596-1.013-.613-1-.63-.99-.648-.978-.665-.968-.681-.955-.698-.944-.715-.93-.73-.92-.748-.905-.762-.893-.778-.878-.793-.866-.807-.851-.823-.837-.837-.823-.851-.807-.866-.793-.878-.778-.893-.762-.906-.747-.918-.73-.931-.716-.944-.697-.955-.682-.968-.665-.978-.647-.99-.631-1-.613-1.012-.596-1.021-.578-1.032-.56-1.04-.541-1.052-.524-1.059-.506-1.068-.486-1.076-.468-1.085-.45-1.092-.43-1.098-.411-1.107-.392-1.113-.373-1.12-.352-1.126-.333-1.13-.314-1.137-.294-1.14-.274-1.146-.254-1.15-.234-1.155-.215-1.158-.193-1.16-.172-1.164-.154-1.166-.133-1.168-.112-1.17-.092-1.171-.072-1.173-.051-1.173-.031-1.174-.01-1.174.01-1.173.03-1.173.052-1.171.072-1.17.092-1.168.112-1.166.133-1.165.154-1.16.172-1.158.193-1.153.216-1.15.234-1.145.254-1.141.274-1.138.293-1.13.315-1.126.334-1.119.351-1.113.373-1.108.39-1.097.414-1.092.43-1.085.448-1.076.468-1.07.486-1.057.507-1.051.523-1.04.542-1.033.56-1.022.577-1.01.597-1 .613-.991.63-.978.648-.969.664-.954.683-.944.697-.931.715-.918.731-.907.746-.892.764-.878.777-.866.792-.85.808-.839.822-.822.838-.808.85-.792.867-.777.878-.764.892-.746.907-.731.918-.715.932-.697.943-.683.954-.664.97-.647.977-.632.99-.612 1-.597 1.011-.577 1.022-.56 1.033-.542 1.04-.523 1.051-.507 1.058-.486 1.07-.468 1.075-.449 1.085-.43 1.092-.413 1.097-.39 1.108-.373 1.114-.351 1.119-.334 1.125-.315 1.13-.294 1.138-.273 1.141-.254 1.145-.234 1.15-.216 1.154-.191 1.158-.174 1.16-.154 1.164-.132 1.168-.113 1.166-.091 1.17-.072 1.173-.051 1.172-.031 1.173-.011 1.173.01 1.173.032 1.173.051 1.172.072 1.173.09 1.17.114 1.166.132 1.168.154 1.163.174 1.16.191 1.16.216 1.153.234 1.15.254 1.145.273 1.141.294 1.138.315 1.13.334 1.126.351 1.119.373 1.113.39 1.108.413 1.097.43 1.092.45 1.085.467 1.076.486 1.07.507 1.057.523 1.051.542 1.04.56 1.033.577 1.022.597 1.01.612 1 .632.991.647.978.664.969.683.954.697.944.715.931.73.918.747.907.764.892.777.878.792.866.808.85.822.839.838.822.85.808.867.792.878.777.892.764.907.746.918.731.931.715.944.697.954.683.97.664.977.647.99.632 1 .612 1.011.597 1.022.577 1.033.56 1.04.542 1.051.523 1.058.507 1.069.486 1.076.468 1.085.449 1.092.43 1.097.412 1.108.391 1.113.373 1.12.351 1.125.334 1.13.315 1.138.294 1.141.273 1.145.254 1.15.234 1.153.216 1.16.191 1.16.174 1.163.154 1.168.132 1.166.113 1.17.091 1.173.072 1.172.051 1.173.031 1.173.012 1.173-.012 1.173-.03 1.172-.052 1.172-.072 1.171-.09 1.166-.114 1.168-.132 1.163-.154 1.16-.174 1.16-.191 1.153-.216 1.15-.234 1.145-.254 1.141-.273 1.138-.294 1.13-.315 1.125-.334 1.12-.351 1.113-.373 1.108-.39 1.097-.413 1.092-.43 1.085-.45 1.076-.467 1.07-.486 1.057-.507 1.051-.523 1.04-.542 1.033-.56 1.022-.577 1.01-.597 1-.612.99-.632.979-.647.969-.664.954-.683.943-.697.932-.715.918-.73.907-.747.892-.764.878-.777.866-.792.85-.808.839-.822.822-.838.808-.85.792-.867.777-.878.764-.892.746-.907.731-.918.715-.931.697-.944.683-.954.664-.97.647-.977.632-.99.612-1 .597-1.011.577-1.022.56-1.033.542-1.04.523-1.051.507-1.058.486-1.069.468-1.076.449-1.085.43-1.092.412-1.097.391-1.108.373-1.113.351-1.12.334-1.125.315-1.13.293-1.138.274-1.141.254-1.145.234-1.15.216-1.153.191-1.16.174-1.16.154-1.163.132-1.168.113-1.166.091-1.17.072-1.173.051-1.172.031-1.173.011-1.173"/><path stroke-width="1.594" stroke-miterlimit="10" fill="none" stroke="#a50034" d="m142.979 89.579-.02-1.283-.048-1.283-.083-1.28-.113-1.28-.147-1.274-.179-1.271-.21-1.266-.244-1.261-.276-1.253-.307-1.246-.339-1.24-.372-1.228-.4-1.22-.433-1.208-.463-1.197-.494-1.184-.523-1.174-.553-1.158-.582-1.143-.611-1.13-.64-1.112-.667-1.097-.697-1.078 1.406 2.07"/><path d="m133.857 60.651.898 6.712 1.23-3.58 3.78.176" fill="#a50034"/><path stroke-width="1.594" stroke-miterlimit="10" fill="none" stroke="#a50034" d="m133.857 60.65-.752-1.04-.774-1.024-.803-1-.826-.984-.852-.96-.875-.938-.9-.916-.922-.893-.945-.869-.967-.844-.987-.82-1.01-.794-1.027-.77-1.048-.74-1.066-.716-1.084-.687-1.101-.66-1.118-.632-1.132-.603-1.149-.575-1.163-.544-1.175-.515-1.189-.484 2.339.89"/><path d="m109.792 42.186 4.585 4.984-1.046-3.638 3.2-2.023" fill="#a50034"/><path stroke-width="1.594" stroke-linecap="round" stroke-miterlimit="10" fill="none" stroke="#00a6d6" d="M92.543 89.579h63.462"/><path d="m159.79 89.579-6.057-3.029 2.272 3.029-2.272 3.029" fill="#00a6d6"/><path stroke-width="1.594" stroke-linecap="round" stroke-miterlimit="10" fill="none" stroke="#00a6d6" d="m92.543 89.579 51.985-36.4"/><path d="m147.629 51.007-6.7.994 3.599 1.178-.124 3.783" fill="#00a6d6"/><path stroke-width="1.594" stroke-linecap="round" stroke-miterlimit="10" fill="none" stroke="#00a6d6" d="m92.543 89.579 21.706-59.635"/><path d="m115.544 26.387-4.918 4.656 3.623-1.099 2.069 3.17" fill="#00a6d6"/><path stroke-width="1.594" stroke-linecap="round" stroke-miterlimit="10" fill="none" stroke="#ed6842" d="M217.047 106.599h63.462"/><path d="m284.294 106.599-6.057-3.029 2.272 3.029-2.272 3.029" fill="#ed6842"/><symbol id="b"><path d="M.393.61c.006.024.008.033.023.037.008.002.041.002.062.002.1 0 .147-.004.147-.082a.747.747 0 0 0-.01-.09L.614.465c0-.004.004-.01.01-.01.01 0 .01.005.013.021l.029.177.002.014c0 .011-.006.011-.026.011H.095C.072.678.071.677.065.659L.004.479A.103.103 0 0 1 0 .465a.01.01 0 0 1 .01-.01c.008 0 .01.004.014.017.042.121.063.177.196.177h.067c.024 0 .034 0 .034-.011 0-.003 0-.005-.005-.023L.182.078C.172.039.17.029.064.029.039.029.032.029.032.01.032 0 .043 0 .048 0l.076.002H.28L.357 0c.011 0 .021 0 .021.019 0 .01-.007.01-.033.01-.09 0-.09.009-.09.024 0 .001 0 .008.004.024L.393.61z"/></symbol><use xlink:href="#b" transform="matrix(11.9552 0 0 -11.9552 209.049 91.042)"/><symbol id="c"><path d="M.227.008c0 .003 0 .005-.017.022C.11.131.054.296.054.5c0 .194.047.361.163.479.01.009.01.011.01.014 0 .006-.005.008-.009.008a.42.42 0 0 1-.144-.17A.713.713 0 0 1 0 .5C0 .411.014.292.066.185A.426.426 0 0 1 .218 0c.004 0 .009.002.009.008z"/></symbol><use xlink:href="#c" transform="matrix(11.9552 0 0 -11.9552 218.42 94.043)"/><symbol id="d"><path d="M.319.247.435.38c.011.013.02.021.103.021v.043L.446.442c-.029 0-.072 0-.1.002V.401c.019 0 .04-.005.04-.012A.034.034 0 0 0 .379.378L.292.28.193.401h.042v.043C.212.442.144.442.117.442c-.03 0-.084 0-.112.002V.401h.071l.156-.19-.13-.147C.09.05.083.043 0 .043V0l.093.002C.122.002.164.002.192 0v.043c-.019 0-.04.005-.04.012 0 .001 0 .002.007.01l.1.113L.37.043H.328V0c.024.002.091.002.119.002.03 0 .083 0 .111-.002v.043h-.07L.319.247z"/></symbol><use xlink:href="#d" transform="matrix(11.9552 0 0 -11.9552 222.016 91.042)"/><symbol id="e"><path d="M.227.5c0 .076-.01.2-.066.316a.426.426 0 0 1-.152.185C.005 1.001 0 .999 0 .993 0 .99 0 .988.017.971.117.87.173.705.173.501.173.307.126.14.01.022 0 .013 0 .011 0 .008 0 .002.005 0 .009 0a.42.42 0 0 1 .144.17.72.72 0 0 1 .074.33z"/></symbol><symbol id="f"><path d="M.621.186c.014 0 .032 0 .032.018 0 .019-.017.019-.032.019H.032C.018.223 0 .223 0 .205 0 .186.017.186.032.186h.589m0-.186c.014 0 .032 0 .032.018 0 .019-.017.019-.032.019H.032C.018.037 0 .037 0 .019 0 0 .017 0 .032 0h.589z"/></symbol><use xlink:href="#e" transform="matrix(11.9552 0 0 -11.9552 229.556 94.043)"/><use xlink:href="#f" transform="matrix(11.9552 0 0 -11.9552 237.423 89.392)"/><symbol id="g"><path d="M0 0h.263v.055H.055v2.289h.208v.055H0V0z"/></symbol><use xlink:href="#g" transform="matrix(11.9552 0 0 -11.9552 252.187 102.387)"/><symbol id="h"><path d="M.143.38C.126.379.122.378.122.369c0-.01.005-.01.023-.01h.046c.085 0 .123-.07.123-.166C.314.062.246.027.197.027.149.027.067.05.038.116.07.111.099.129.099.165A.047.047 0 0 1 .05.214C.026.214 0 .2 0 .162 0 .073.089 0 .2 0c.119 0 .207.091.207.192 0 .092-.074.164-.17.181A.188.188 0 0 1 .38.549C.38.628.298.686.201.686.101.686.027.625.027.552c0-.04.031-.048.046-.048.021 0 .045.015.045.045 0 .032-.024.046-.046.046L.061.594c.038.068.132.068.137.068.033 0 .098-.015.098-.113A.226.226 0 0 0 .264.431C.234.387.2.384.173.383L.143.38z"/></symbol><use xlink:href="#a" transform="matrix(11.9552 0 0 -11.9552 256.595 83.719)"/><use xlink:href="#h" transform="matrix(11.9552 0 0 -11.9552 271.814 83.97)"/><use xlink:href="#h" transform="matrix(11.9552 0 0 -11.9552 255.997 98.416)"/><use xlink:href="#a" transform="matrix(11.9552 0 0 -11.9552 272.412 98.165)"/><symbol id="i"><path d="M.208.055H0V0h.263v2.399H0v-.055h.208V.055z"/></symbol><use xlink:href="#i" transform="matrix(11.9552 0 0 -11.9552 277.343 102.387)"/><use xlink:href="#d" transform="matrix(11.9552 0 0 -11.9552 285.693 91.042)"/><path stroke-width=".199" stroke-miterlimit="10" fill="none" stroke="#929292" d="M431.642 92.666v-4.252m23.055 4.252v-4.252m23.056 4.252v-4.252M406.46 67.485h4.253M406.46 44.43h4.252m-4.252-23.056h4.252"/><path stroke-width=".399" stroke-miterlimit="10" fill="none" stroke="#000" d="M327.893 90.54h159.395"/><path d="m489.28 90.54-3.188-1.594 1.196 1.594-1.196 1.594"/><path stroke-width=".399" stroke-miterlimit="10" fill="none" stroke="#000" d="M408.587 171.234V11.839"/><path d="m408.587 9.847-1.594 3.188 1.594-1.196 1.594 1.196"/><use xlink:href="#a" transform="matrix(11.9552 0 0 -11.9552 436.83 104.472)"/><symbol id="j"><path d="M.391.168H.369C.366.151.358.096.348.08.341.071.284.071.254.071H.069c.027.023.088.087.114.111.152.14.208.192.208.291C.391.588.3.665.184.665A.185.185 0 0 1 0 .48C0 .429.044.429.047.429c.021 0 .047.015.047.047a.045.045 0 0 1-.047.047L.033.522C.052.59.106.636.171.636.256.636.308.565.308.473.308.388.259.314.202.25L0 .024V0h.365l.026.168z"/></symbol><use xlink:href="#j" transform="matrix(11.9552 0 0 -11.9552 459.383 104.472)"/><use xlink:href="#h" transform="matrix(11.9552 0 0 -11.9552 482.342 104.723)"/><use xlink:href="#a" transform="matrix(11.9552 0 0 -11.9552 397.594 63.385)"/><use xlink:href="#j" transform="matrix(11.9552 0 0 -11.9552 397.092 40.33)"/><use xlink:href="#h" transform="matrix(11.9552 0 0 -11.9552 396.996 17.526)"/><path stroke-width="1.196" stroke-linecap="round" stroke-miterlimit="10" fill="none" stroke="#009b77" d="m431.642 21.374 1.204-.392 1.196-.37 1.188-.35 1.18-.327 1.173-.307 1.162-.284 1.154-.264 1.145-.24 1.134-.22 1.125-.2 1.113-.174 1.103-.154 1.09-.131 1.08-.11 1.069-.087 1.055-.065 1.043-.043 1.031-.022 1.018.002 1.004.024.989.046.975.068.961.09.947.113.932.134.916.157.901.178.885.2.87.223.851.244.837.266.818.288.803.309.783.33.768.353.748.373.732.394.712.417.695.436.675.458.657.477.637.5.618.518.6.538.577.56.56.579.539.599.518.618.5.637.477.657.458.675.436.695.417.712.394.732.373.748.352.768.331.783.31.803.287.818.266.837.244.852.222.87.2.884.179.901.157.916.134.932.112.947.091.961.068.975.046.99.024 1.003.002 1.018-.022 1.03-.043 1.044-.065 1.055-.087 1.069-.11 1.08-.131 1.09-.154 1.103-.175 1.113-.198 1.125-.22 1.134-.241 1.145-.264 1.154-.284 1.162-.307 1.172-.327 1.18-.35 1.19-.37 1.195-.392 1.204-.413 1.211-.434 1.217-.455 1.224-.476 1.23-.495 1.234-.516 1.24-.536 1.245-.558 1.25-.575 1.253-.596 1.257-.617 1.26-.635 1.263-.654 1.265-.672 1.267-.692 1.271-.712 1.27-.729 1.272-.745 1.272-.765 1.273-.782 1.273-.8 1.27-.817 1.271-.834 1.27-.85 1.267-.866 1.266-.884 1.262-.899 1.26-.914 1.256-.93 1.254-.943 1.249-.961 1.244-.973 1.239-.989 1.235-1 1.227-1.016 1.225-1.03 1.215-1.04 1.21-1.055 1.203-1.066 1.195-1.078 1.188-1.092 1.18-1.1 1.17-1.112 1.162-1.122 1.151-1.134 1.144-1.143 1.133-1.152 1.123-1.163 1.111-1.17 1.101-1.178 1.092-1.19 1.078-1.194 1.066-1.203 1.055-1.21 1.04-1.215 1.03-1.224 1.015-1.228 1-1.235.99-1.239.973-1.244.96-1.249.944-1.254.93-1.256.914-1.26.898-1.262.885-1.266.866-1.267.85-1.27.834-1.27.816-1.27.801-1.274.782-1.273.765-1.271.745-1.273.729-1.27.712-1.27.691-1.268.672-1.265.655-1.263.634-1.26.618-1.257.594-1.254.577-1.25.557-1.245.536-1.238.516-1.236.495-1.23.476-1.224.455-1.217.434-1.21.413-1.202.39-1.196.37-1.188.35-1.181.328-1.173.308-1.16.283-1.156.265-1.144.24-1.134.22-1.126.2-1.113.173-1.102.154-1.09.131-1.081.11-1.07.09-1.054.062-1.043.043-1.03.022-1.018-.002-1.005-.022-.988-.048-.975-.068-.962-.09-.946-.112-.934-.133-.914-.159-.901-.178-.885-.2-.87-.223-.853-.242-.835-.268-.818-.287-.803-.31-.783-.33-.77-.351-.747-.375-.731-.394-.713-.416-.694-.437-.677-.456-.655-.48-.637-.498-.62-.518-.597-.54-.58-.558-.559-.58-.539-.598-.518-.62-.498-.636-.48-.655-.456-.677-.437-.694-.416-.713-.394-.731-.375-.748-.35-.769-.331-.783-.31-.803-.287-.818-.268-.835-.242-.854-.222-.87-.201-.884-.178-.901-.159-.914-.133-.934-.112-.946-.09-.962-.068-.975-.048-.988-.022-1.005-.002-1.018.022-1.03.043-1.043.063-1.054.088-1.07.11-1.08.132-1.09.154-1.103.173-1.113.2-1.126.22-1.134.24-1.144.265-1.155.283-1.16.308-1.174.328-1.18.35-1.19.37-1.195.39-1.202.413-1.21.434-1.217.455-1.224.476-1.23.495-1.236.516-1.238.536-1.246.557-1.25.577-1.252.594-1.258.618-1.26.635-1.263.654-1.265.672-1.268.691-1.27.712-1.27.729-1.273.745-1.271.765-1.273.782-1.273.8-1.27.817-1.271.834-1.27.85-1.267.866-1.266.885-1.262.898-1.26.914-1.256.93-1.254.943-1.249.961-1.244.973-1.239.99-1.235 1-1.228 1.015-1.224 1.03-1.216 1.04-1.209 1.055-1.203 1.066-1.195 1.078-1.189 1.092-1.179 1.1-1.17 1.112-1.162 1.123-1.152 1.133-1.143 1.144-1.134 1.151-1.122 1.163-1.112 1.17-1.1 1.179-1.092 1.188-1.078 1.195-1.066 1.203-1.055 1.21-1.04 1.215-1.03 1.225-1.015 1.227-1.001 1.235-.99 1.239-.972 1.244-.96 1.25-.944 1.253-.93 1.256-.914 1.26-.899 1.262-.884 1.266-.866 1.267-.85 1.27-.834 1.27-.816 1.27-.801 1.274-.782 1.273-.765 1.272-.745 1.272-.73 1.27-.71 1.27-.693 1.268-.672 1.265-.654 1.263-.635 1.26-.617 1.258-.594 1.253-.577 1.25-.557 1.245-.536 1.239-.517 1.235-.494 1.23-.476 1.224-.455 1.217-.434 1.21-.414"/><path stroke-width="1.594" stroke-miterlimit="10" fill="none" stroke="#a50034" d="m425.878 38.666 1.313-.42 1.303-.39 1.289-.354 1.276-.322 1.261-.287 1.246-.25 1.23-.219 1.213-.18 1.195-.147 1.176-.11 1.158-.077 1.137-.04 1.117-.007 1.094.033 1.073.065 1.048.102 1.028.135 1 .173.978.206.953.241.923.278.9.31.87.346-2.61-1.168"/><path d="m452.504 38.13-4.292-5.238.836 3.692-3.31 1.836" fill="#a50034"/><path stroke-width="1.594" stroke-miterlimit="10" fill="none" stroke="#a50034" d="m452.505 38.13.812.416.787.446.755.483.728.512.695.547.665.579.634.611.602.642.57.675.536.704.505.735.47.766.44.793.403.824.37.85.336.88.301.906.266.933.232.958.198.984.161 1.01.127 1.032.09 1.057-.146-2.703"/><path d="m463.246 56.55 2.698-6.211-2.902 2.431-3.146-2.105" fill="#a50034"/><path stroke-width="1.594" stroke-linecap="round" stroke-miterlimit="10" fill="none" stroke="#00a6d6" d="m408.587 90.54 21.858-65.574"/><path d="m431.642 21.374-4.789 4.789 3.592-1.197 2.155 3.112" fill="#00a6d6"/><path stroke-width="1.594" stroke-linecap="round" stroke-miterlimit="10" fill="none" stroke="#00a6d6" d="m408.587 90.54 56.126-66.98"/><path d="m467.145 20.659-6.212 2.697 3.78.205.862 3.686" fill="#00a6d6"/><path stroke-width="1.594" stroke-linecap="round" stroke-miterlimit="10" fill="none" stroke="#00a6d6" d="m408.587 90.54 69.666-43.322"/><path d="m481.467 45.218-6.742.627 3.528 1.373-.33 3.77" fill="#00a6d6"/><path stroke-width=".199" stroke-miterlimit="10" fill="none" stroke="#929292" d="M159.79 257.47v-4.253M90.417 188.096h4.252"/><path stroke-width=".399" stroke-miterlimit="10" fill="none" stroke="#000" d="M11.846 255.343h159.401"/><path d="m173.24 255.343-3.188-1.594 1.195 1.594-1.195 1.594"/><path stroke-width=".399" stroke-miterlimit="10" fill="none" stroke="#000" d="M92.543 336.04V176.639"/><path d="m92.543 174.646-1.594 3.188 1.594-1.195 1.594 1.195"/><use xlink:href="#a" transform="matrix(11.9552 0 0 -11.9552 164.977 269.275)"/><use xlink:href="#a" transform="matrix(11.9552 0 0 -11.9552 81.55 183.997)"/><path stroke-width="1.196" stroke-linecap="round" stroke-miterlimit="10" fill="none" stroke="#009b77" d="m159.79 255.343-.01-1.174-.03-1.173-.052-1.173-.072-1.171-.092-1.17-.112-1.168-.133-1.166-.154-1.164-.172-1.16-.193-1.158-.215-1.154-.234-1.151-.254-1.145-.274-1.14-.294-1.138-.314-1.13-.333-1.126-.352-1.12-.373-1.113-.392-1.107-.411-1.098-.43-1.092-.45-1.085-.468-1.076-.486-1.068-.506-1.06-.524-1.05-.54-1.04-.561-1.033-.578-1.02-.596-1.013-.613-1-.63-.99-.648-.978-.665-.968-.681-.955-.698-.944-.715-.93-.73-.92-.748-.905-.762-.893-.778-.878-.793-.866-.807-.851-.823-.837-.837-.823-.851-.807-.866-.793-.878-.778-.893-.762-.906-.747-.918-.73-.931-.716-.944-.697-.955-.682-.968-.665-.978-.647-.99-.631-1-.613-1.012-.596-1.021-.578-1.032-.56-1.04-.541-1.052-.524-1.059-.506-1.068-.486-1.076-.468-1.085-.45-1.092-.43-1.098-.411-1.107-.392-1.113-.373-1.12-.352-1.126-.333-1.13-.314-1.137-.294-1.14-.274-1.146-.254-1.15-.234-1.155-.215-1.158-.193-1.16-.172-1.164-.154-1.166-.133-1.168-.112-1.17-.092-1.171-.072-1.173-.051-1.173-.031-1.174-.01-1.174.01-1.173.03-1.173.052-1.171.072-1.17.092-1.168.112-1.166.133-1.165.154-1.16.172-1.158.193-1.153.216-1.15.234-1.145.254-1.141.274-1.138.293-1.13.315-1.126.334-1.119.351-1.113.373-1.108.39-1.097.414-1.092.43-1.085.448-1.076.468-1.07.486-1.057.507-1.051.523-1.04.542-1.033.56-1.022.577-1.01.597-1 .613-.991.63-.978.648-.969.664-.954.683-.944.697-.931.715-.918.731-.907.746-.892.764-.878.777-.866.792-.85.808-.839.822-.822.838-.808.85-.792.867-.777.878-.764.892-.746.907-.731.918-.715.932-.697.943-.683.954-.664.97-.647.977-.632.99-.612 1-.597 1.011-.577 1.022-.56 1.033-.542 1.04-.523 1.051-.507 1.058-.486 1.07-.468 1.075-.449 1.085-.43 1.092-.412 1.097-.391 1.108-.373 1.114-.351 1.119-.334 1.125-.315 1.13-.294 1.138-.273 1.141-.254 1.145-.234 1.15-.216 1.154-.191 1.158-.174 1.16-.154 1.164-.132 1.168-.113 1.166-.091 1.17-.072 1.173-.051 1.172-.031 1.173-.011 1.173.01 1.173.032 1.173.051 1.172.072 1.173.09 1.17.114 1.166.132 1.168.154 1.163.174 1.16.191 1.16.216 1.153.234 1.15.254 1.145.273 1.141.294 1.138.315 1.13.334 1.126.351 1.119.373 1.113.39 1.108.413 1.097.43 1.092.45 1.085.467 1.076.486 1.07.507 1.057.523 1.051.542 1.04.56 1.033.577 1.022.597 1.01.612 1 .632.991.647.978.664.969.683.954.697.944.715.931.73.918.747.907.764.892.777.878.792.866.808.85.822.839.838.822.85.808.867.792.878.777.892.764.907.746.918.731.931.715.944.697.954.683.97.664.977.647.99.632 1 .612 1.011.597 1.022.577 1.033.56 1.04.542 1.051.523 1.058.507 1.07.486 1.075.468 1.085.449 1.092.43 1.097.413 1.108.39 1.113.373 1.12.351 1.125.334 1.13.315 1.138.294 1.141.273 1.145.254 1.15.234 1.153.216 1.16.191 1.16.174 1.163.154 1.168.132 1.166.113 1.17.091 1.173.072 1.172.051 1.173.031 1.173.012 1.173-.012 1.173-.03 1.172-.052 1.172-.072 1.171-.09 1.166-.114 1.168-.132 1.163-.154 1.16-.174 1.16-.191 1.153-.216 1.15-.234 1.145-.254 1.141-.273 1.138-.294 1.13-.315 1.125-.334 1.12-.351 1.113-.373 1.108-.39 1.097-.413 1.092-.43 1.085-.45 1.076-.467 1.07-.486 1.057-.507 1.051-.523 1.04-.542 1.033-.56 1.022-.577 1.01-.597 1-.612.991-.632.978-.647.969-.664.954-.683.943-.697.932-.715.918-.73.907-.747.892-.764.878-.777.866-.792.85-.808.839-.822.822-.838.808-.85.792-.867.777-.878.764-.892.746-.907.731-.918.715-.931.697-.944.683-.954.664-.97.647-.977.632-.99.612-1 .597-1.011.577-1.022.56-1.033.542-1.04.523-1.051.507-1.058.486-1.069.468-1.076.449-1.085.43-1.092.412-1.097.391-1.108.373-1.113.351-1.12.334-1.125.315-1.13.294-1.138.273-1.141.254-1.145.234-1.15.216-1.153.191-1.16.174-1.16.154-1.163.132-1.168.113-1.166.091-1.17.072-1.173.051-1.172.031-1.173.011-1.173"/><path stroke-width="1.594" stroke-miterlimit="10" fill="none" stroke="#a50034" d="m142.979 255.343-.02-1.283-.048-1.283-.083-1.28-.113-1.28-.146-1.274-.18-1.271-.21-1.266-.244-1.261-.276-1.253-.307-1.246-.339-1.24-.372-1.228-.4-1.22-.433-1.208-.463-1.197-.494-1.184-.523-1.174-.553-1.158-.582-1.143-.611-1.13-.64-1.112-.667-1.097-.696-1.078 1.405 2.07"/><path d="m133.857 226.415.899 6.712 1.228-3.58 3.782.176" fill="#a50034"/><path stroke-width="1.594" stroke-miterlimit="10" fill="none" stroke="#a50034" d="m133.857 226.414-.752-1.04-.774-1.024-.803-1-.826-.984-.852-.96-.875-.938-.9-.916-.922-.893-.945-.869-.967-.844-.987-.82-1.01-.794-1.027-.77-1.048-.74-1.066-.716-1.084-.687-1.101-.66-1.118-.632-1.132-.603-1.149-.575-1.163-.544-1.175-.515-1.189-.484 2.339.89"/><path d="m109.792 207.95 4.585 4.984-1.046-3.638 3.2-2.023" fill="#a50034"/><path stroke-width="1.594" stroke-linecap="round" stroke-miterlimit="10" fill="none" stroke="#00a6d6" d="M92.543 255.343h63.462"/><path d="m159.79 255.343-6.057-3.029 2.272 3.03-2.272 3.028" fill="#00a6d6"/><path stroke-width="1.594" stroke-linecap="round" stroke-miterlimit="10" fill="none" stroke="#00a6d6" d="m92.543 255.343 51.985-36.4"/><path d="m147.629 216.771-6.7.994 3.599 1.178-.124 3.783" fill="#00a6d6"/><path stroke-width="1.594" stroke-linecap="round" stroke-miterlimit="10" fill="none" stroke="#00a6d6" d="m92.543 255.343 21.706-59.635"/><path d="m115.544 192.15-4.918 4.657 3.623-1.099 2.069 3.17" fill="#00a6d6"/><path stroke-width="1.594" stroke-linecap="round" stroke-miterlimit="10" fill="none" stroke="#ed6842" d="M210.197 272.362h77.162"/><path d="m291.144 272.362-6.057-3.029 2.272 3.03-2.272 3.028" fill="#ed6842"/><use xlink:href="#b" transform="matrix(11.9552 0 0 -11.9552 209.048 256.806)"/><use xlink:href="#c" transform="matrix(11.9552 0 0 -11.9552 218.42 259.807)"/><use xlink:href="#d" transform="matrix(11.9552 0 0 -11.9552 222.016 256.806)"/><use xlink:href="#e" transform="matrix(11.9552 0 0 -11.9552 229.557 259.807)"/><use xlink:href="#f" transform="matrix(11.9552 0 0 -11.9552 237.423 255.156)"/><use xlink:href="#g" transform="matrix(11.9552 0 0 -11.9552 252.187 268.151)"/><use xlink:href="#h" transform="matrix(11.9552 0 0 -11.9552 255.997 249.734)"/><use xlink:href="#a" transform="matrix(11.9552 0 0 -11.9552 272.412 249.483)"/><use xlink:href="#a" transform="matrix(11.9552 0 0 -11.9552 256.595 263.929)"/><use xlink:href="#h" transform="matrix(11.9552 0 0 -11.9552 271.814 264.18)"/><use xlink:href="#i" transform="matrix(11.9552 0 0 -11.9552 277.343 268.151)"/><use xlink:href="#d" transform="matrix(11.9552 0 0 -11.9552 285.693 256.806)"/><path stroke-width=".199" stroke-miterlimit="10" fill="none" stroke="#929292" d="M431.642 258.43v-4.253m23.055 4.252v-4.252m23.056 4.252v-4.252M406.46 233.248h4.253m-4.252-23.055h4.252m-4.252-23.056h4.252"/><path stroke-width=".399" stroke-miterlimit="10" fill="none" stroke="#000" d="M327.893 256.303h159.395"/><path d="m489.28 256.303-3.188-1.594 1.196 1.594-1.196 1.594"/><path stroke-width=".399" stroke-miterlimit="10" fill="none" stroke="#000" d="M408.587 336.997V177.602"/><path d="m408.587 175.61-1.594 3.188 1.594-1.196 1.594 1.196"/><use xlink:href="#a" transform="matrix(11.9552 0 0 -11.9552 436.83 270.236)"/><use xlink:href="#j" transform="matrix(11.9552 0 0 -11.9552 459.383 270.236)"/><use xlink:href="#h" transform="matrix(11.9552 0 0 -11.9552 482.342 270.487)"/><use xlink:href="#a" transform="matrix(11.9552 0 0 -11.9552 397.594 229.149)"/><use xlink:href="#j" transform="matrix(11.9552 0 0 -11.9552 397.092 206.094)"/><use xlink:href="#h" transform="matrix(11.9552 0 0 -11.9552 396.996 183.29)"/><path stroke-width="1.196" stroke-linecap="round" stroke-miterlimit="10" fill="none" stroke="#009b77" d="m477.753 233.248.392-1.204.37-1.196.35-1.188.327-1.18.307-1.173.284-1.162.264-1.154.24-1.145.22-1.134.2-1.125.174-1.113.154-1.103.131-1.09.11-1.08.087-1.069.065-1.055.043-1.043.022-1.031-.002-1.018-.024-1.004-.046-.989-.068-.975-.09-.961-.113-.947-.134-.932-.157-.916-.178-.901-.2-.885-.223-.87-.244-.851-.266-.837-.288-.818-.309-.803-.33-.783-.353-.768-.373-.748-.394-.732-.417-.712-.436-.695-.458-.675-.477-.657-.5-.637-.518-.618-.538-.6-.56-.577-.579-.56-.599-.539-.618-.518-.637-.5-.657-.477-.675-.458-.695-.436-.712-.417-.732-.394-.748-.373-.768-.352-.783-.331-.803-.31-.818-.287-.837-.266-.852-.244-.87-.222-.884-.2-.901-.179-.916-.157-.932-.134-.947-.112-.961-.091-.975-.068-.99-.046-1.003-.024-1.018-.002-1.03.022-1.044.043-1.055.065-1.069.087-1.08.11-1.09.131-1.103.154-1.113.175-1.125.198-1.134.22-1.145.241-1.154.264-1.162.284-1.172.307-1.18.327-1.19.35-1.195.37-1.204.392-1.211.413-1.217.434-1.224.455-1.23.476-1.234.495-1.24.516-1.245.536-1.25.558-1.252.575-1.258.596-1.26.617-1.263.635-1.265.654-1.267.672-1.271.692-1.27.712-1.272.729-1.272.745-1.273.765-1.273.782-1.27.8-1.271.817-1.27.834-1.267.85-1.266.866-1.262.884-1.26.899-1.256.914-1.254.93-1.249.943-1.244.961-1.239.973-1.235.989-1.227 1-1.225 1.016-1.215 1.03-1.21 1.04-1.203 1.055-1.195 1.066-1.188 1.078-1.18 1.092-1.17 1.1-1.162 1.112-1.151 1.122-1.144 1.134-1.133 1.143-1.123 1.152-1.111 1.163-1.101 1.17-1.092 1.178-1.078 1.19-1.066 1.194-1.055 1.203-1.04 1.21-1.03 1.215-1.015 1.224-1 1.228-.99 1.235-.973 1.239-.96 1.244-.944 1.249-.93 1.254-.914 1.256-.898 1.26-.885 1.262-.866 1.266-.85 1.267-.834 1.27-.816 1.27-.801 1.27-.782 1.274-.765 1.273-.745 1.271-.729 1.273-.712 1.27-.691 1.27-.672 1.268-.654 1.265-.635 1.263-.618 1.26-.594 1.257-.577 1.254-.557 1.25-.536 1.245-.516 1.238-.495 1.236-.476 1.23-.455 1.224-.434 1.217-.413 1.21-.39 1.202-.37 1.196-.35 1.188-.328 1.181-.308 1.173-.283 1.16-.265 1.156-.24 1.144-.22 1.134-.2 1.126-.173 1.113-.154 1.102-.131 1.09-.11 1.081-.089 1.07-.063 1.054-.043 1.043-.022 1.03.002 1.018.022 1.005.048.988.068.975.09.962.112.946.133.934.159.914.178.901.2.885.223.87.242.853.268.835.287.818.31.803.33.783.351.77.375.747.394.731.416.713.437.694.456.677.48.655.498.637.518.62.54.597.558.58.58.559.598.539.62.518.636.498.655.48.677.456.694.437.713.416.731.394.748.375.769.35.783.331.803.31.818.287.835.268.854.242.87.222.884.201.901.178.914.159.934.133.946.112.962.09.975.068.988.048 1.005.022 1.018.002 1.03-.022 1.043-.043 1.054-.063 1.07-.088 1.08-.11 1.09-.132 1.103-.154 1.113-.173 1.126-.2 1.134-.22 1.144-.24 1.155-.265 1.16-.283 1.174-.308 1.18-.328 1.19-.35 1.195-.37 1.202-.39 1.21-.413 1.217-.434 1.224-.455 1.23-.476 1.236-.495 1.238-.516 1.246-.536 1.25-.557 1.252-.577 1.258-.594 1.26-.618 1.263-.635 1.265-.654 1.268-.672 1.27-.691 1.27-.712 1.273-.729 1.271-.745 1.273-.765 1.273-.782 1.27-.8 1.271-.817 1.27-.834 1.267-.85 1.266-.866 1.262-.885 1.26-.898 1.256-.914 1.254-.93 1.249-.943 1.244-.961 1.239-.973 1.235-.99 1.228-1 1.224-1.015 1.216-1.03 1.209-1.04 1.203-1.055 1.195-1.066 1.189-1.078 1.179-1.092 1.17-1.1 1.162-1.112 1.152-1.123 1.143-1.133 1.134-1.144 1.122-1.151 1.112-1.163 1.1-1.17 1.092-1.179 1.078-1.188 1.066-1.195 1.055-1.203 1.04-1.21 1.03-1.215 1.015-1.225 1.001-1.227.99-1.235.972-1.239.96-1.244.944-1.25.93-1.253.914-1.256.899-1.26.884-1.262.866-1.266.85-1.267.834-1.27.816-1.27.801-1.27.782-1.274.765-1.273.745-1.272.73-1.272.71-1.27.693-1.27.672-1.268.654-1.265.635-1.263.617-1.26.594-1.258.577-1.253.557-1.25.536-1.245.517-1.239.494-1.235.476-1.23.455-1.224.434-1.217.414-1.21"/><path stroke-width="1.594" stroke-miterlimit="10" fill="none" stroke="#a50034" d="m460.461 239.012.42-1.313.39-1.303.354-1.289.322-1.276.287-1.261.25-1.246.219-1.23.18-1.213.147-1.195.11-1.176.078-1.158.039-1.137.007-1.117-.033-1.094-.065-1.073-.102-1.049-.135-1.027-.173-1-.206-.978-.241-.953-.278-.923-.31-.9-.346-.87 1.168 2.61"/><path d="m460.997 212.386-.29 6.766 1.836-3.31 3.692.836" fill="#a50034"/><path stroke-width="1.594" stroke-miterlimit="10" fill="none" stroke="#a50034" d="m460.998 212.385-.417-.812-.446-.787-.483-.755-.512-.728-.547-.695-.579-.665-.611-.634-.642-.602-.675-.57-.704-.536-.735-.505-.766-.47-.792-.44-.825-.403-.85-.37-.88-.336-.906-.301-.933-.266-.958-.232-.984-.198-1.01-.161-1.032-.127-1.057-.09 2.703.146"/><path d="m442.577 201.644 5.885 3.35-2.105-3.146 2.431-2.902" fill="#a50034"/><path stroke-width="1.594" stroke-linecap="round" stroke-miterlimit="10" fill="none" stroke="#00a6d6" d="m408.587 256.303 65.574-21.858"/><path d="m477.753 233.248-6.704-.958 3.112 2.155-1.197 3.592" fill="#00a6d6"/><path stroke-width="1.594" stroke-linecap="round" stroke-miterlimit="10" fill="none" stroke="#00a6d6" d="m408.587 256.303 66.98-56.126"/><path d="m478.468 197.745-6.588 1.57 3.686.862.205 3.78" fill="#00a6d6"/><path stroke-width="1.594" stroke-linecap="round" stroke-miterlimit="10" fill="none" stroke="#00a6d6" d="m408.587 256.303 43.322-69.666"/><path d="m453.909 183.423-5.77 3.544 3.77-.33 1.373 3.528" fill="#00a6d6"/></svg>