<?xml version="1.0" encoding="UTF-8" standalone="no"?>
<svg
   xmlns:dc="http://purl.org/dc/elements/1.1/"
   xmlns:cc="http://creativecommons.org/ns#"
   xmlns:rdf="http://www.w3.org/1999/02/22-rdf-syntax-ns#"
   xmlns:svg="http://www.w3.org/2000/svg"
   xmlns="http://www.w3.org/2000/svg"
   viewBox="0 0 671.00403 457.15466"
   height="457.15466"
   width="671.00403"
   xml:space="preserve"
   id="svg2"
   version="1.1"><metadata
     id="metadata8"><rdf:RDF><cc:Work
         rdf:about=""><dc:format>image/svg+xml</dc:format><dc:type
           rdf:resource="http://purl.org/dc/dcmitype/StillImage" /></cc:Work></rdf:RDF></metadata><defs
     id="defs6" /><g
     transform="matrix(1.3333333,0,0,-1.3333333,0,457.15467)"
     id="g10"><g
       transform="translate(11.846,172.59)"
       id="g12"><g
         id="g14"><g
           id="g16" /><g
           id="g18"><g
             id="g20" /><g
             id="g22" /><g
             id="g24"><g
               id="g26" /></g><g
             id="g28" /><g
             id="g30" /><g
             id="g32" /><g
             id="g34" /><g
             transform="translate(-0.199,-0.199)"
             id="g36"><g
               transform="translate(0.199,0.199)"
               id="g38"><g
                 id="g40"><g
                   id="g42" /><g
                   id="g44"><g
                     id="g46"><g
                       id="g48"><g
                         id="g50"><path
                           id="path52"
                           style="fill:none;stroke:#808080;stroke-width:0.19925;stroke-linecap:butt;stroke-linejoin:miter;stroke-miterlimit:10;stroke-dasharray:none;stroke-opacity:1"
                           d="m 147.94443,78.57089 v 4.25212" /></g></g><g
                       id="g54"><g
                         id="g56"><path
                           id="path58"
                           style="fill:none;stroke:#808080;stroke-width:0.19925;stroke-linecap:butt;stroke-linejoin:miter;stroke-miterlimit:10;stroke-dasharray:none;stroke-opacity:1"
                           d="m 78.57089,147.94443 h 4.25212" /></g></g><path
                       id="path60"
                       style="fill:none;stroke:#000000;stroke-width:0.3985;stroke-linecap:butt;stroke-linejoin:miter;stroke-miterlimit:10;stroke-dasharray:none;stroke-opacity:1"
                       d="M 0,80.69696 H 159.4014" /><g
                       transform="translate(159.4014,80.69696)"
                       id="g62"><g
                         id="g64"><path
                           id="path66"
                           style="fill:#000000;fill-opacity:1;fill-rule:nonzero;stroke:none"
                           d="M 1.99252,0 -1.19551,1.59401 0,0 -1.19551,-1.59401" /></g></g><path
                       id="path68"
                       style="fill:none;stroke:#000000;stroke-width:0.3985;stroke-linecap:butt;stroke-linejoin:miter;stroke-miterlimit:10;stroke-dasharray:none;stroke-opacity:1"
                       d="M 80.69696,0 V 159.4014" /><g
                       transform="rotate(90,-39.35222,120.04918)"
                       id="g70"><g
                         id="g72"><path
                           id="path74"
                           style="fill:#000000;fill-opacity:1;fill-rule:nonzero;stroke:none"
                           d="M 1.99252,0 -1.19551,1.59401 0,0 -1.19551,-1.59401" /></g></g><g
                       id="g76"><g
                         transform="translate(152.043,66.764)"
                         id="g78"><g
                           id="g80"><g
                             transform="translate(-163.889,-239.354)"
                             id="g82"><text
                               id="text86"
                               style="font-variant:normal;font-weight:normal;font-size:11.9552002px;font-family:CMR12;-inkscape-font-specification:CMR12;writing-mode:lr-tb;fill:#000000;fill-opacity:1;fill-rule:nonzero;stroke:none"
                               transform="matrix(1,0,0,-1,163.889,239.354)"><tspan
                                 id="tspan84"
                                 y="0"
                                 x="0">1</tspan></text>
<g
                               transform="translate(163.889,239.354)"
                               id="g88" /></g></g><g
                           transform="translate(-152.043,-66.764)"
                           id="g90" /></g></g><g
                       id="g92"><g
                         transform="translate(68.616,152.043)"
                         id="g94"><g
                           id="g96"><g
                             transform="translate(-80.462,-324.633)"
                             id="g98"><text
                               id="text102"
                               style="font-variant:normal;font-weight:normal;font-size:11.9552002px;font-family:CMR12;-inkscape-font-specification:CMR12;writing-mode:lr-tb;fill:#000000;fill-opacity:1;fill-rule:nonzero;stroke:none"
                               transform="matrix(1,0,0,-1,80.462,324.633)"><tspan
                                 id="tspan100"
                                 y="0"
                                 x="0">1</tspan></text>
<g
                               transform="translate(80.462,324.633)"
                               id="g104" /></g></g><g
                           transform="translate(-68.616,-152.043)"
                           id="g106" /></g></g><g
                       id="g108"><path
                         id="path110"
                         style="fill:none;stroke:#009b77;stroke-width:1.19553006;stroke-linecap:round;stroke-linejoin:miter;stroke-miterlimit:10;stroke-dasharray:none;stroke-opacity:1"
                         d="m 147.94443,80.69696 -0.0101,1.17414 -0.0309,1.17278 -0.0511,1.17279 -0.072,1.17147 -0.0921,1.1701 -0.11232,1.16741 -0.13246,1.16675 -0.154,1.16406 -0.17283,1.16002 -0.19301,1.158 -0.21451,1.15395 -0.23402,1.15062 -0.25421,1.14521 -0.27369,1.14052 -0.29387,1.13716 -0.31404,1.13044 -0.33356,1.12572 -0.3517,1.11965 -0.37255,1.11363 -0.39206,1.10624 -0.41155,1.09881 -0.42971,1.09142 -0.44989,1.08471 -0.46804,1.07662 -0.4862,1.06789 -0.5057,1.05915 -0.52386,1.05109 -0.54134,1.04031 -0.56016,1.03225 -0.57765,1.02083 -0.59649,1.01206 -0.61263,0.99997 -0.63079,0.99056 -0.64758,0.97778 -0.66509,0.96768 -0.68121,0.95491 -0.69736,0.94417 -0.71551,0.9307 -0.73032,0.91861 -0.74711,0.90582 -0.76192,0.89305 -0.7787,0.87823 -0.79219,0.8655 -0.80698,0.85135 -0.82378,0.83654 -0.83654,0.82378 -0.85135,0.80698 -0.8655,0.79219 -0.87823,0.7787 -0.89305,0.76192 -0.90582,0.74711 -0.91861,0.73032 -0.9307,0.71551 -0.94417,0.69736 -0.95491,0.68121 -0.96768,0.66509 -0.97778,0.64758 -0.99056,0.63079 -0.99997,0.61263 -1.01206,0.59649 -1.02083,0.57765 -1.03225,0.56016 -1.04031,0.54134 -1.05109,0.52386 -1.05915,0.5057 -1.06789,0.4862 -1.07662,0.46804 -1.08471,0.44989 -1.09142,0.42971 -1.09881,0.41155 -1.10624,0.39206 -1.11363,0.37255 -1.11965,0.3517 -1.12572,0.33356 -1.13044,0.31404 -1.13716,0.29387 -1.14052,0.27369 -1.14521,0.25421 -1.15062,0.23402 -1.15395,0.21451 -1.158,0.19301 -1.16002,0.17283 -1.16406,0.154 -1.16675,0.13246 -1.16741,0.11232 -1.1701,0.0921 -1.17147,0.072 -1.17279,0.0511 -1.17278,0.0309 -1.17414,0.0101 -1.17416,-0.0101 -1.17278,-0.0309 -1.17279,-0.0511 -1.17146,-0.072 -1.17012,-0.0921 -1.16741,-0.11232 -1.16673,-0.13246 -1.16406,-0.154 -1.16002,-0.17283 -1.15801,-0.19301 -1.15329,-0.21587 -1.14993,-0.23401 -1.14523,-0.25419 -1.14117,-0.27303 -1.13784,-0.2932 -1.12976,-0.3154 -1.12572,-0.33354 -1.119,-0.35171 -1.11362,-0.37255 -1.10757,-0.39071 -1.09747,-0.41289 -1.09211,-0.4297 -1.0847,-0.44922 -1.07596,-0.46805 -1.06923,-0.48553 -1.05781,-0.50705 -1.05106,-0.52317 -1.04033,-0.54202 -1.03225,-0.56018 -1.02214,-0.57629 -1.01075,-0.59717 -0.99996,-0.61262 -0.99056,-0.63144 -0.97778,-0.64693 -0.96903,-0.66442 -0.95425,-0.68255 -0.94348,-0.69736 -0.93138,-0.71484 -0.91793,-0.73097 -0.90718,-0.74579 -0.89168,-0.76392 -0.87825,-0.77739 -0.86616,-0.79217 -0.85068,-0.80764 -0.83789,-0.82245 -0.82245,-0.8379 -0.80763,-0.85066 -0.79218,-0.86617 -0.77739,-0.87825 -0.76392,-0.89169 -0.74578,-0.90718 -0.73097,-0.91793 -0.71485,-0.93138 -0.69735,-0.94348 -0.68256,-0.95424 -0.66441,-0.96904 -0.64693,-0.97776 -0.63144,-0.99056 -0.61262,-0.99999 -0.59717,-1.0107 -0.57631,-1.02218 -0.56018,-1.03224 -0.54201,-1.04033 -0.52318,-1.05107 -0.50703,-1.05781 -0.48555,-1.06923 -0.46803,-1.07594 -0.44923,-1.08472 -0.42971,-1.09209 -0.41289,-1.09747 -0.3907,-1.10758 -0.37256,-1.11361 -0.3517,-1.11901 -0.33354,-1.12573 -0.31541,-1.12975 -0.2932,-1.13783 -0.27301,-1.14119 -0.25421,-1.14522 -0.234,-1.14994 -0.21587,-1.15328 -0.19166,-1.15868 -0.17349,-1.16069 -0.15399,-1.16337 -0.13182,-1.16742 -0.11365,-1.16608 -0.09078,-1.17077 -0.07194,-1.17214 -0.05112,-1.17279 -0.03095,-1.17279 -0.0114,-1.17279 0.0114,-1.17281 0.03095,-1.1728 0.05112,-1.17278 0.07194,-1.17213 0.09078,-1.17079 0.11365,-1.16606 0.13182,-1.16742 0.15399,-1.16338 0.17349,-1.16069 0.19166,-1.15868 0.21587,-1.15329 0.234,-1.14993 0.25421,-1.14523 0.27301,-1.14117 0.2932,-1.13784 0.31541,-1.12976 0.33354,-1.12572 0.3517,-1.119 0.37256,-1.11362 0.3907,-1.10757 0.41289,-1.09747 0.42971,-1.09211 0.44923,-1.0847 0.46803,-1.07596 0.48555,-1.06923 0.50703,-1.05781 0.52318,-1.05106 0.54201,-1.04033 0.56018,-1.03225 0.57631,-1.02214 0.59717,-1.01075 0.61262,-0.99996 0.63144,-0.99056 0.64693,-0.97778 0.66441,-0.96903 0.68256,-0.95425 0.69735,-0.94348 0.71485,-0.93138 0.73097,-0.91793 0.74578,-0.90718 0.76392,-0.89168 0.77739,-0.87825 0.79218,-0.86616 0.80763,-0.85068 0.82245,-0.83789 0.83789,-0.82245 0.85068,-0.80763 0.86616,-0.79218 0.87825,-0.77739 0.89168,-0.76392 0.90718,-0.74578 0.91793,-0.73097 0.93138,-0.71485 0.94348,-0.69735 0.95425,-0.68256 0.96903,-0.66441 0.97778,-0.64693 0.99056,-0.63144 0.99996,-0.61262 1.01075,-0.59717 1.02214,-0.57631 1.03225,-0.56018 1.04033,-0.54201 1.05106,-0.52318 1.05781,-0.50703 1.06923,-0.48555 1.07596,-0.46803 1.0847,-0.44923 1.09211,-0.42971 1.09747,-0.41289 1.10757,-0.3907 1.11362,-0.37256 1.119,-0.3517 1.12572,-0.33354 1.12976,-0.31541 1.13784,-0.2932 1.14117,-0.27301 1.14523,-0.25421 1.14993,-0.234 1.15329,-0.21587 1.15868,-0.19166 1.16069,-0.17349 1.16338,-0.15399 1.16742,-0.13182 1.16606,-0.11365 1.17079,-0.09078 1.17213,-0.07194 1.17278,-0.05112 1.1728,-0.03095 1.17281,-0.0114 1.17279,0.0114 1.17279,0.03095 1.17279,0.05112 1.17214,0.07194 1.17077,0.09078 1.16608,0.11365 1.16742,0.13182 1.16337,0.15399 1.16069,0.17349 1.15868,0.19166 1.15328,0.21587 1.14994,0.234 1.14522,0.25421 1.14119,0.27301 1.13783,0.2932 1.12975,0.31541 1.12573,0.33354 1.11901,0.3517 1.11361,0.37256 1.10758,0.3907 1.09747,0.41289 1.09209,0.42971 1.08472,0.44923 1.07594,0.46803 1.06923,0.48555 1.05781,0.50703 1.05107,0.52318 1.04033,0.54201 1.03224,0.56018 1.02218,0.57631 1.0107,0.59717 0.99999,0.61262 0.99056,0.63144 0.97776,0.64693 0.96904,0.66441 0.95424,0.68256 0.94348,0.69735 0.93138,0.71485 0.91793,0.73097 0.90718,0.74578 0.89169,0.76392 0.87825,0.77739 0.86617,0.79218 0.85066,0.80763 0.8379,0.82245 0.82245,0.83789 0.80764,0.85068 0.79217,0.86616 0.77739,0.87825 0.76392,0.89168 0.74579,0.90718 0.73097,0.91793 0.71484,0.93138 0.69736,0.94348 0.68255,0.95425 0.66442,0.96903 0.64693,0.97778 0.63144,0.99056 0.61262,0.99996 0.59717,1.01075 0.57629,1.02214 0.56018,1.03225 0.54202,1.04033 0.52317,1.05106 0.50705,1.05781 0.48553,1.06923 0.46805,1.07596 0.44922,1.0847 0.4297,1.09211 0.41289,1.09747 0.39071,1.10757 0.37255,1.11362 0.35171,1.119 0.33354,1.12572 0.3154,1.12976 0.2932,1.13784 0.27303,1.14117 0.25419,1.14523 0.23401,1.14993 0.21587,1.15329 0.19165,1.15868 0.17351,1.16069 0.15399,1.16338 0.13182,1.16742 0.11365,1.16606 0.0908,1.17079 0.072,1.17213 0.0511,1.17278 0.0309,1.1728 0.0114,1.17281" /></g><g
                       id="g112"><path
                         id="path114"
                         style="fill:none;stroke:#a50034;stroke-width:1.59404004;stroke-linecap:butt;stroke-linejoin:miter;stroke-miterlimit:10;stroke-dasharray:none;stroke-opacity:1"
                         d="m 131.13257,80.69696 -0.0192,1.28308 -0.0479,1.28256 -0.0832,1.28057 -0.11297,1.27905 -0.14678,1.27501 -0.17955,1.27098 -0.2098,1.26593 -0.24462,1.26088 -0.27588,1.25333 -0.30714,1.24577 -0.33844,1.2392 -0.37169,1.22912 -0.39946,1.21901 -0.43427,1.20845 -0.46249,1.19734 -0.49376,1.18424 -0.52301,1.17312 -0.55379,1.158 -0.58201,1.14388 -0.61079,1.12975 -0.64052,1.11162 -0.66626,1.09697 -0.69652,1.0778 1.40565,-2.06921" /><g
                         transform="matrix(-0.56194,0.82713,-0.82713,-0.56194,124.13817,106.49341)"
                         id="g116"><g
                           id="g118"><path
                             id="path120"
                             style="fill:#a50034;fill-opacity:1;fill-rule:nonzero;stroke:none"
                             d="M 3.78581,0 -2.27148,3.02866 0,0 -2.27148,-3.02866" /></g></g></g><g
                       id="g122"><path
                         id="path124"
                         style="fill:none;stroke:#a50034;stroke-width:1.59404004;stroke-linecap:butt;stroke-linejoin:miter;stroke-miterlimit:10;stroke-dasharray:none;stroke-opacity:1"
                         d="m 122.01126,109.62581 -0.75198,1.03998 -0.77469,1.02383 -0.80293,1.00115 -0.82564,0.98298 -0.85236,0.95981 -0.87506,0.9386 -0.89976,0.91591 -0.92199,0.89271 -0.94514,0.86901 -0.96635,0.84379 -0.98754,0.82057 -1.00972,0.79337 -1.02737,0.77066 -1.04805,0.7404 -1.06519,0.71565 -1.08436,0.68694 -1.10152,0.66072 -1.11716,0.63095 -1.13278,0.6032 -1.14841,0.57496 -1.16306,0.54421 -1.17515,0.51495 -1.18876,0.48367 2.33844,-0.88952" /><g
                         transform="matrix(-0.93462,0.35553,-0.35553,-0.93462,101.48473,126.74431)"
                         id="g126"><g
                           id="g128"><path
                             id="path130"
                             style="fill:#a50034;fill-opacity:1;fill-rule:nonzero;stroke:none"
                             d="M 3.78581,0 -2.27148,3.02866 0,0 -2.27148,-3.02866" /></g></g></g><g
                       id="g132"><path
                         id="path134"
                         style="fill:none;stroke:#00a6d6;stroke-width:1.59404004;stroke-linecap:round;stroke-linejoin:miter;stroke-miterlimit:10;stroke-dasharray:none;stroke-opacity:1"
                         d="M 80.69696,80.69696 H 144.1586" /><g
                         transform="translate(144.1586,80.69696)"
                         id="g136"><g
                           id="g138"><path
                             id="path140"
                             style="fill:#00a6d6;fill-opacity:1;fill-rule:nonzero;stroke:none"
                             d="M 3.78581,0 -2.27148,3.02866 0,0 -2.27148,-3.02866" /></g></g></g><g
                       id="g142"><path
                         id="path144"
                         style="fill:none;stroke:#00a6d6;stroke-width:1.59404004;stroke-linecap:round;stroke-linejoin:miter;stroke-miterlimit:10;stroke-dasharray:none;stroke-opacity:1"
                         d="m 80.69696,80.69696 51.98465,36.40039" /><g
                         transform="matrix(0.81914,0.57356,-0.57356,0.81914,132.6816,117.09735)"
                         id="g146"><g
                           id="g148"><path
                             id="path150"
                             style="fill:#00a6d6;fill-opacity:1;fill-rule:nonzero;stroke:none"
                             d="M 3.78581,0 -2.27148,3.02866 0,0 -2.27148,-3.02866" /></g></g></g><g
                       id="g152"><path
                         id="path154"
                         style="fill:none;stroke:#00a6d6;stroke-width:1.59404004;stroke-linecap:round;stroke-linejoin:miter;stroke-miterlimit:10;stroke-dasharray:none;stroke-opacity:1"
                         d="m 80.69696,80.69696 21.70587,59.63498" /><g
                         transform="matrix(0.34201,0.93968,-0.93968,0.34201,102.40282,140.33194)"
                         id="g156"><g
                           id="g158"><path
                             id="path160"
                             style="fill:#00a6d6;fill-opacity:1;fill-rule:nonzero;stroke:none"
                             d="M 3.78581,0 -2.27148,3.02866 0,0 -2.27148,-3.02866" /></g></g></g></g></g></g><g
                 transform="translate(-0.199,-0.199)"
                 id="g162" /></g><g
               transform="translate(0.199,0.199)"
               id="g164" /></g><g
             id="g166" /><g
             id="g168" /></g></g><g
         transform="translate(124.504,-17.02)"
         id="g170"><g
           id="g172"><g
             id="g174" /><g
             id="g176"><g
               id="g178" /><g
               id="g180" /><g
               id="g182"><g
                 id="g184" /></g><g
               id="g186" /><g
               id="g188" /><g
               id="g190" /><g
               id="g192" /><g
               transform="translate(68.51,79.899)"
               id="g194"><g
                 transform="translate(-68.51,-79.899)"
                 id="g196"><g
                   id="g198"><g
                     id="g200" /><g
                     id="g202"><g
                       id="g204"><g
                         id="g206"><path
                           id="path208"
                           style="fill:none;stroke:#ed6842;stroke-width:1.59404004;stroke-linecap:round;stroke-linejoin:miter;stroke-miterlimit:10;stroke-dasharray:none;stroke-opacity:1"
                           d="M 80.69696,80.69696 H 144.1586" /><g
                           transform="translate(144.1586,80.69696)"
                           id="g210"><g
                             id="g212"><path
                               id="path214"
                               style="fill:#ed6842;fill-opacity:1;fill-rule:nonzero;stroke:none"
                               d="M 3.78581,0 -2.27148,3.02866 0,0 -2.27148,-3.02866" /></g></g></g><g
                         id="g216"><g
                           transform="translate(72.412,96.254)"
                           id="g218"><g
                             id="g220"><g
                               transform="translate(-208.762,-251.824)"
                               id="g222"><text
                                 id="text226"
                                 style="font-variant:normal;font-weight:normal;font-size:11.9552002px;font-family:CMMI12;-inkscape-font-specification:CMMI12;writing-mode:lr-tb;fill:#000000;fill-opacity:1;fill-rule:nonzero;stroke:none"
                                 transform="matrix(1,0,0,-1,208.762,251.824)"><tspan
                                   id="tspan224"
                                   y="0"
                                   x="0">T</tspan></text>
<text
                                 id="text230"
                                 style="font-variant:normal;font-weight:normal;font-size:11.9552002px;font-family:CMR12;-inkscape-font-specification:CMR12;writing-mode:lr-tb;fill:#000000;fill-opacity:1;fill-rule:nonzero;stroke:none"
                                 transform="matrix(1,0,0,-1,217.248,251.824)"><tspan
                                   id="tspan228"
                                   y="0"
                                   x="0">(</tspan></text>
<text
                                 id="text234"
                                 style="font-variant:normal;font-weight:normal;font-size:11.9552002px;font-family:CMBX12;-inkscape-font-specification:CMBX12;writing-mode:lr-tb;fill:#000000;fill-opacity:1;fill-rule:nonzero;stroke:none"
                                 transform="matrix(1,0,0,-1,221.801,251.824)"><tspan
                                   id="tspan232"
                                   y="0"
                                   x="0">x</tspan></text>
<text
                                 id="text238"
                                 style="font-variant:normal;font-weight:normal;font-size:11.9552002px;font-family:CMR12;-inkscape-font-specification:CMR12;writing-mode:lr-tb;fill:#000000;fill-opacity:1;fill-rule:nonzero;stroke:none"
                                 transform="matrix(1,0,0,-1,228.899,251.824)"><tspan
                                   id="tspan236"
                                   y="0"
                                   x="0 7.8760858">)=</tspan></text>
<text
                                 id="text242"
                                 style="font-variant:normal;font-weight:normal;font-size:11.9552002px;font-family:CMEX10;-inkscape-font-specification:CMEX10;writing-mode:lr-tb;fill:#000000;fill-opacity:1;fill-rule:nonzero;stroke:none"
                                 transform="matrix(1,0,0,-1,249.198,268.681)"><tspan
                                   id="tspan240"
                                   y="0"
                                   x="0"></tspan></text>
<text
                                 id="text248"
                                 style="font-variant:normal;font-weight:normal;font-size:11.9552002px;font-family:CMR12;-inkscape-font-specification:CMR12;writing-mode:lr-tb;fill:#000000;fill-opacity:1;fill-rule:nonzero;stroke:none"
                                 transform="matrix(1,0,0,-1,255.507,259.147)"><tspan
                                   id="tspan244"
                                   y="0"
                                   x="0 15.811948">13</tspan><tspan
                                   id="tspan246"
                                   y="14.446"
                                   x="0 15.811948">31</tspan></text>
<text
                                 id="text252"
                                 style="font-variant:normal;font-weight:normal;font-size:11.9552002px;font-family:CMEX10;-inkscape-font-specification:CMEX10;writing-mode:lr-tb;fill:#000000;fill-opacity:1;fill-rule:nonzero;stroke:none"
                                 transform="matrix(1,0,0,-1,277.176,268.681)"><tspan
                                   id="tspan250"
                                   y="0"
                                   x="0"></tspan></text>
<text
                                 id="text256"
                                 style="font-variant:normal;font-weight:normal;font-size:11.9552002px;font-family:CMBX12;-inkscape-font-specification:CMBX12;writing-mode:lr-tb;fill:#000000;fill-opacity:1;fill-rule:nonzero;stroke:none"
                                 transform="matrix(1,0,0,-1,285.478,251.824)"><tspan
                                   id="tspan254"
                                   y="0"
                                   x="0">x</tspan></text>
<g
                                 transform="translate(208.762,251.824)"
                                 id="g258" /></g></g><g
                             transform="translate(-72.412,-96.254)"
                             id="g260" /></g></g></g></g></g><g
                   transform="translate(68.51,79.899)"
                   id="g262" /></g><g
                 transform="translate(-68.51,-79.899)"
                 id="g264" /></g><g
               id="g266" /><g
               id="g268" /></g></g><g
           transform="translate(191.543,16.062)"
           id="g270"><g
             id="g272"><g
               id="g274" /><g
               id="g276"><g
                 id="g278" /><g
                 id="g280" /><g
                 id="g282"><g
                   id="g284" /></g><g
                 id="g286" /><g
                 id="g288" /><g
                 id="g290" /><g
                 id="g292" /><g
                 transform="translate(-0.199,-0.199)"
                 id="g294"><g
                   transform="translate(0.199,0.199)"
                   id="g296"><g
                     id="g298"><g
                       id="g300" /><g
                       id="g302"><g
                         id="g304"><g
                           id="g306"><g
                             id="g308"><path
                               id="path310"
                               style="fill:none;stroke:#808080;stroke-width:0.19925;stroke-linecap:butt;stroke-linejoin:miter;stroke-miterlimit:10;stroke-dasharray:none;stroke-opacity:1"
                               d="m 103.74893,78.56763 v 4.25195 m 23.05533,-4.25195 v 4.25195 m 23.05531,-4.25195 v 4.25195" /></g></g><g
                           id="g312"><g
                             id="g314"><path
                               id="path316"
                               style="fill:none;stroke:#808080;stroke-width:0.19925;stroke-linecap:butt;stroke-linejoin:miter;stroke-miterlimit:10;stroke-dasharray:none;stroke-opacity:1"
                               d="m 78.56763,103.74893 h 4.25195 m -4.25195,23.05533 h 4.25195 m -4.25195,23.05531 h 4.25195" /></g></g><path
                           id="path318"
                           style="fill:none;stroke:#000000;stroke-width:0.3985;stroke-linecap:butt;stroke-linejoin:miter;stroke-miterlimit:10;stroke-dasharray:none;stroke-opacity:1"
                           d="M 0,80.69362 H 159.39471" /><g
                           transform="translate(159.39471,80.69362)"
                           id="g320"><g
                             id="g322"><path
                               id="path324"
                               style="fill:#000000;fill-opacity:1;fill-rule:nonzero;stroke:none"
                               d="M 1.99252,0 -1.19551,1.59401 0,0 -1.19551,-1.59401" /></g></g><path
                           id="path326"
                           style="fill:none;stroke:#000000;stroke-width:0.3985;stroke-linecap:butt;stroke-linejoin:miter;stroke-miterlimit:10;stroke-dasharray:none;stroke-opacity:1"
                           d="M 80.69362,0 V 159.39471" /><g
                           transform="rotate(90,-39.350545,120.04417)"
                           id="g328"><g
                             id="g330"><path
                               id="path332"
                               style="fill:#000000;fill-opacity:1;fill-rule:nonzero;stroke:none"
                               d="M 1.99252,0 -1.19551,1.59401 0,0 -1.19551,-1.59401" /></g></g><g
                           id="g334"><g
                             transform="translate(107.849,66.762)"
                             id="g336"><g
                               id="g338"><g
                                 transform="translate(-435.742,-238.394)"
                                 id="g340"><text
                                   id="text344"
                                   style="font-variant:normal;font-weight:normal;font-size:11.9552002px;font-family:CMR12;-inkscape-font-specification:CMR12;writing-mode:lr-tb;fill:#000000;fill-opacity:1;fill-rule:nonzero;stroke:none"
                                   transform="matrix(1,0,0,-1,435.742,238.394)"><tspan
                                   id="tspan342"
                                   y="0"
                                   x="0">1</tspan></text>
<g
                                   transform="translate(435.742,238.394)"
                                   id="g346" /></g></g><g
                               transform="translate(-107.849,-66.762)"
                               id="g348" /></g></g><g
                           id="g350"><g
                             transform="translate(130.904,66.762)"
                             id="g352"><g
                               id="g354"><g
                                 transform="translate(-458.797,-238.394)"
                                 id="g356"><text
                                   id="text360"
                                   style="font-variant:normal;font-weight:normal;font-size:11.9552002px;font-family:CMR12;-inkscape-font-specification:CMR12;writing-mode:lr-tb;fill:#000000;fill-opacity:1;fill-rule:nonzero;stroke:none"
                                   transform="matrix(1,0,0,-1,458.797,238.394)"><tspan
                                   id="tspan358"
                                   y="0"
                                   x="0">2</tspan></text>
<g
                                   transform="translate(458.797,238.394)"
                                   id="g362" /></g></g><g
                               transform="translate(-130.904,-66.762)"
                               id="g364" /></g></g><g
                           id="g366"><g
                             transform="translate(153.959,66.762)"
                             id="g368"><g
                               id="g370"><g
                                 transform="translate(-481.852,-238.394)"
                                 id="g372"><text
                                   id="text376"
                                   style="font-variant:normal;font-weight:normal;font-size:11.9552002px;font-family:CMR12;-inkscape-font-specification:CMR12;writing-mode:lr-tb;fill:#000000;fill-opacity:1;fill-rule:nonzero;stroke:none"
                                   transform="matrix(1,0,0,-1,481.852,238.394)"><tspan
                                   id="tspan374"
                                   y="0"
                                   x="0">3</tspan></text>
<g
                                   transform="translate(481.852,238.394)"
                                   id="g378" /></g></g><g
                               transform="translate(-153.959,-66.762)"
                               id="g380" /></g></g><g
                           id="g382"><g
                             transform="translate(68.613,107.849)"
                             id="g384"><g
                               id="g386"><g
                                 transform="translate(-396.506,-279.481)"
                                 id="g388"><text
                                   id="text392"
                                   style="font-variant:normal;font-weight:normal;font-size:11.9552002px;font-family:CMR12;-inkscape-font-specification:CMR12;writing-mode:lr-tb;fill:#000000;fill-opacity:1;fill-rule:nonzero;stroke:none"
                                   transform="matrix(1,0,0,-1,396.506,279.481)"><tspan
                                   id="tspan390"
                                   y="0"
                                   x="0">1</tspan></text>
<g
                                   transform="translate(396.506,279.481)"
                                   id="g394" /></g></g><g
                               transform="translate(-68.613,-107.849)"
                               id="g396" /></g></g><g
                           id="g398"><g
                             transform="translate(68.613,130.904)"
                             id="g400"><g
                               id="g402"><g
                                 transform="translate(-396.506,-302.536)"
                                 id="g404"><text
                                   id="text408"
                                   style="font-variant:normal;font-weight:normal;font-size:11.9552002px;font-family:CMR12;-inkscape-font-specification:CMR12;writing-mode:lr-tb;fill:#000000;fill-opacity:1;fill-rule:nonzero;stroke:none"
                                   transform="matrix(1,0,0,-1,396.506,302.536)"><tspan
                                   id="tspan406"
                                   y="0"
                                   x="0">2</tspan></text>
<g
                                   transform="translate(396.506,302.536)"
                                   id="g410" /></g></g><g
                               transform="translate(-68.613,-130.904)"
                               id="g412" /></g></g><g
                           id="g414"><g
                             transform="translate(68.613,153.959)"
                             id="g416"><g
                               id="g418"><g
                                 transform="translate(-396.506,-325.591)"
                                 id="g420"><text
                                   id="text424"
                                   style="font-variant:normal;font-weight:normal;font-size:11.9552002px;font-family:CMR12;-inkscape-font-specification:CMR12;writing-mode:lr-tb;fill:#000000;fill-opacity:1;fill-rule:nonzero;stroke:none"
                                   transform="matrix(1,0,0,-1,396.506,325.591)"><tspan
                                   id="tspan422"
                                   y="0"
                                   x="0">3</tspan></text>
<g
                                   transform="translate(396.506,325.591)"
                                   id="g426" /></g></g><g
                               transform="translate(-68.613,-153.959)"
                               id="g428" /></g></g><g
                           id="g430"><path
                             id="path432"
                             style="fill:none;stroke:#009b77;stroke-width:1.19553006;stroke-linecap:round;stroke-linejoin:miter;stroke-miterlimit:10;stroke-dasharray:none;stroke-opacity:1"
                             d="m 103.74893,149.85957 1.20418,0.39217 1.19563,0.37026 1.18874,0.34953 1.1802,0.32762 1.17191,0.30641 1.16221,0.28471 1.15462,0.26377 1.14448,0.24069 1.13386,0.21994 1.12484,0.19852 1.11336,0.17498 1.1032,0.15378 1.09073,0.13118 1.07922,0.10951 1.06885,0.0876 1.05502,0.0646 1.04348,0.0429 1.03103,0.0221 1.01767,-0.001 1.00337,-0.024 0.98908,-0.0465 0.97523,-0.0678 0.9614,-0.0908 0.94688,-0.1123 0.93166,-0.13395 0.916,-0.15702 0.90146,-0.17843 0.8844,-0.20014 0.86964,-0.22224 0.85192,-0.24416 0.83644,-0.26651 0.81846,-0.28727 0.80255,-0.30916 0.78365,-0.33086 0.76729,-0.35229 0.74861,-0.37327 0.73201,-0.39353 0.71193,-0.41686 0.69444,-0.4362 0.67552,-0.45787 0.6573,-0.4775 0.63633,-0.49983 0.61856,-0.51805 0.599,-0.53811 0.57798,-0.56048 0.56048,-0.57798 0.53811,-0.599 0.51805,-0.61856 0.49983,-0.63633 0.4775,-0.6573 0.45787,-0.67552 0.4362,-0.69444 0.41686,-0.71193 0.39353,-0.73201 0.37327,-0.74861 0.35229,-0.76729 0.33086,-0.78365 0.30916,-0.80255 0.28727,-0.81846 0.26651,-0.83644 0.24416,-0.85192 0.22224,-0.86964 0.20014,-0.8844 0.17843,-0.90146 0.15702,-0.916 0.13395,-0.93166 0.1123,-0.94688 0.0908,-0.9614 0.0678,-0.97523 0.0465,-0.98908 0.024,-1.00337 0.001,-1.01767 -0.0221,-1.03103 -0.0429,-1.04348 -0.0646,-1.05502 -0.0876,-1.06885 -0.10951,-1.07922 -0.13118,-1.09073 -0.15378,-1.1032 -0.17498,-1.11336 -0.19852,-1.12484 -0.21994,-1.13386 -0.24069,-1.14448 -0.26377,-1.15462 -0.28471,-1.16221 -0.30641,-1.17191 -0.32762,-1.1802 -0.34953,-1.18874 -0.37026,-1.19563 -0.39217,-1.20418 -0.41293,-1.2111 -0.43388,-1.21686 -0.45466,-1.22377 -0.47564,-1.22954 -0.49591,-1.23508 -0.51576,-1.23921 -0.53626,-1.24545 -0.55748,-1.25006 -0.57545,-1.25236 -0.59552,-1.25724 -0.61744,-1.26019 -0.63494,-1.26297 -0.65407,-1.26505 -0.67206,-1.26735 -0.69165,-1.2708 -0.71173,-1.27012 -0.72901,-1.27219 -0.74538,-1.27149 -0.76499,-1.27312 -0.78156,-1.27314 -0.80095,-1.27034 -0.81639,-1.27057 -0.83391,-1.26966 -0.85028,-1.26711 -0.86595,-1.2662 -0.88417,-1.26183 -0.89847,-1.26042 -0.91413,-1.25585 -0.93006,-1.25372 -0.94319,-1.24892 -0.96072,-1.2443 -0.97293,-1.23854 -0.98906,-1.23529 -1.00061,-1.22747 -1.0156,-1.22445 -1.02919,-1.21549 -1.04071,-1.20948 -1.05455,-1.20303 -1.06654,-1.19471 -1.07807,-1.18876 -1.09144,-1.17903 -1.10065,-1.16983 -1.11174,-1.16246 -1.12233,-1.15184 -1.13316,-1.14378 -1.14379,-1.13315 -1.15182,-1.12234 -1.16248,-1.11173 -1.16981,-1.10066 -1.17903,-1.09143 -1.18876,-1.07806 -1.19473,-1.06655 -1.20302,-1.05456 -1.20948,-1.04071 -1.21547,-1.02919 L 100.2556,36.2448 99.02812,35.24419 97.79283,34.25511 96.55429,33.28218 95.30998,32.32147 94.06108,31.37828 92.80734,30.44821 91.5515,29.53407 90.29108,28.6356 89.02925,27.75145 87.76305,26.88548 86.49596,26.0352 85.22629,25.2013 83.95572,24.3849 82.68536,23.58397 81.41225,22.8024 80.13911,22.03741 78.86761,21.29204 77.59543,20.56302 76.32532,19.8513 75.05452,19.15964 73.78716,18.4876 72.52211,17.83351 71.25914,17.19856 69.99895,16.58115 68.7415,15.98677 67.48822,15.41039 66.23885,14.85315 64.99294,14.31734 63.75462,13.80067 62.51933,13.30591 61.2891,12.83003 60.06532,12.3754 58.84846,11.94148 57.63829,11.52765 56.43596,11.13733 55.2403,10.76706 54.05157,10.41754 52.87068,10.08968 51.69762,9.78166 50.53725,9.49878 49.38171,9.2341 48.23793,8.99364 47.10362,8.77415 45.9776,8.57404 44.8654,8.40065 43.7629,8.2471 42.67216,8.11592 41.59201,8.00548 40.52225,7.91696 39.46838,7.85402 38.42491,7.81111 37.39456,7.78923 36.37689,7.7906 l -1.0052,0.02214 -0.98724,0.04842 -0.97593,0.06755 -0.96164,0.09015 -0.94618,0.1125 -0.93327,0.13282 -0.91416,0.15884 -0.90168,0.17775 -0.88419,0.20082 -0.86964,0.22223 -0.85373,0.24232 -0.83484,0.26769 -0.81847,0.28726 -0.8023,0.30986 -0.78389,0.33015 -0.76891,0.35114 -0.74744,0.37489 -0.73132,0.39377 -0.71288,0.41591 -0.69349,0.43713 -0.67737,0.45604 -0.65522,0.48002 -0.6368,0.49845 -0.61927,0.51783 -0.59806,0.53903 -0.57984,0.55862 -0.55862,0.57984 -0.53903,0.59806 -0.51783,0.61927 -0.49845,0.6368 -0.48002,0.65522 -0.45604,0.67737 -0.43713,0.69349 -0.41591,0.71288 -0.39377,0.73132 -0.37489,0.74744 -0.35114,0.76891 -0.33015,0.78389 -0.30986,0.8023 -0.28726,0.81847 -0.26769,0.83484 -0.24232,0.85373 -0.22223,0.86964 -0.20082,0.88419 -0.17775,0.90168 -0.15884,0.91416 -0.13282,0.93327 -0.1125,0.94618 -0.09015,0.96164 -0.06755,0.97593 -0.04842,0.98724 -0.02214,1.0052 -0.00137,1.01767 0.02188,1.03035 0.04291,1.04347 0.06294,1.05387 0.08852,1.06976 0.11044,1.08015 0.13118,1.09074 0.15355,1.1025 0.17339,1.1122 0.20011,1.12602 0.21949,1.13431 0.24046,1.14378 0.26468,1.15554 0.28288,1.16037 0.30802,1.17306 0.32786,1.18089 0.34952,1.18873 0.37027,1.19566 0.39032,1.20233 0.41383,1.21017 0.43392,1.21686 0.45463,1.22378 0.47588,1.23023 0.49476,1.23529 0.51667,1.23832 0.53581,1.24591 0.55724,1.24937 0.57638,1.25328 0.59438,1.25745 0.61741,1.26019 0.63495,1.26297 0.65409,1.26505 0.67204,1.26736 0.69166,1.2708 0.71172,1.27011 0.72902,1.27218 0.74537,1.2715 0.76499,1.27314 0.78157,1.27311 0.80093,1.27036 0.8164,1.27057 0.8339,1.26967 0.85028,1.26709 0.86597,1.2662 0.88415,1.26183 0.89847,1.26042 0.91414,1.25584 0.93007,1.25374 0.94319,1.2489 0.96071,1.24431 0.97293,1.23854 0.98908,1.23529 1.00061,1.22748 1.01558,1.22446 1.02919,1.21547 1.04071,1.20948 1.05456,1.20302 1.06655,1.19473 1.07806,1.18876 1.09143,1.17903 1.10066,1.16981 1.11173,1.16248 1.12234,1.15182 1.13315,1.14379 1.14378,1.13316 1.15184,1.12233 1.16246,1.11174 1.16983,1.10065 1.17903,1.09144 1.18876,1.07807 1.19471,1.06654 1.20303,1.05455 1.20948,1.04071 1.21549,1.02919 1.22445,1.0156 1.22747,1.00061 1.23529,0.98906 1.23854,0.97293 1.2443,0.96072 1.24892,0.94319 1.25372,0.93006 1.25585,0.91413 1.26042,0.89847 1.26183,0.88417 1.2662,0.86595 1.26711,0.85028 1.26966,0.83391 1.27057,0.81639 1.27034,0.80095 1.27314,0.78156 1.27312,0.76499 1.27149,0.74538 1.27219,0.72901 1.27012,0.71173 1.2708,0.69165 1.26735,0.67206 1.26505,0.65407 1.26297,0.63494 1.26019,0.61744 1.25744,0.59436 1.2533,0.57638 1.24938,0.55725 1.24589,0.5358 1.23831,0.51668 1.23531,0.49476 1.23022,0.47586 1.22379,0.45466 1.21686,0.43389 1.21017,0.41385" /></g><g
                           id="g434"><path
                             id="path436"
                             style="fill:none;stroke:#a50034;stroke-width:1.59404004;stroke-linecap:butt;stroke-linejoin:miter;stroke-miterlimit:10;stroke-dasharray:none;stroke-opacity:1"
                             d="m 97.9851,132.56808 1.3131,0.42017 1.30275,0.39045 1.28856,0.35345 1.27681,0.32231 1.26108,0.28616 1.24568,0.25108 1.2301,0.2182 1.213,0.18072 1.1945,0.14593 1.176,0.11119 1.15852,0.0768 1.13674,0.0391 1.11686,0.007 1.09404,-0.0324 1.07293,-0.0652 1.04873,-0.10186 1.02728,-0.13572 1.00116,-0.17256 0.97699,-0.20648 0.95258,-0.24086 0.92374,-0.27771 0.89985,-0.30919 0.86975,-0.34685 -2.61042,1.16814" /><g
                             transform="matrix(0.91273,-0.40845,0.40845,0.91273,121.15541,134.65009)"
                             id="g438"><g
                               id="g440"><path
                                 id="path442"
                                 style="fill:#a50034;fill-opacity:1;fill-rule:nonzero;stroke:none"
                                 d="M 3.78581,0 -2.27148,3.02866 0,0 -2.27148,-3.02866" /></g></g></g><g
                           id="g444"><path
                             id="path446"
                             style="fill:none;stroke:#a50034;stroke-width:1.59404004;stroke-linecap:butt;stroke-linejoin:miter;stroke-miterlimit:10;stroke-dasharray:none;stroke-opacity:1"
                             d="m 124.61209,133.10464 0.81183,-0.4169 0.78744,-0.44578 0.75444,-0.48261 0.728,-0.51217 0.69492,-0.54761 0.66539,-0.57827 0.63354,-0.6114 0.6021,-0.64221 0.56975,-0.67421 0.53657,-0.70462 0.50542,-0.73436 0.4698,-0.76652 0.44041,-0.79247 0.40223,-0.82411 0.37088,-0.85022 0.33478,-0.87981 0.30191,-0.90642 0.26594,-0.93269 0.23204,-0.9583 0.19766,-0.98406 0.16097,-1.00963 0.12675,-1.03217 0.0899,-1.05682 -0.14557,2.7026" /><g
                             transform="matrix(0.0538,-0.99852,0.99852,0.0538,135.1492,118.4639)"
                             id="g448"><g
                               id="g450"><path
                                 id="path452"
                                 style="fill:#a50034;fill-opacity:1;fill-rule:nonzero;stroke:none"
                                 d="M 3.78581,0 -2.27148,3.02866 0,0 -2.27148,-3.02866" /></g></g></g><g
                           id="g454"><path
                             id="path456"
                             style="fill:none;stroke:#00a6d6;stroke-width:1.59404004;stroke-linecap:round;stroke-linejoin:miter;stroke-miterlimit:10;stroke-dasharray:none;stroke-opacity:1"
                             d="m 80.69362,80.69362 21.85821,65.57458" /><g
                             transform="matrix(0.31621,0.94864,-0.94864,0.31621,102.55183,146.2682)"
                             id="g458"><g
                               id="g460"><path
                                 id="path462"
                                 style="fill:#00a6d6;fill-opacity:1;fill-rule:nonzero;stroke:none"
                                 d="M 3.78581,0 -2.27148,3.02866 0,0 -2.27148,-3.02866" /></g></g></g><g
                           id="g464"><path
                             id="path466"
                             style="fill:none;stroke:#00a6d6;stroke-width:1.59404004;stroke-linecap:round;stroke-linejoin:miter;stroke-miterlimit:10;stroke-dasharray:none;stroke-opacity:1"
                             d="m 80.69362,80.69362 56.12643,66.97974" /><g
                             transform="matrix(0.64227,0.76645,-0.76645,0.64227,136.82005,147.67334)"
                             id="g468"><g
                               id="g470"><path
                                 id="path472"
                                 style="fill:#00a6d6;fill-opacity:1;fill-rule:nonzero;stroke:none"
                                 d="M 3.78581,0 -2.27148,3.02866 0,0 -2.27148,-3.02866" /></g></g></g><g
                           id="g474"><path
                             id="path476"
                             style="fill:none;stroke:#00a6d6;stroke-width:1.59404004;stroke-linecap:round;stroke-linejoin:miter;stroke-miterlimit:10;stroke-dasharray:none;stroke-opacity:1"
                             d="m 80.69362,80.69362 69.66606,43.32281" /><g
                             transform="matrix(0.84917,0.52805,-0.52805,0.84917,150.35968,124.01643)"
                             id="g478"><g
                               id="g480"><path
                                 id="path482"
                                 style="fill:#00a6d6;fill-opacity:1;fill-rule:nonzero;stroke:none"
                                 d="M 3.78581,0 -2.27148,3.02866 0,0 -2.27148,-3.02866" /></g></g></g></g></g></g><g
                     transform="translate(-0.199,-0.199)"
                     id="g484" /></g><g
                   transform="translate(0.199,0.199)"
                   id="g486" /></g><g
                 id="g488" /><g
                 id="g490" /></g></g><g
             transform="translate(-316.047,-164.806)"
             id="g492"><g
               id="g494"><g
                 id="g496" /><g
                 id="g498"><g
                   id="g500" /><g
                   id="g502" /><g
                   id="g504"><g
                     id="g506" /></g><g
                   id="g508" /><g
                   id="g510" /><g
                   id="g512" /><g
                   id="g514" /><g
                   transform="translate(-0.199,-0.199)"
                   id="g516"><g
                     transform="translate(0.199,0.199)"
                     id="g518"><g
                       id="g520"><g
                         id="g522" /><g
                         id="g524"><g
                           id="g526"><g
                             id="g528"><g
                               id="g530"><path
                                 id="path532"
                                 style="fill:none;stroke:#808080;stroke-width:0.19925;stroke-linecap:butt;stroke-linejoin:miter;stroke-miterlimit:10;stroke-dasharray:none;stroke-opacity:1"
                                 d="m 147.94443,78.57089 v 4.25212" /></g></g><g
                             id="g534"><g
                               id="g536"><path
                                 id="path538"
                                 style="fill:none;stroke:#808080;stroke-width:0.19925;stroke-linecap:butt;stroke-linejoin:miter;stroke-miterlimit:10;stroke-dasharray:none;stroke-opacity:1"
                                 d="m 78.57089,147.94443 h 4.25212" /></g></g><path
                             id="path540"
                             style="fill:none;stroke:#000000;stroke-width:0.3985;stroke-linecap:butt;stroke-linejoin:miter;stroke-miterlimit:10;stroke-dasharray:none;stroke-opacity:1"
                             d="M 0,80.69696 H 159.4014" /><g
                             transform="translate(159.4014,80.69696)"
                             id="g542"><g
                               id="g544"><path
                                 id="path546"
                                 style="fill:#000000;fill-opacity:1;fill-rule:nonzero;stroke:none"
                                 d="M 1.99252,0 -1.19551,1.59401 0,0 -1.19551,-1.59401" /></g></g><path
                             id="path548"
                             style="fill:none;stroke:#000000;stroke-width:0.3985;stroke-linecap:butt;stroke-linejoin:miter;stroke-miterlimit:10;stroke-dasharray:none;stroke-opacity:1"
                             d="M 80.69696,0 V 159.4014" /><g
                             transform="rotate(90,-39.35222,120.04918)"
                             id="g550"><g
                               id="g552"><path
                                 id="path554"
                                 style="fill:#000000;fill-opacity:1;fill-rule:nonzero;stroke:none"
                                 d="M 1.99252,0 -1.19551,1.59401 0,0 -1.19551,-1.59401" /></g></g><g
                             id="g556"><g
                               transform="translate(152.043,66.765)"
                               id="g558"><g
                                 id="g560"><g
                                   transform="translate(-163.889,-73.591)"
                                   id="g562"><text
                                   id="text566"
                                   style="font-variant:normal;font-weight:normal;font-size:11.9552002px;font-family:CMR12;-inkscape-font-specification:CMR12;writing-mode:lr-tb;fill:#000000;fill-opacity:1;fill-rule:nonzero;stroke:none"
                                   transform="matrix(1,0,0,-1,163.889,73.591)"><tspan
                                   id="tspan564"
                                   y="0"
                                   x="0">1</tspan></text>
<g
                                   transform="translate(163.889,73.591)"
                                   id="g568" /></g></g><g
                                 transform="translate(-152.043,-66.765)"
                                 id="g570" /></g></g><g
                             id="g572"><g
                               transform="translate(68.616,152.043)"
                               id="g574"><g
                                 id="g576"><g
                                   transform="translate(-80.462,-158.869)"
                                   id="g578"><text
                                   id="text582"
                                   style="font-variant:normal;font-weight:normal;font-size:11.9552002px;font-family:CMR12;-inkscape-font-specification:CMR12;writing-mode:lr-tb;fill:#000000;fill-opacity:1;fill-rule:nonzero;stroke:none"
                                   transform="matrix(1,0,0,-1,80.462,158.869)"><tspan
                                   id="tspan580"
                                   y="0"
                                   x="0">1</tspan></text>
<g
                                   transform="translate(80.462,158.869)"
                                   id="g584" /></g></g><g
                                 transform="translate(-68.616,-152.043)"
                                 id="g586" /></g></g><g
                             id="g588"><path
                               id="path590"
                               style="fill:none;stroke:#009b77;stroke-width:1.19553006;stroke-linecap:round;stroke-linejoin:miter;stroke-miterlimit:10;stroke-dasharray:none;stroke-opacity:1"
                               d="m 147.94443,80.69696 -0.0101,1.17414 -0.0309,1.17278 -0.0511,1.17279 -0.072,1.17147 -0.0921,1.1701 -0.11232,1.16741 -0.13246,1.16675 -0.154,1.16406 -0.17283,1.16002 -0.19301,1.158 -0.21451,1.15395 -0.23402,1.15062 -0.25421,1.14521 -0.27369,1.14052 -0.29387,1.13716 -0.31404,1.13044 -0.33356,1.12572 -0.3517,1.11965 -0.37255,1.11363 -0.39206,1.10624 -0.41155,1.09881 -0.42971,1.09142 -0.44989,1.08471 -0.46804,1.07662 -0.4862,1.06789 -0.5057,1.05915 -0.52386,1.05109 -0.54134,1.04031 -0.56016,1.03225 -0.57765,1.02083 -0.59649,1.01206 -0.61263,0.99997 -0.63079,0.99056 -0.64758,0.97778 -0.66509,0.96768 -0.68121,0.95491 -0.69736,0.94417 -0.71551,0.9307 -0.73032,0.91861 -0.74711,0.90582 -0.76192,0.89305 -0.7787,0.87823 -0.79219,0.8655 -0.80698,0.85135 -0.82378,0.83654 -0.83654,0.82378 -0.85135,0.80698 -0.8655,0.79219 -0.87823,0.7787 -0.89305,0.76192 -0.90582,0.74711 -0.91861,0.73032 -0.9307,0.71551 -0.94417,0.69736 -0.95491,0.68121 -0.96768,0.66509 -0.97778,0.64758 -0.99056,0.63079 -0.99997,0.61263 -1.01206,0.59649 -1.02083,0.57765 -1.03225,0.56016 -1.04031,0.54134 -1.05109,0.52386 -1.05915,0.5057 -1.06789,0.4862 -1.07662,0.46804 -1.08471,0.44989 -1.09142,0.42971 -1.09881,0.41155 -1.10624,0.39206 -1.11363,0.37255 -1.11965,0.3517 -1.12572,0.33356 -1.13044,0.31404 -1.13716,0.29387 -1.14052,0.27369 -1.14521,0.25421 -1.15062,0.23402 -1.15395,0.21451 -1.158,0.19301 -1.16002,0.17283 -1.16406,0.154 -1.16675,0.13246 -1.16741,0.11232 -1.1701,0.0921 -1.17147,0.072 -1.17279,0.0511 -1.17278,0.0309 -1.17414,0.0101 -1.17416,-0.0101 -1.17278,-0.0309 -1.17279,-0.0511 -1.17146,-0.072 -1.17012,-0.0921 -1.16741,-0.11232 -1.16673,-0.13246 -1.16406,-0.154 -1.16002,-0.17283 -1.15801,-0.19301 -1.15329,-0.21587 -1.14993,-0.23401 -1.14523,-0.25419 -1.14117,-0.27303 -1.13784,-0.2932 -1.12976,-0.3154 -1.12572,-0.33354 -1.119,-0.35171 -1.11362,-0.37255 -1.10757,-0.39071 -1.09747,-0.41289 -1.09211,-0.4297 -1.0847,-0.44922 -1.07596,-0.46805 -1.06923,-0.48553 -1.05781,-0.50705 -1.05106,-0.52317 -1.04033,-0.54202 -1.03225,-0.56018 -1.02214,-0.57629 -1.01075,-0.59717 -0.99996,-0.61262 -0.99056,-0.63144 -0.97778,-0.64693 -0.96903,-0.66442 -0.95425,-0.68255 -0.94348,-0.69736 -0.93138,-0.71484 -0.91793,-0.73097 -0.90718,-0.74579 -0.89168,-0.76392 -0.87825,-0.77739 -0.86616,-0.79217 -0.85068,-0.80764 -0.83789,-0.82245 -0.82245,-0.8379 -0.80763,-0.85066 -0.79218,-0.86617 -0.77739,-0.87825 -0.76392,-0.89169 -0.74578,-0.90718 -0.73097,-0.91793 -0.71485,-0.93138 -0.69735,-0.94348 -0.68256,-0.95424 -0.66441,-0.96904 -0.64693,-0.97776 -0.63144,-0.99056 -0.61262,-0.99999 -0.59717,-1.0107 -0.57631,-1.02218 -0.56018,-1.03224 -0.54201,-1.04033 -0.52318,-1.05107 -0.50703,-1.05781 -0.48555,-1.06923 -0.46803,-1.07594 -0.44923,-1.08472 -0.42971,-1.09209 -0.41289,-1.09747 -0.3907,-1.10758 -0.37256,-1.11361 -0.3517,-1.11901 -0.33354,-1.12573 -0.31541,-1.12975 -0.2932,-1.13783 -0.27301,-1.14119 -0.25421,-1.14522 -0.234,-1.14994 -0.21587,-1.15328 -0.19166,-1.15868 -0.17349,-1.16069 -0.15399,-1.16337 -0.13182,-1.16742 -0.11365,-1.16608 -0.09078,-1.17077 -0.07194,-1.17214 -0.05112,-1.17279 -0.03095,-1.17279 -0.0114,-1.17279 0.0114,-1.17281 0.03095,-1.1728 0.05112,-1.17278 0.07194,-1.17213 0.09078,-1.17079 0.11365,-1.16606 0.13182,-1.16742 0.15399,-1.16338 0.17349,-1.16069 0.19166,-1.15868 0.21587,-1.15329 0.234,-1.14993 0.25421,-1.14523 0.27301,-1.14117 0.2932,-1.13784 0.31541,-1.12976 0.33354,-1.12572 0.3517,-1.119 0.37256,-1.11362 0.3907,-1.10757 0.41289,-1.09747 0.42971,-1.09211 0.44923,-1.0847 0.46803,-1.07596 0.48555,-1.06923 0.50703,-1.05781 0.52318,-1.05106 0.54201,-1.04033 0.56018,-1.03225 0.57631,-1.02214 0.59717,-1.01075 0.61262,-0.99996 0.63144,-0.99056 0.64693,-0.97778 0.66441,-0.96903 0.68256,-0.95425 0.69735,-0.94348 0.71485,-0.93138 0.73097,-0.91793 0.74578,-0.90718 0.76392,-0.89168 0.77739,-0.87825 0.79218,-0.86616 0.80763,-0.85068 0.82245,-0.83789 0.83789,-0.82245 0.85068,-0.80763 0.86616,-0.79218 0.87825,-0.77739 0.89168,-0.76392 0.90718,-0.74578 0.91793,-0.73097 0.93138,-0.71485 0.94348,-0.69735 0.95425,-0.68256 0.96903,-0.66441 0.97778,-0.64693 0.99056,-0.63144 0.99996,-0.61262 1.01075,-0.59717 1.02214,-0.57631 1.03225,-0.56018 1.04033,-0.54201 1.05106,-0.52318 1.05781,-0.50703 1.06923,-0.48555 1.07596,-0.46803 1.0847,-0.44923 1.09211,-0.42971 1.09747,-0.41289 1.10757,-0.3907 1.11362,-0.37256 1.119,-0.3517 1.12572,-0.33354 1.12976,-0.31541 1.13784,-0.2932 1.14117,-0.27301 1.14523,-0.25421 1.14993,-0.234 1.15329,-0.21587 1.15868,-0.19166 1.16069,-0.17349 1.16338,-0.15399 1.16742,-0.13182 1.16606,-0.11365 1.17079,-0.09078 1.17213,-0.07194 1.17278,-0.05112 1.1728,-0.03095 1.17281,-0.0114 1.17279,0.0114 1.17279,0.03095 1.17279,0.05112 1.17214,0.07194 1.17077,0.09078 1.16608,0.11365 1.16742,0.13182 1.16337,0.15399 1.16069,0.17349 1.15868,0.19166 1.15328,0.21587 1.14994,0.234 1.14522,0.25421 1.14119,0.27301 1.13783,0.2932 1.12975,0.31541 1.12573,0.33354 1.11901,0.3517 1.11361,0.37256 1.10758,0.3907 1.09747,0.41289 1.09209,0.42971 1.08472,0.44923 1.07594,0.46803 1.06923,0.48555 1.05781,0.50703 1.05107,0.52318 1.04033,0.54201 1.03224,0.56018 1.02218,0.57631 1.0107,0.59717 0.99999,0.61262 0.99056,0.63144 0.97776,0.64693 0.96904,0.66441 0.95424,0.68256 0.94348,0.69735 0.93138,0.71485 0.91793,0.73097 0.90718,0.74578 0.89169,0.76392 0.87825,0.77739 0.86617,0.79218 0.85066,0.80763 0.8379,0.82245 0.82245,0.83789 0.80764,0.85068 0.79217,0.86616 0.77739,0.87825 0.76392,0.89168 0.74579,0.90718 0.73097,0.91793 0.71484,0.93138 0.69736,0.94348 0.68255,0.95425 0.66442,0.96903 0.64693,0.97778 0.63144,0.99056 0.61262,0.99996 0.59717,1.01075 0.57629,1.02214 0.56018,1.03225 0.54202,1.04033 0.52317,1.05106 0.50705,1.05781 0.48553,1.06923 0.46805,1.07596 0.44922,1.0847 0.4297,1.09211 0.41289,1.09747 0.39071,1.10757 0.37255,1.11362 0.35171,1.119 0.33354,1.12572 0.3154,1.12976 0.2932,1.13784 0.27303,1.14117 0.25419,1.14523 0.23401,1.14993 0.21587,1.15329 0.19165,1.15868 0.17351,1.16069 0.15399,1.16338 0.13182,1.16742 0.11365,1.16606 0.0908,1.17079 0.072,1.17213 0.0511,1.17278 0.0309,1.1728 0.0114,1.17281" /></g><g
                             id="g592"><path
                               id="path594"
                               style="fill:none;stroke:#a50034;stroke-width:1.59404004;stroke-linecap:butt;stroke-linejoin:miter;stroke-miterlimit:10;stroke-dasharray:none;stroke-opacity:1"
                               d="m 131.13257,80.69696 -0.0192,1.28308 -0.0479,1.28256 -0.0832,1.28057 -0.11297,1.27905 -0.14678,1.27501 -0.17955,1.27098 -0.2098,1.26593 -0.24462,1.26088 -0.27588,1.25333 -0.30714,1.24577 -0.33844,1.2392 -0.37169,1.22912 -0.39946,1.21901 -0.43427,1.20845 -0.46249,1.19734 -0.49376,1.18424 -0.52301,1.17312 -0.55379,1.158 -0.58201,1.14388 -0.61079,1.12975 -0.64052,1.11162 -0.66626,1.09697 -0.69652,1.0778 1.40565,-2.06921" /><g
                               transform="matrix(-0.56194,0.82713,-0.82713,-0.56194,124.13817,106.49341)"
                               id="g596"><g
                                 id="g598"><path
                                   id="path600"
                                   style="fill:#a50034;fill-opacity:1;fill-rule:nonzero;stroke:none"
                                   d="M 3.78581,0 -2.27148,3.02866 0,0 -2.27148,-3.02866" /></g></g></g><g
                             id="g602"><path
                               id="path604"
                               style="fill:none;stroke:#a50034;stroke-width:1.59404004;stroke-linecap:butt;stroke-linejoin:miter;stroke-miterlimit:10;stroke-dasharray:none;stroke-opacity:1"
                               d="m 122.01126,109.62581 -0.75198,1.03998 -0.77469,1.02383 -0.80293,1.00115 -0.82564,0.98298 -0.85236,0.95981 -0.87506,0.9386 -0.89976,0.91591 -0.92199,0.89271 -0.94514,0.86901 -0.96635,0.84379 -0.98754,0.82057 -1.00972,0.79337 -1.02737,0.77066 -1.04805,0.7404 -1.06519,0.71565 -1.08436,0.68694 -1.10152,0.66072 -1.11716,0.63095 -1.13278,0.6032 -1.14841,0.57496 -1.16306,0.54421 -1.17515,0.51495 -1.18876,0.48367 2.33844,-0.88952" /><g
                               transform="matrix(-0.93462,0.35553,-0.35553,-0.93462,101.48473,126.74431)"
                               id="g606"><g
                                 id="g608"><path
                                   id="path610"
                                   style="fill:#a50034;fill-opacity:1;fill-rule:nonzero;stroke:none"
                                   d="M 3.78581,0 -2.27148,3.02866 0,0 -2.27148,-3.02866" /></g></g></g><g
                             id="g612"><path
                               id="path614"
                               style="fill:none;stroke:#00a6d6;stroke-width:1.59404004;stroke-linecap:round;stroke-linejoin:miter;stroke-miterlimit:10;stroke-dasharray:none;stroke-opacity:1"
                               d="M 80.69696,80.69696 H 144.1586" /><g
                               transform="translate(144.1586,80.69696)"
                               id="g616"><g
                                 id="g618"><path
                                   id="path620"
                                   style="fill:#00a6d6;fill-opacity:1;fill-rule:nonzero;stroke:none"
                                   d="M 3.78581,0 -2.27148,3.02866 0,0 -2.27148,-3.02866" /></g></g></g><g
                             id="g622"><path
                               id="path624"
                               style="fill:none;stroke:#00a6d6;stroke-width:1.59404004;stroke-linecap:round;stroke-linejoin:miter;stroke-miterlimit:10;stroke-dasharray:none;stroke-opacity:1"
                               d="m 80.69696,80.69696 51.98465,36.40039" /><g
                               transform="matrix(0.81914,0.57356,-0.57356,0.81914,132.6816,117.09735)"
                               id="g626"><g
                                 id="g628"><path
                                   id="path630"
                                   style="fill:#00a6d6;fill-opacity:1;fill-rule:nonzero;stroke:none"
                                   d="M 3.78581,0 -2.27148,3.02866 0,0 -2.27148,-3.02866" /></g></g></g><g
                             id="g632"><path
                               id="path634"
                               style="fill:none;stroke:#00a6d6;stroke-width:1.59404004;stroke-linecap:round;stroke-linejoin:miter;stroke-miterlimit:10;stroke-dasharray:none;stroke-opacity:1"
                               d="m 80.69696,80.69696 21.70587,59.63498" /><g
                               transform="matrix(0.34201,0.93968,-0.93968,0.34201,102.40282,140.33194)"
                               id="g636"><g
                                 id="g638"><path
                                   id="path640"
                                   style="fill:#00a6d6;fill-opacity:1;fill-rule:nonzero;stroke:none"
                                   d="M 3.78581,0 -2.27148,3.02866 0,0 -2.27148,-3.02866" /></g></g></g></g></g></g><g
                       transform="translate(-0.199,-0.199)"
                       id="g642" /></g><g
                     transform="translate(0.199,0.199)"
                     id="g644" /></g><g
                   id="g646" /><g
                   id="g648" /></g></g><g
               transform="translate(101.214,-17.019)"
               id="g650"><g
                 id="g652"><g
                   id="g654" /><g
                   id="g656"><g
                     id="g658" /><g
                     id="g660" /><g
                     id="g662"><g
                       id="g664" /></g><g
                     id="g666" /><g
                     id="g668" /><g
                     id="g670" /><g
                     id="g672" /><g
                     transform="translate(91.8,79.899)"
                     id="g674"><g
                       transform="translate(-91.8,-79.899)"
                       id="g676"><g
                         id="g678"><g
                           id="g680" /><g
                           id="g682"><g
                             id="g684"><g
                               id="g686"><path
                                 id="path688"
                                 style="fill:none;stroke:#ed6842;stroke-width:1.59404004;stroke-linecap:round;stroke-linejoin:miter;stroke-miterlimit:10;stroke-dasharray:none;stroke-opacity:1"
                                 d="m 97.137,80.69696 h 77.16166" /><g
                                 transform="translate(174.29866,80.69696)"
                                 id="g690"><g
                                   id="g692"><path
                                   id="path694"
                                   style="fill:#ed6842;fill-opacity:1;fill-rule:nonzero;stroke:none"
                                   d="M 3.78581,0 -2.27148,3.02866 0,0 -2.27148,-3.02866" /></g></g></g><g
                               id="g696"><g
                                 transform="translate(95.701,96.253)"
                                 id="g698"><g
                                   id="g700"><g
                                   transform="translate(-208.761,-86.06)"
                                   id="g702"><text
                                   id="text706"
                                   style="font-variant:normal;font-weight:normal;font-size:11.9552002px;font-family:CMMI12;-inkscape-font-specification:CMMI12;writing-mode:lr-tb;fill:#000000;fill-opacity:1;fill-rule:nonzero;stroke:none"
                                   transform="matrix(1,0,0,-1,208.761,86.06)"><tspan
                                   id="tspan704"
                                   y="0"
                                   x="0">T</tspan></text>
<text
                                   id="text710"
                                   style="font-variant:normal;font-weight:normal;font-size:11.9552002px;font-family:CMR12;-inkscape-font-specification:CMR12;writing-mode:lr-tb;fill:#000000;fill-opacity:1;fill-rule:nonzero;stroke:none"
                                   transform="matrix(1,0,0,-1,217.248,86.06)"><tspan
                                   id="tspan708"
                                   y="0"
                                   x="0">(</tspan></text>
<text
                                   id="text714"
                                   style="font-variant:normal;font-weight:normal;font-size:11.9552002px;font-family:CMBX12;-inkscape-font-specification:CMBX12;writing-mode:lr-tb;fill:#000000;fill-opacity:1;fill-rule:nonzero;stroke:none"
                                   transform="matrix(1,0,0,-1,221.801,86.06)"><tspan
                                   id="tspan712"
                                   y="0"
                                   x="0">x</tspan></text>
<text
                                   id="text718"
                                   style="font-variant:normal;font-weight:normal;font-size:11.9552002px;font-family:CMR12;-inkscape-font-specification:CMR12;writing-mode:lr-tb;fill:#000000;fill-opacity:1;fill-rule:nonzero;stroke:none"
                                   transform="matrix(1,0,0,-1,228.899,86.06)"><tspan
                                   id="tspan716"
                                   y="0"
                                   x="0 7.8760858">)=</tspan></text>
<text
                                   id="text722"
                                   style="font-variant:normal;font-weight:normal;font-size:11.9552002px;font-family:CMEX10;-inkscape-font-specification:CMEX10;writing-mode:lr-tb;fill:#000000;fill-opacity:1;fill-rule:nonzero;stroke:none"
                                   transform="matrix(1,0,0,-1,249.198,102.917)"><tspan
                                   id="tspan720"
                                   y="0"
                                   x="0"></tspan></text>
<text
                                   id="text728"
                                   style="font-variant:normal;font-weight:normal;font-size:11.9552002px;font-family:CMR12;-inkscape-font-specification:CMR12;writing-mode:lr-tb;fill:#000000;fill-opacity:1;fill-rule:nonzero;stroke:none"
                                   transform="matrix(1,0,0,-1,255.507,93.383)"><tspan
                                   id="tspan724"
                                   y="0"
                                   x="0 15.811948">31</tspan><tspan
                                   id="tspan726"
                                   y="14.446"
                                   x="0 15.811948">13</tspan></text>
<text
                                   id="text732"
                                   style="font-variant:normal;font-weight:normal;font-size:11.9552002px;font-family:CMEX10;-inkscape-font-specification:CMEX10;writing-mode:lr-tb;fill:#000000;fill-opacity:1;fill-rule:nonzero;stroke:none"
                                   transform="matrix(1,0,0,-1,277.176,102.917)"><tspan
                                   id="tspan730"
                                   y="0"
                                   x="0"></tspan></text>
<text
                                   id="text736"
                                   style="font-variant:normal;font-weight:normal;font-size:11.9552002px;font-family:CMBX12;-inkscape-font-specification:CMBX12;writing-mode:lr-tb;fill:#000000;fill-opacity:1;fill-rule:nonzero;stroke:none"
                                   transform="matrix(1,0,0,-1,285.478,86.06)"><tspan
                                   id="tspan734"
                                   y="0"
                                   x="0">x</tspan></text>
<g
                                   transform="translate(208.761,86.06)"
                                   id="g738" /></g></g><g
                                   transform="translate(-95.701,-96.253)"
                                   id="g740" /></g></g></g></g></g><g
                         transform="translate(91.8,79.899)"
                         id="g742" /></g><g
                       transform="translate(-91.8,-79.899)"
                       id="g744" /></g><g
                     id="g746" /><g
                     id="g748" /></g></g><g
                 transform="translate(214.833,16.062)"
                 id="g750"><g
                   id="g752"><g
                     id="g754" /><g
                     id="g756"><g
                       id="g758" /><g
                       id="g760" /><g
                       id="g762"><g
                         id="g764" /></g><g
                       id="g766" /><g
                       id="g768" /><g
                       id="g770" /><g
                       id="g772" /><g
                       transform="translate(-0.199,-0.2)"
                       id="g774"><g
                         transform="translate(0.199,0.2)"
                         id="g776"><g
                           id="g778"><g
                             id="g780" /><g
                             id="g782"><g
                               id="g784"><g
                                 id="g786"><g
                                   id="g788"><path
                                   id="path790"
                                   style="fill:none;stroke:#808080;stroke-width:0.19925;stroke-linecap:butt;stroke-linejoin:miter;stroke-miterlimit:10;stroke-dasharray:none;stroke-opacity:1"
                                   d="m 103.74893,78.56763 v 4.25195 m 23.05533,-4.25195 v 4.25195 m 23.05531,-4.25195 v 4.25195" /></g></g><g
                                 id="g792"><g
                                   id="g794"><path
                                   id="path796"
                                   style="fill:none;stroke:#808080;stroke-width:0.19925;stroke-linecap:butt;stroke-linejoin:miter;stroke-miterlimit:10;stroke-dasharray:none;stroke-opacity:1"
                                   d="m 78.56763,103.74893 h 4.25195 m -4.25195,23.05533 h 4.25195 m -4.25195,23.05531 h 4.25195" /></g></g><path
                                 id="path798"
                                 style="fill:none;stroke:#000000;stroke-width:0.3985;stroke-linecap:butt;stroke-linejoin:miter;stroke-miterlimit:10;stroke-dasharray:none;stroke-opacity:1"
                                 d="M 0,80.69362 H 159.39471" /><g
                                 transform="translate(159.39471,80.69362)"
                                 id="g800"><g
                                   id="g802"><path
                                   id="path804"
                                   style="fill:#000000;fill-opacity:1;fill-rule:nonzero;stroke:none"
                                   d="M 1.99252,0 -1.19551,1.59401 0,0 -1.19551,-1.59401" /></g></g><path
                                 id="path806"
                                 style="fill:none;stroke:#000000;stroke-width:0.3985;stroke-linecap:butt;stroke-linejoin:miter;stroke-miterlimit:10;stroke-dasharray:none;stroke-opacity:1"
                                 d="M 80.69362,0 V 159.39471" /><g
                                 transform="rotate(90,-39.350545,120.04417)"
                                 id="g808"><g
                                   id="g810"><path
                                   id="path812"
                                   style="fill:#000000;fill-opacity:1;fill-rule:nonzero;stroke:none"
                                   d="M 1.99252,0 -1.19551,1.59401 0,0 -1.19551,-1.59401" /></g></g><g
                                 id="g814"><g
                                   transform="translate(107.849,66.761)"
                                   id="g816"><g
                                   id="g818"><g
                                   transform="translate(-435.742,-72.63)"
                                   id="g820"><text
                                   id="text824"
                                   style="font-variant:normal;font-weight:normal;font-size:11.9552002px;font-family:CMR12;-inkscape-font-specification:CMR12;writing-mode:lr-tb;fill:#000000;fill-opacity:1;fill-rule:nonzero;stroke:none"
                                   transform="matrix(1,0,0,-1,435.742,72.63)"><tspan
                                   id="tspan822"
                                   y="0"
                                   x="0">1</tspan></text>
<g
                                   transform="translate(435.742,72.63)"
                                   id="g826" /></g></g><g
                                   transform="translate(-107.849,-66.761)"
                                   id="g828" /></g></g><g
                                 id="g830"><g
                                   transform="translate(130.904,66.761)"
                                   id="g832"><g
                                   id="g834"><g
                                   transform="translate(-458.797,-72.63)"
                                   id="g836"><text
                                   id="text840"
                                   style="font-variant:normal;font-weight:normal;font-size:11.9552002px;font-family:CMR12;-inkscape-font-specification:CMR12;writing-mode:lr-tb;fill:#000000;fill-opacity:1;fill-rule:nonzero;stroke:none"
                                   transform="matrix(1,0,0,-1,458.797,72.63)"><tspan
                                   id="tspan838"
                                   y="0"
                                   x="0">2</tspan></text>
<g
                                   transform="translate(458.797,72.63)"
                                   id="g842" /></g></g><g
                                   transform="translate(-130.904,-66.761)"
                                   id="g844" /></g></g><g
                                 id="g846"><g
                                   transform="translate(153.959,66.761)"
                                   id="g848"><g
                                   id="g850"><g
                                   transform="translate(-481.852,-72.63)"
                                   id="g852"><text
                                   id="text856"
                                   style="font-variant:normal;font-weight:normal;font-size:11.9552002px;font-family:CMR12;-inkscape-font-specification:CMR12;writing-mode:lr-tb;fill:#000000;fill-opacity:1;fill-rule:nonzero;stroke:none"
                                   transform="matrix(1,0,0,-1,481.852,72.63)"><tspan
                                   id="tspan854"
                                   y="0"
                                   x="0">3</tspan></text>
<g
                                   transform="translate(481.852,72.63)"
                                   id="g858" /></g></g><g
                                   transform="translate(-153.959,-66.761)"
                                   id="g860" /></g></g><g
                                 id="g862"><g
                                   transform="translate(68.613,107.848)"
                                   id="g864"><g
                                   id="g866"><g
                                   transform="translate(-396.506,-113.717)"
                                   id="g868"><text
                                   id="text872"
                                   style="font-variant:normal;font-weight:normal;font-size:11.9552002px;font-family:CMR12;-inkscape-font-specification:CMR12;writing-mode:lr-tb;fill:#000000;fill-opacity:1;fill-rule:nonzero;stroke:none"
                                   transform="matrix(1,0,0,-1,396.506,113.717)"><tspan
                                   id="tspan870"
                                   y="0"
                                   x="0">1</tspan></text>
<g
                                   transform="translate(396.506,113.717)"
                                   id="g874" /></g></g><g
                                   transform="translate(-68.613,-107.848)"
                                   id="g876" /></g></g><g
                                 id="g878"><g
                                   transform="translate(68.613,130.903)"
                                   id="g880"><g
                                   id="g882"><g
                                   transform="translate(-396.506,-136.772)"
                                   id="g884"><text
                                   id="text888"
                                   style="font-variant:normal;font-weight:normal;font-size:11.9552002px;font-family:CMR12;-inkscape-font-specification:CMR12;writing-mode:lr-tb;fill:#000000;fill-opacity:1;fill-rule:nonzero;stroke:none"
                                   transform="matrix(1,0,0,-1,396.506,136.772)"><tspan
                                   id="tspan886"
                                   y="0"
                                   x="0">2</tspan></text>
<g
                                   transform="translate(396.506,136.772)"
                                   id="g890" /></g></g><g
                                   transform="translate(-68.613,-130.903)"
                                   id="g892" /></g></g><g
                                 id="g894"><g
                                   transform="translate(68.613,153.958)"
                                   id="g896"><g
                                   id="g898"><g
                                   transform="translate(-396.506,-159.827)"
                                   id="g900"><text
                                   id="text904"
                                   style="font-variant:normal;font-weight:normal;font-size:11.9552002px;font-family:CMR12;-inkscape-font-specification:CMR12;writing-mode:lr-tb;fill:#000000;fill-opacity:1;fill-rule:nonzero;stroke:none"
                                   transform="matrix(1,0,0,-1,396.506,159.827)"><tspan
                                   id="tspan902"
                                   y="0"
                                   x="0">3</tspan></text>
<g
                                   transform="translate(396.506,159.827)"
                                   id="g906" /></g></g><g
                                   transform="translate(-68.613,-153.958)"
                                   id="g908" /></g></g><g
                                 id="g910"><path
                                   id="path912"
                                   style="fill:none;stroke:#009b77;stroke-width:1.19553006;stroke-linecap:round;stroke-linejoin:miter;stroke-miterlimit:10;stroke-dasharray:none;stroke-opacity:1"
                                   d="m 149.85957,103.74893 0.39217,1.20418 0.37026,1.19563 0.34953,1.18874 0.32762,1.1802 0.30641,1.17191 0.28471,1.16221 0.26377,1.15462 0.24069,1.14448 0.21994,1.13386 0.19852,1.12484 0.17498,1.11336 0.15378,1.1032 0.13118,1.09073 0.10951,1.07922 0.0876,1.06885 0.0646,1.05502 0.0429,1.04348 0.0221,1.03103 -0.001,1.01767 -0.024,1.00337 -0.0465,0.98908 -0.0678,0.97523 -0.0908,0.9614 -0.1123,0.94688 -0.13395,0.93166 -0.15702,0.916 -0.17843,0.90146 -0.20014,0.8844 -0.22224,0.86964 -0.24416,0.85192 -0.26651,0.83644 -0.28727,0.81846 -0.30916,0.80255 -0.33086,0.78365 -0.35229,0.76729 -0.37327,0.74861 -0.39353,0.73201 -0.41686,0.71193 -0.4362,0.69444 -0.45787,0.67552 -0.4775,0.6573 -0.49983,0.63633 -0.51805,0.61856 -0.53811,0.599 -0.56048,0.57798 -0.57798,0.56048 -0.599,0.53811 -0.61856,0.51805 -0.63633,0.49983 -0.6573,0.4775 -0.67552,0.45787 -0.69444,0.4362 -0.71193,0.41686 -0.73201,0.39353 -0.74861,0.37327 -0.76729,0.35229 -0.78365,0.33086 -0.80255,0.30916 -0.81846,0.28727 -0.83644,0.26651 -0.85192,0.24416 -0.86964,0.22224 -0.8844,0.20014 -0.90146,0.17843 -0.916,0.15702 -0.93166,0.13395 -0.94688,0.1123 -0.9614,0.0908 -0.97523,0.0678 -0.98908,0.0465 -1.00337,0.024 -1.01767,0.001 -1.03103,-0.0221 -1.04348,-0.0429 -1.05502,-0.0646 -1.06885,-0.0876 -1.07922,-0.10951 -1.09073,-0.13118 -1.1032,-0.15378 -1.11336,-0.17498 -1.12484,-0.19852 -1.13386,-0.21994 -1.14448,-0.24069 -1.15462,-0.26377 -1.16221,-0.28471 -1.17191,-0.30641 -1.1802,-0.32762 -1.18874,-0.34953 -1.19563,-0.37026 -1.20418,-0.39217 -1.2111,-0.41293 -1.21686,-0.43388 -1.22377,-0.45466 -1.22954,-0.47564 -1.23508,-0.49591 -1.23921,-0.51576 -1.24545,-0.53626 -1.25006,-0.55748 -1.25236,-0.57545 -1.25724,-0.59552 -1.26019,-0.61744 -1.26297,-0.63494 -1.26505,-0.65407 -1.26735,-0.67206 -1.2708,-0.69165 -1.27012,-0.71173 -1.27219,-0.72901 -1.27149,-0.74538 -1.27312,-0.76499 -1.27314,-0.78156 -1.27034,-0.80095 -1.27057,-0.81639 -1.26966,-0.83391 -1.26711,-0.85028 -1.2662,-0.86595 -1.26183,-0.88417 -1.26042,-0.89847 -1.25585,-0.91413 -1.25372,-0.93006 -1.24892,-0.94319 -1.2443,-0.96072 -1.23854,-0.97293 -1.23529,-0.98906 -1.22747,-1.00061 -1.22445,-1.0156 -1.21549,-1.02919 -1.20948,-1.04071 -1.20303,-1.05455 -1.19471,-1.06654 -1.18876,-1.07807 -1.17903,-1.09144 -1.16983,-1.10065 -1.16246,-1.11174 -1.15184,-1.12233 -1.14378,-1.13316 -1.13315,-1.14379 -1.12234,-1.15182 -1.11173,-1.16248 -1.10066,-1.16981 -1.09143,-1.17903 -1.07806,-1.18876 -1.06655,-1.19473 -1.05456,-1.20302 -1.04071,-1.20948 -1.02919,-1.21547 L 36.2448,100.2556 35.24419,99.02812 34.25511,97.79283 33.28218,96.55429 32.32147,95.30998 31.37828,94.06108 30.44821,92.80734 29.53407,91.5515 28.6356,90.29108 27.75145,89.02925 26.88548,87.76305 26.0352,86.49596 25.2013,85.22629 24.3849,83.95572 23.58397,82.68536 22.8024,81.41225 22.03741,80.13911 21.29204,78.86761 20.56302,77.59543 19.8513,76.32532 19.15964,75.05452 18.4876,73.78716 17.83351,72.52211 17.19856,71.25914 16.58115,69.99895 15.98677,68.7415 15.41039,67.48822 14.85315,66.23885 14.31734,64.99294 13.80067,63.75462 13.30591,62.51933 12.83003,61.2891 12.3754,60.06532 11.94148,58.84846 11.52765,57.63829 11.13733,56.43596 10.76706,55.2403 10.41754,54.05157 10.08968,52.87068 9.78166,51.69762 9.49878,50.53725 9.2341,49.38171 8.99364,48.23793 8.77415,47.10362 8.57404,45.9776 8.40065,44.8654 8.2471,43.7629 8.11592,42.67216 8.00548,41.59201 7.91696,40.52225 7.85402,39.46838 7.81111,38.42491 7.78923,37.39456 7.7906,36.37689 l 0.02214,-1.0052 0.04842,-0.98724 0.06755,-0.97593 0.09015,-0.96164 0.1125,-0.94618 0.13282,-0.93327 0.15884,-0.91416 0.17775,-0.90168 0.20082,-0.88419 0.22223,-0.86964 0.24232,-0.85373 0.26769,-0.83484 0.28726,-0.81847 0.30986,-0.8023 0.33015,-0.78389 0.35114,-0.76891 0.37489,-0.74744 0.39377,-0.73132 0.41591,-0.71288 0.43713,-0.69349 0.45604,-0.67737 0.48002,-0.65522 0.49845,-0.6368 0.51783,-0.61927 0.53903,-0.59806 0.55862,-0.57984 0.57984,-0.55862 0.59806,-0.53903 0.61927,-0.51783 0.6368,-0.49845 0.65522,-0.48002 0.67737,-0.45604 0.69349,-0.43713 0.71288,-0.41591 0.73132,-0.39377 0.74744,-0.37489 0.76891,-0.35114 0.78389,-0.33015 0.8023,-0.30986 0.81847,-0.28726 0.83484,-0.26769 0.85373,-0.24232 0.86964,-0.22223 0.88419,-0.20082 0.90168,-0.17775 0.91416,-0.15884 0.93327,-0.13282 0.94618,-0.1125 0.96164,-0.09015 0.97593,-0.06755 0.98724,-0.04842 1.0052,-0.02214 1.01767,-0.00137 1.03035,0.02188 1.04347,0.04291 1.05387,0.06294 1.06976,0.08852 1.08015,0.11044 1.09074,0.13118 1.1025,0.15355 1.1122,0.17339 1.12602,0.20011 1.13431,0.21949 1.14378,0.24046 1.15554,0.26468 1.16037,0.28288 1.17306,0.30802 1.18089,0.32786 1.18873,0.34952 1.19566,0.37027 1.20233,0.39032 1.21017,0.41383 1.21686,0.43392 1.22378,0.45463 1.23023,0.47588 1.23529,0.49476 1.23832,0.51667 1.24591,0.53581 1.24937,0.55724 1.25328,0.57638 1.25745,0.59438 1.26019,0.61741 1.26297,0.63495 1.26505,0.65409 1.26736,0.67204 1.2708,0.69166 1.27011,0.71172 1.27218,0.72902 1.2715,0.74537 1.27314,0.76499 1.27311,0.78157 1.27036,0.80093 1.27057,0.8164 1.26967,0.8339 1.26709,0.85028 1.2662,0.86597 1.26183,0.88415 1.26042,0.89847 1.25584,0.91414 1.25374,0.93007 1.2489,0.94319 1.24431,0.96071 1.23854,0.97293 1.23529,0.98908 1.22748,1.00061 1.22446,1.01558 1.21547,1.02919 1.20948,1.04071 1.20302,1.05456 1.19473,1.06655 1.18876,1.07806 1.17903,1.09143 1.16981,1.10066 1.16248,1.11173 1.15182,1.12234 1.14379,1.13315 1.13316,1.14378 1.12233,1.15184 1.11174,1.16246 1.10065,1.16983 1.09144,1.17903 1.07807,1.18876 1.06654,1.19471 1.05455,1.20303 1.04071,1.20948 1.02919,1.21549 1.0156,1.22445 1.00061,1.22747 0.98906,1.23529 0.97293,1.23854 0.96072,1.2443 0.94319,1.24892 0.93006,1.25372 0.91413,1.25585 0.89847,1.26042 0.88417,1.26183 0.86595,1.2662 0.85028,1.26711 0.83391,1.26966 0.81639,1.27057 0.80095,1.27034 0.78156,1.27314 0.76499,1.27312 0.74538,1.27149 0.72901,1.27219 0.71173,1.27012 0.69165,1.2708 0.67206,1.26735 0.65407,1.26505 0.63494,1.26297 0.61744,1.26019 0.59436,1.25744 0.57638,1.2533 0.55725,1.24938 0.5358,1.24589 0.51668,1.23831 0.49476,1.23531 0.47586,1.23022 0.45466,1.22379 0.43389,1.21686 0.41385,1.21017" /></g><g
                                 id="g914"><path
                                   id="path916"
                                   style="fill:none;stroke:#a50034;stroke-width:1.59404004;stroke-linecap:butt;stroke-linejoin:miter;stroke-miterlimit:10;stroke-dasharray:none;stroke-opacity:1"
                                   d="m 132.56808,97.9851 0.42017,1.3131 0.39045,1.30275 0.35345,1.28856 0.32231,1.27681 0.28616,1.26108 0.25108,1.24568 0.2182,1.2301 0.18072,1.213 0.14593,1.1945 0.11119,1.176 0.0768,1.15852 0.0391,1.13674 0.007,1.11686 -0.0324,1.09404 -0.0652,1.07293 -0.10186,1.04873 -0.13572,1.02728 -0.17256,1.00116 -0.20648,0.97699 -0.24086,0.95258 -0.27771,0.92374 -0.30919,0.89985 -0.34685,0.86975 1.16814,-2.61042" /><g
                                   transform="matrix(-0.40845,0.91273,-0.91273,-0.40845,134.65009,121.15541)"
                                   id="g918"><g
                                   id="g920"><path
                                   id="path922"
                                   style="fill:#a50034;fill-opacity:1;fill-rule:nonzero;stroke:none"
                                   d="M 3.78581,0 -2.27148,3.02866 0,0 -2.27148,-3.02866" /></g></g></g><g
                                 id="g924"><path
                                   id="path926"
                                   style="fill:none;stroke:#a50034;stroke-width:1.59404004;stroke-linecap:butt;stroke-linejoin:miter;stroke-miterlimit:10;stroke-dasharray:none;stroke-opacity:1"
                                   d="m 133.10464,124.61209 -0.4169,0.81183 -0.44578,0.78744 -0.48261,0.75444 -0.51217,0.728 -0.54761,0.69492 -0.57827,0.66539 -0.6114,0.63354 -0.64221,0.6021 -0.67421,0.56975 -0.70462,0.53657 -0.73436,0.50542 -0.76652,0.4698 -0.79247,0.44041 -0.82411,0.40223 -0.85022,0.37088 -0.87981,0.33478 -0.90642,0.30191 -0.93269,0.26594 -0.9583,0.23204 -0.98406,0.19766 -1.00963,0.16097 -1.03217,0.12675 -1.05682,0.0899 2.7026,-0.14557" /><g
                                   transform="matrix(-0.99852,0.0538,-0.0538,-0.99852,118.4639,135.1492)"
                                   id="g928"><g
                                   id="g930"><path
                                   id="path932"
                                   style="fill:#a50034;fill-opacity:1;fill-rule:nonzero;stroke:none"
                                   d="M 3.78581,0 -2.27148,3.02866 0,0 -2.27148,-3.02866" /></g></g></g><g
                                 id="g934"><path
                                   id="path936"
                                   style="fill:none;stroke:#00a6d6;stroke-width:1.59404004;stroke-linecap:round;stroke-linejoin:miter;stroke-miterlimit:10;stroke-dasharray:none;stroke-opacity:1"
                                   d="m 80.69362,80.69362 65.57458,21.85821" /><g
                                   transform="matrix(0.94864,0.31621,-0.31621,0.94864,146.2682,102.55183)"
                                   id="g938"><g
                                   id="g940"><path
                                   id="path942"
                                   style="fill:#00a6d6;fill-opacity:1;fill-rule:nonzero;stroke:none"
                                   d="M 3.78581,0 -2.27148,3.02866 0,0 -2.27148,-3.02866" /></g></g></g><g
                                 id="g944"><path
                                   id="path946"
                                   style="fill:none;stroke:#00a6d6;stroke-width:1.59404004;stroke-linecap:round;stroke-linejoin:miter;stroke-miterlimit:10;stroke-dasharray:none;stroke-opacity:1"
                                   d="m 80.69362,80.69362 66.97974,56.12643" /><g
                                   transform="matrix(0.76645,0.64227,-0.64227,0.76645,147.67334,136.82005)"
                                   id="g948"><g
                                   id="g950"><path
                                   id="path952"
                                   style="fill:#00a6d6;fill-opacity:1;fill-rule:nonzero;stroke:none"
                                   d="M 3.78581,0 -2.27148,3.02866 0,0 -2.27148,-3.02866" /></g></g></g><g
                                 id="g954"><path
                                   id="path956"
                                   style="fill:none;stroke:#00a6d6;stroke-width:1.59404004;stroke-linecap:round;stroke-linejoin:miter;stroke-miterlimit:10;stroke-dasharray:none;stroke-opacity:1"
                                   d="m 80.69362,80.69362 43.32281,69.66606" /><g
                                   transform="matrix(0.52805,0.84917,-0.84917,0.52805,124.01643,150.35968)"
                                   id="g958"><g
                                   id="g960"><path
                                   id="path962"
                                   style="fill:#00a6d6;fill-opacity:1;fill-rule:nonzero;stroke:none"
                                   d="M 3.78581,0 -2.27148,3.02866 0,0 -2.27148,-3.02866" /></g></g></g></g></g></g><g
                           transform="translate(-0.199,-0.2)"
                           id="g964" /></g><g
                         transform="translate(0.199,0.2)"
                         id="g966" /></g><g
                       id="g968" /><g
                       id="g970" /></g></g></g></g></g></g></g></g></g></svg>