<?xml version="1.0" encoding="UTF-8"?>
<svg xmlns="http://www.w3.org/2000/svg" xmlns:xlink="http://www.w3.org/1999/xlink" width="354.416pt" height="173.122pt" viewBox="0 0 354.416 173.122" version="1.2">
<g id="surface1">
<path style="fill:none;stroke-width:0.3985;stroke-linecap:butt;stroke-linejoin:miter;stroke:rgb(0%,0%,0%);stroke-opacity:1;stroke-miterlimit:10;" d="M -0.00164815 80.695137 L 159.396421 80.695137 " transform="matrix(0.994954,0,0,-0.994954,6.443046,166.409045)"/>
<path style=" stroke:none;fill-rule:nonzero;fill:rgb(0%,0%,0%);fill-opacity:1;" d="M 167.015625 86.121094 L 163.84375 84.535156 L 165.035156 86.121094 L 163.84375 87.707031 "/>
<path style="fill:none;stroke-width:0.3985;stroke-linecap:butt;stroke-linejoin:miter;stroke:rgb(0%,0%,0%);stroke-opacity:1;stroke-miterlimit:10;" d="M 80.694606 -0.00111668 L 80.694606 159.393026 " transform="matrix(0.994954,0,0,-0.994954,6.443046,166.409045)"/>
<path style=" stroke:none;fill-rule:nonzero;fill:rgb(0%,0%,0%);fill-opacity:1;" d="M 86.730469 5.835938 L 85.144531 9.007813 L 86.730469 7.820313 L 88.316406 9.007813 "/>
<path style="fill:none;stroke-width:1.59404;stroke-linecap:round;stroke-linejoin:miter;stroke:rgb(64.704895%,0%,20.391846%);stroke-opacity:1;stroke-miterlimit:10;" d="M 80.694606 80.695137 L 60.314424 101.071393 " transform="matrix(0.994954,0,0,-0.994954,6.443046,166.409045)"/>
<path style=" stroke:none;fill-rule:nonzero;fill:rgb(64.704895%,0%,20.391846%);fill-opacity:1;" d="M 63.789063 63.183594 L 65.921875 69.574219 L 66.453125 65.847656 L 70.183594 65.3125 "/>
<path style="fill:none;stroke-width:1.59404;stroke-linecap:round;stroke-linejoin:miter;stroke:rgb(0%,60.78186%,46.665955%);stroke-opacity:1;stroke-miterlimit:10;" d="M 80.694606 80.695137 L 102.056303 123.418531 " transform="matrix(0.994954,0,0,-0.994954,6.443046,166.409045)"/>
<path style=" stroke:none;fill-rule:nonzero;fill:rgb(0%,60.78186%,46.665955%);fill-opacity:1;" d="M 109.667969 40.246094 L 104.277344 44.289063 L 107.984375 43.613281 L 109.667969 46.980469 "/>
<path style="fill:none;stroke-width:1.59404;stroke-linecap:butt;stroke-linejoin:miter;stroke:rgb(0%,65.098572%,83.921814%);stroke-opacity:1;stroke-miterlimit:10;" d="M 80.694606 80.695137 L 101.070861 60.314956 " transform="matrix(0.994954,0,0,-0.994954,6.443046,166.409045)"/>
<path style=" stroke:none;fill-rule:nonzero;fill:rgb(0%,65.098572%,83.921814%);fill-opacity:1;" d="M 109.667969 109.0625 L 107.539063 102.667969 L 107.003906 106.398438 L 103.277344 106.929688 "/>
<path style="fill-rule:nonzero;fill:rgb(92.939758%,40.783691%,25.881958%);fill-opacity:1;stroke-width:1.59404;stroke-linecap:butt;stroke-linejoin:miter;stroke:rgb(92.939758%,40.783691%,25.881958%);stroke-opacity:1;stroke-miterlimit:10;" d="M 82.685119 80.695137 C 82.685119 81.794434 81.793903 82.68565 80.694606 82.68565 C 79.591383 82.68565 78.700167 81.794434 78.700167 80.695137 C 78.700167 79.591914 79.591383 78.700698 80.694606 78.700698 C 81.793903 78.700698 82.685119 79.591914 82.685119 80.695137 Z M 82.685119 80.695137 " transform="matrix(0.994954,0,0,-0.994954,6.443046,166.409045)"/>
<path style="fill:none;stroke-width:0.3985;stroke-linecap:butt;stroke-linejoin:miter;stroke:rgb(0%,0%,0%);stroke-opacity:1;stroke-miterlimit:10;" d="M -0.000938003 80.695137 L 159.393205 80.695137 " transform="matrix(0.994954,0,0,-0.994954,186.821246,166.409045)"/>
<path style=" stroke:none;fill-rule:nonzero;fill:rgb(0%,0%,0%);fill-opacity:1;" d="M 347.394531 86.121094 L 344.222656 84.535156 L 345.410156 86.121094 L 344.222656 87.707031 "/>
<path style="fill:none;stroke-width:0.3985;stroke-linecap:butt;stroke-linejoin:miter;stroke:rgb(0%,0%,0%);stroke-opacity:1;stroke-miterlimit:10;" d="M 80.695316 -0.00111668 L 80.695316 159.393026 " transform="matrix(0.994954,0,0,-0.994954,186.821246,166.409045)"/>
<path style=" stroke:none;fill-rule:nonzero;fill:rgb(0%,0%,0%);fill-opacity:1;" d="M 267.109375 5.835938 L 265.523438 9.007813 L 267.109375 7.820313 L 268.695313 9.007813 "/>
<path style="fill:none;stroke-width:1.59404;stroke-linecap:round;stroke-linejoin:miter;stroke:rgb(64.704895%,0%,20.391846%);stroke-opacity:1;stroke-miterlimit:10;" d="M 80.695316 80.695137 L 38.368454 80.695137 " transform="matrix(0.994954,0,0,-0.994954,186.821246,166.409045)"/>
<path style=" stroke:none;fill-rule:nonzero;fill:rgb(64.704895%,0%,20.391846%);fill-opacity:1;" d="M 221.230469 86.121094 L 227.257813 89.136719 L 224.996094 86.121094 L 227.257813 83.109375 "/>
<path style="fill:none;stroke-width:1.59404;stroke-linecap:round;stroke-linejoin:miter;stroke:rgb(0%,60.78186%,46.665955%);stroke-opacity:1;stroke-miterlimit:10;" d="M 80.695316 80.695137 L 58.835009 146.268205 " transform="matrix(0.994954,0,0,-0.994954,186.821246,166.409045)"/>
<path style=" stroke:none;fill-rule:nonzero;fill:rgb(0%,60.78186%,46.665955%);fill-opacity:1;" d="M 244.167969 17.304688 L 243.214844 23.976563 L 245.359375 20.878906 L 248.933594 22.070313 "/>
<path style="fill:none;stroke-width:1.59404;stroke-linecap:round;stroke-linejoin:miter;stroke:rgb(0%,65.098572%,83.921814%);stroke-opacity:1;stroke-miterlimit:10;" d="M 80.695316 80.695137 L 123.018251 80.695137 " transform="matrix(0.994954,0,0,-0.994954,186.821246,166.409045)"/>
<path style=" stroke:none;fill-rule:nonzero;fill:rgb(0%,65.098572%,83.921814%);fill-opacity:1;" d="M 312.984375 86.121094 L 306.957031 83.109375 L 309.21875 86.121094 L 306.957031 89.136719 "/>
<path style="fill-rule:nonzero;fill:rgb(92.939758%,40.783691%,25.881958%);fill-opacity:1;stroke-width:1.59404;stroke-linecap:butt;stroke-linejoin:miter;stroke:rgb(92.939758%,40.783691%,25.881958%);stroke-opacity:1;stroke-miterlimit:10;" d="M 82.685829 80.695137 C 82.685829 81.794434 81.794613 82.68565 80.695316 82.68565 C 79.592093 82.68565 78.700877 81.794434 78.700877 80.695137 C 78.700877 79.591914 79.592093 78.700698 80.695316 78.700698 C 81.794613 78.700698 82.685829 79.591914 82.685829 80.695137 Z M 82.685829 80.695137 " transform="matrix(0.994954,0,0,-0.994954,186.821246,166.409045)"/>
</g>
</svg>
