<svg xmlns="http://www.w3.org/2000/svg" xmlns:xlink="http://www.w3.org/1999/xlink" version="1.1" width="506.952pt" height="181.303pt" viewBox="0 0 506.952 181.303">
<path transform="matrix(1,0,0,-1,10.098,174.70499)" stroke-width=".19925" stroke-linecap="butt" stroke-miterlimit="10" stroke-linejoin="miter" fill="none" stroke="#929292" d="M48.41982 14.01398V18.26587"/>
<path transform="matrix(1,0,0,-1,10.098,174.70499)" stroke-width=".19925" stroke-linecap="butt" stroke-miterlimit="10" stroke-linejoin="miter" fill="none" stroke="#929292" d="M14.01398 90.38365H18.26587"/>
<path transform="matrix(1,0,0,-1,10.098,174.70499)" stroke-width=".3985" stroke-linecap="butt" stroke-miterlimit="10" stroke-linejoin="miter" fill="none" stroke="#000000" d="M0 16.13994H191.68675"/>
<path transform="matrix(1,0,0,-1,201.78476,158.56505)" d="M1.99252 0-1.19551 1.59401 0 0-1.19551-1.59401"/>
<path transform="matrix(1,0,0,-1,10.098,174.70499)" stroke-width=".3985" stroke-linecap="butt" stroke-miterlimit="10" stroke-linejoin="miter" fill="none" stroke="#000000" d="M16.13994 0V159.40688"/>
<path transform="matrix(0,-1,-1,-0,26.23794,15.298111)" d="M1.99252 0-1.19551 1.59401 0 0-1.19551-1.59401"/>
<text xml:space="preserve" transform="matrix(1 0 -0 1 0 181.30298)" font-size="11.9552" font-family="CMMI12" font-style="italic"><tspan y="-11.364" x="52.825">x</tspan></text>
<text xml:space="preserve" transform="matrix(1 0 -0 1 0 181.30298)" font-size="7.9701" font-family="CMR8"><tspan y="-9.571" x="59.477">1</tspan></text>
<text xml:space="preserve" transform="matrix(1 0 -0 1 -.0000009536743 181.30298)" font-size="11.9552" font-family="CMMI12" font-style="italic"><tspan y="-95.57" x="9.571">y</tspan></text>
<text xml:space="preserve" transform="matrix(1 0 -0 1 -.0000009536743 181.30298)" font-size="7.9701" font-family="CMR8"><tspan y="-93.776" x="15.279">1</tspan></text>
<path transform="matrix(1,0,0,-1,10.098,174.70499)" stroke-width=".79701" stroke-linecap="butt" stroke-miterlimit="10" stroke-linejoin="miter" fill="none" stroke="#000000" d="M53.87834 63.3619 50.64455 69.81787 57.10052 73.05167"/>
<path transform="matrix(1,0,0,-1,10.098,174.70499)" stroke-width=".79701" stroke-linecap="butt" stroke-miterlimit="10" stroke-linejoin="miter" fill="none" stroke="#000000" d="M75.79411 74.33952 79.02791 67.88354 72.57193 64.64975"/>
<path transform="matrix(1,0,0,-1,10.098,174.70499)" stroke-width=".79701" stroke-linecap="butt" stroke-miterlimit="10" stroke-linejoin="miter" fill="none" stroke="#000000" d="M114.52545 93.74004 117.75925 87.28407 111.30327 84.05028"/>
<path transform="matrix(1,0,0,-1,10.098,174.70499)" stroke-width=".79701" stroke-linecap="butt" stroke-miterlimit="10" stroke-linejoin="miter" fill="none" stroke="#000000" d="M164.8882 118.96674 161.6544 125.42271 155.19844 122.18892"/>
<path transform="matrix(1,0,0,-1,10.098,174.70499)" stroke-width=".79701" stroke-linecap="butt" stroke-miterlimit="10" stroke-linejoin="miter" fill="none" stroke="#000000" d="M175.18355 124.12369 178.41735 117.66771 171.96137 114.43391"/>
<path transform="matrix(1,0,0,-1,10.098,174.70499)" stroke-width="1.19553" stroke-linecap="butt" stroke-miterlimit="10" stroke-linejoin="miter" fill="none" stroke="#a50034" d="M60.33432 66.59569 48.41982 90.38365"/>
<path transform="matrix(1,0,0,-1,10.098,174.70499)" stroke-width="1.19553" stroke-linecap="butt" stroke-miterlimit="10" stroke-linejoin="miter" fill="none" stroke="#a50034" d="M69.33813 71.10573 80.69969 48.41982"/>
<path transform="matrix(1,0,0,-1,10.098,174.70499)" stroke-width="1.19553" stroke-linecap="butt" stroke-miterlimit="10" stroke-linejoin="miter" fill="none" stroke="#a50034" d="M108.06947 90.50624 112.97957 80.69969"/>
<path transform="matrix(1,0,0,-1,10.098,174.70499)" stroke-width="1.19553" stroke-linecap="butt" stroke-miterlimit="10" stroke-linejoin="miter" fill="none" stroke="#a50034" d="M158.43224 115.73294 145.25946 142.03147"/>
<text xml:space="preserve" transform="matrix(1 0 -0 1 0 181.30298)" font-size="11.9552" font-family="CMR12"><tspan y="-125.916" x="90.331 96.83463 100.08645 104.70116 109.25609">dist(</tspan></text>
<text xml:space="preserve" transform="matrix(1 0 -0 1 0 181.30298)" font-size="11.9552" font-family="CMMI12" font-style="italic"><tspan y="-125.916" x="113.808">P</tspan></text>
<text xml:space="preserve" transform="matrix(1 0 -0 1 0 181.30298)" font-size="7.9701" font-family="CMR8"><tspan y="-124.122" x="121.353">4</tspan></text>
<text xml:space="preserve" transform="matrix(1 0 -0 1 0 181.30298)" font-size="11.9552" font-family="CMMI12" font-style="italic"><tspan y="-125.916" x="126.086 131.33434">,&#x2113;</tspan></text>
<text xml:space="preserve" transform="matrix(1 0 -0 1 0 181.30298)" font-size="11.9552" font-family="CMR12"><tspan y="-125.916" x="136.242">)</tspan></text>
<path transform="matrix(1,0,0,-1,10.098,174.70499)" stroke-width=".79701" stroke-linecap="butt" stroke-miterlimit="10" stroke-linejoin="miter" fill="none" stroke="#000000" d="M148.04938 122.30757H135.19734"/>
<path transform="matrix(1,0,0,-1,158.14737,52.397417)" d="M2.59026 0-1.55415 2.0722 0 0-1.55415-2.0722"/>
<path transform="matrix(1,0,0,-1,10.098,174.70499)" stroke-width="1.19553" stroke-linecap="butt" stroke-miterlimit="10" stroke-linejoin="miter" fill="none" stroke="#a50034" d="M168.72757 120.8899 177.53934 103.29561"/>
<path transform="matrix(1,0,0,-1,10.098,174.70499)" stroke-width=".79701" stroke-linecap="round" stroke-dasharray="2.98883,2.98883" stroke-miterlimit="10" stroke-linejoin="miter" fill="none" stroke="#000000" d="M48.41982 16.13994V90.38365"/>
<path transform="matrix(1,0,0,-1,10.098,174.70499)" stroke-width=".79701" stroke-linecap="round" stroke-dasharray="2.98883,2.98883" stroke-miterlimit="10" stroke-linejoin="miter" fill="none" stroke="#000000" d="M16.13994 90.38365H48.41982"/>
<path transform="matrix(1,0,0,-1,10.098,174.70499)" stroke-width="1.19553" stroke-linecap="butt" stroke-miterlimit="10" stroke-linejoin="miter" fill="none" stroke="#ed6842" d=""/>
<text fill="#ed6842" xml:space="preserve" transform="matrix(1 0 -0 1 0 181.30298)" font-size="11.9552" font-family="CMMI12" font-style="italic"><tspan y="-103.274" x="52.378">P</tspan></text>
<text fill="#ed6842" xml:space="preserve" transform="matrix(1 0 -0 1 0 181.30298)" font-size="7.9701" font-family="CMR8"><tspan y="-101.48" x="59.924">1</tspan></text>
<text fill="#ed6842" xml:space="preserve" transform="matrix(1 0 -0 1 0 181.30298)" font-size="11.9552" font-family="CMMI12" font-style="italic"><tspan y="-42.349" x="84.658">P</tspan></text>
<text fill="#ed6842" xml:space="preserve" transform="matrix(1 0 -0 1 0 181.30298)" font-size="7.9701" font-family="CMR8"><tspan y="-40.556" x="92.202999">2</tspan></text>
<text fill="#ed6842" xml:space="preserve" transform="matrix(1 0 -0 1 0 181.30298)" font-size="11.9552" font-family="CMMI12" font-style="italic"><tspan y="-74.628" x="116.937">P</tspan></text>
<text fill="#ed6842" xml:space="preserve" transform="matrix(1 0 -0 1 0 181.30298)" font-size="7.9701" font-family="CMR8"><tspan y="-72.835" x="124.481998">3</tspan></text>
<text fill="#ed6842" xml:space="preserve" transform="matrix(1 0 -0 1 .000015258789 181.303)" font-size="11.9552" font-family="CMMI12" font-style="italic"><tspan y="-154.921" x="149.217">P</tspan></text>
<text fill="#ed6842" xml:space="preserve" transform="matrix(1 0 -0 1 .000015258789 181.303)" font-size="7.9701" font-family="CMR8"><tspan y="-153.127" x="156.762">4</tspan></text>
<text fill="#ed6842" xml:space="preserve" transform="matrix(1 0 -0 1 0 181.30298)" font-size="11.9552" font-family="CMMI12" font-style="italic"><tspan y="-97.224" x="181.496">P</tspan></text>
<text fill="#ed6842" xml:space="preserve" transform="matrix(1 0 -0 1 0 181.30298)" font-size="7.9701" font-family="CMR8"><tspan y="-95.431" x="189.041">5</tspan></text>
<path transform="matrix(1,0,0,-1,10.098,174.70499)" stroke-width="1.19553" stroke-linecap="round" stroke-miterlimit="10" stroke-linejoin="miter" fill="none" stroke="#00a6d6" d="M8.06996 40.41649 185.60932 129.34595"/>
<text fill="#00a6d6" xml:space="preserve" transform="matrix(1 0 -0 1 0 181.30298)" font-size="11.9552" font-family="CMMI12" font-style="italic"><tspan y="-142.767" x="165.086">&#x2113;</tspan></text>
<text fill="#00a6d6" xml:space="preserve" transform="matrix(1 0 -0 1 0 181.30298)" font-size="11.9552" font-family="CMR12"><tspan y="-142.767" x="173.319">:</tspan></text>
<text fill="#00a6d6" xml:space="preserve" transform="matrix(1 0 -0 1 0 181.30298)" font-size="11.9552" font-family="CMMI12" font-style="italic"><tspan y="-142.767" x="179.892">y</tspan></text>
<text fill="#00a6d6" xml:space="preserve" transform="matrix(1 0 -0 1 0 181.30298)" font-size="11.9552" font-family="CMR12"><tspan y="-142.767" x="189.349">=</tspan></text>
<text fill="#00a6d6" xml:space="preserve" transform="matrix(1 0 -0 1 0 181.30298)" font-size="11.9552" font-family="CMMI12" font-style="italic"><tspan y="-142.767" x="201.774 207.91898">ax</tspan></text>
<text fill="#00a6d6" xml:space="preserve" transform="matrix(1 0 -0 1 0 181.30298)" font-size="11.9552" font-family="CMR12"><tspan y="-142.767" x="217.228">+</tspan></text>
<text fill="#00a6d6" xml:space="preserve" transform="matrix(1 0 -0 1 0 181.30298)" font-size="11.9552" font-family="CMMI12" font-style="italic"><tspan y="-142.767" x="228.989">b</tspan></text>
<path transform="matrix(1,0,0,-1,10.098,174.70499)" d="M50.41237 90.38365C50.41237 91.48413 49.52028 92.3762 48.41982 92.3762 47.31934 92.3762 46.42726 91.48413 46.42726 90.38365 46.42726 89.28319 47.31934 88.3911 48.41982 88.3911 49.52028 88.3911 50.41237 89.28319 50.41237 90.38365ZM48.41982 90.38365" fill="#ed6842"/>
<path transform="matrix(1,0,0,-1,10.098,174.70499)" stroke-width="1.19553" stroke-linecap="butt" stroke-miterlimit="10" stroke-linejoin="miter" fill="none" stroke="#ed6842" d="M50.41237 90.38365C50.41237 91.48413 49.52028 92.3762 48.41982 92.3762 47.31934 92.3762 46.42726 91.48413 46.42726 90.38365 46.42726 89.28319 47.31934 88.3911 48.41982 88.3911 49.52028 88.3911 50.41237 89.28319 50.41237 90.38365ZM48.41982 90.38365"/>
<path transform="matrix(1,0,0,-1,10.098,174.70499)" d="M82.69225 48.41982C82.69225 49.52028 81.80017 50.41237 80.69969 50.41237 79.59923 50.41237 78.70714 49.52028 78.70714 48.41982 78.70714 47.31934 79.59923 46.42726 80.69969 46.42726 81.80017 46.42726 82.69225 47.31934 82.69225 48.41982ZM80.69969 48.41982" fill="#ed6842"/>
<path transform="matrix(1,0,0,-1,10.098,174.70499)" stroke-width="1.19553" stroke-linecap="butt" stroke-miterlimit="10" stroke-linejoin="miter" fill="none" stroke="#ed6842" d="M82.69225 48.41982C82.69225 49.52028 81.80017 50.41237 80.69969 50.41237 79.59923 50.41237 78.70714 49.52028 78.70714 48.41982 78.70714 47.31934 79.59923 46.42726 80.69969 46.42726 81.80017 46.42726 82.69225 47.31934 82.69225 48.41982ZM80.69969 48.41982"/>
<path transform="matrix(1,0,0,-1,10.098,174.70499)" d="M114.97212 80.69969C114.97212 81.80017 114.08005 82.69225 112.97957 82.69225 111.8791 82.69225 110.98701 81.80017 110.98701 80.69969 110.98701 79.59923 111.8791 78.70714 112.97957 78.70714 114.08005 78.70714 114.97212 79.59923 114.97212 80.69969ZM112.97957 80.69969" fill="#ed6842"/>
<path transform="matrix(1,0,0,-1,10.098,174.70499)" stroke-width="1.19553" stroke-linecap="butt" stroke-miterlimit="10" stroke-linejoin="miter" fill="none" stroke="#ed6842" d="M114.97212 80.69969C114.97212 81.80017 114.08005 82.69225 112.97957 82.69225 111.8791 82.69225 110.98701 81.80017 110.98701 80.69969 110.98701 79.59923 111.8791 78.70714 112.97957 78.70714 114.08005 78.70714 114.97212 79.59923 114.97212 80.69969ZM112.97957 80.69969"/>
<path transform="matrix(1,0,0,-1,10.098,174.70499)" d="M147.25202 142.03147C147.25202 143.13195 146.35993 144.02402 145.25946 144.02402 144.15898 144.02402 143.2669 143.13195 143.2669 142.03147 143.2669 140.931 144.15898 140.03891 145.25946 140.03891 146.35993 140.03891 147.25202 140.931 147.25202 142.03147ZM145.25946 142.03147" fill="#ed6842"/>
<path transform="matrix(1,0,0,-1,10.098,174.70499)" stroke-width="1.19553" stroke-linecap="butt" stroke-miterlimit="10" stroke-linejoin="miter" fill="none" stroke="#ed6842" d="M147.25202 142.03147C147.25202 143.13195 146.35993 144.02402 145.25946 144.02402 144.15898 144.02402 143.2669 143.13195 143.2669 142.03147 143.2669 140.931 144.15898 140.03891 145.25946 140.03891 146.35993 140.03891 147.25202 140.931 147.25202 142.03147ZM145.25946 142.03147"/>
<path transform="matrix(1,0,0,-1,10.098,174.70499)" d="M179.53189 103.29561C179.53189 104.39609 178.6398 105.28816 177.53934 105.28816 176.43888 105.28816 175.54679 104.39609 175.54679 103.29561 175.54679 102.19514 176.43888 101.30305 177.53934 101.30305 178.6398 101.30305 179.53189 102.19514 179.53189 103.29561ZM177.53934 103.29561" fill="#ed6842"/>
<path transform="matrix(1,0,0,-1,10.098,174.70499)" stroke-width="1.19553" stroke-linecap="butt" stroke-miterlimit="10" stroke-linejoin="miter" fill="none" stroke="#ed6842" d="M179.53189 103.29561C179.53189 104.39609 178.6398 105.28816 177.53934 105.28816 176.43888 105.28816 175.54679 104.39609 175.54679 103.29561 175.54679 102.19514 176.43888 101.30305 177.53934 101.30305 178.6398 101.30305 179.53189 102.19514 179.53189 103.29561ZM177.53934 103.29561"/>
<path transform="matrix(1,0,0,-1,10.098,174.70499)" stroke-width="1.19553" stroke-linecap="butt" stroke-miterlimit="10" stroke-linejoin="miter" fill="none" stroke="#ed6842" d=""/>
<text xml:space="preserve" transform="matrix(1 0 -0 1 0 181.303)" font-size="11.9552" font-family="CMMI12" font-style="italic"><tspan y="-13.49" x="200.449">x</tspan></text>
<text xml:space="preserve" transform="matrix(1 0 -0 1 0 181.303)" font-size="11.9552" font-family="CMMI12" font-style="italic"><tspan y="-166.584" x="16">y</tspan></text>
<path transform="matrix(1,0,0,-1,273.513,174.70499)" stroke-width=".19925" stroke-linecap="butt" stroke-miterlimit="10" stroke-linejoin="miter" fill="none" stroke="#929292" d="M48.41982 14.01398V18.26587"/>
<path transform="matrix(1,0,0,-1,273.513,174.70499)" stroke-width=".19925" stroke-linecap="butt" stroke-miterlimit="10" stroke-linejoin="miter" fill="none" stroke="#929292" d="M14.01398 90.38365H18.26587"/>
<path transform="matrix(1,0,0,-1,273.513,174.70499)" stroke-width=".3985" stroke-linecap="butt" stroke-miterlimit="10" stroke-linejoin="miter" fill="none" stroke="#000000" d="M0 16.13994H191.68675"/>
<path transform="matrix(1,0,0,-1,465.19978,158.56505)" d="M1.99252 0-1.19551 1.59401 0 0-1.19551-1.59401"/>
<path transform="matrix(1,0,0,-1,273.513,174.70499)" stroke-width=".3985" stroke-linecap="butt" stroke-miterlimit="10" stroke-linejoin="miter" fill="none" stroke="#000000" d="M16.13994 0V159.40688"/>
<path transform="matrix(0,-1,-1,-0,289.65296,15.298111)" d="M1.99252 0-1.19551 1.59401 0 0-1.19551-1.59401"/>
<text xml:space="preserve" transform="matrix(1 0 -0 1 0 181.30298)" font-size="11.9552" font-family="CMMI12" font-style="italic"><tspan y="-11.364" x="316.24">x</tspan></text>
<text xml:space="preserve" transform="matrix(1 0 -0 1 0 181.30298)" font-size="7.9701" font-family="CMR8"><tspan y="-9.571" x="322.892">1</tspan></text>
<text xml:space="preserve" transform="matrix(1 0 -0 1 0 181.30298)" font-size="11.9552" font-family="CMMI12" font-style="italic"><tspan y="-95.57" x="272.986">y</tspan></text>
<text xml:space="preserve" transform="matrix(1 0 -0 1 0 181.30298)" font-size="7.9701" font-family="CMR8"><tspan y="-93.776" x="278.693">1</tspan></text>
<path transform="matrix(1,0,0,-1,273.513,174.70499)" stroke-width=".79701" stroke-linecap="round" stroke-dasharray="2.98883,2.98883" stroke-miterlimit="10" stroke-linejoin="miter" fill="none" stroke="#000000" d="M48.41982 16.13994V90.38365"/>
<path transform="matrix(1,0,0,-1,273.513,174.70499)" stroke-width=".79701" stroke-linecap="round" stroke-dasharray="2.98883,2.98883" stroke-miterlimit="10" stroke-linejoin="miter" fill="none" stroke="#000000" d="M16.13994 90.38365H48.41982"/>
<path transform="matrix(1,0,0,-1,273.513,174.70499)" stroke-width="1.19553" stroke-linecap="butt" stroke-miterlimit="10" stroke-linejoin="miter" fill="none" stroke="#ed6842" d=""/>
<text fill="#ed6842" xml:space="preserve" transform="matrix(1 0 -0 1 0 181.30298)" font-size="11.9552" font-family="CMMI12" font-style="italic"><tspan y="-103.273" x="315.793">P</tspan></text>
<text fill="#ed6842" xml:space="preserve" transform="matrix(1 0 -0 1 0 181.30298)" font-size="7.9701" font-family="CMR8"><tspan y="-101.48" x="323.338">1</tspan></text>
<text fill="#ed6842" xml:space="preserve" transform="matrix(1 0 -0 1 0 181.30298)" font-size="11.9552" font-family="CMMI12" font-style="italic"><tspan y="-42.349" x="348.073">P</tspan></text>
<text fill="#ed6842" xml:space="preserve" transform="matrix(1 0 -0 1 0 181.30298)" font-size="7.9701" font-family="CMR8"><tspan y="-40.556" x="355.618">2</tspan></text>
<text fill="#ed6842" xml:space="preserve" transform="matrix(1 0 -0 1 0 181.30298)" font-size="11.9552" font-family="CMMI12" font-style="italic"><tspan y="-74.628" x="380.352">P</tspan></text>
<text fill="#ed6842" xml:space="preserve" transform="matrix(1 0 -0 1 0 181.30298)" font-size="7.9701" font-family="CMR8"><tspan y="-72.835" x="387.897">3</tspan></text>
<text fill="#ed6842" xml:space="preserve" transform="matrix(1 0 -0 1 .000030517579 181.303)" font-size="11.9552" font-family="CMMI12" font-style="italic"><tspan y="-154.921" x="412.632">P</tspan></text>
<text fill="#ed6842" xml:space="preserve" transform="matrix(1 0 -0 1 .000030517579 181.303)" font-size="7.9701" font-family="CMR8"><tspan y="-153.127" x="420.177">4</tspan></text>
<text fill="#ed6842" xml:space="preserve" transform="matrix(1 0 -0 1 0 181.30298)" font-size="11.9552" font-family="CMMI12" font-style="italic"><tspan y="-97.224" x="444.911">P</tspan></text>
<text fill="#ed6842" xml:space="preserve" transform="matrix(1 0 -0 1 0 181.30298)" font-size="7.9701" font-family="CMR8"><tspan y="-95.431" x="452.45603">5</tspan></text>
<path transform="matrix(1,0,0,-1,273.513,174.70499)" stroke-width="1.19553" stroke-linecap="round" stroke-miterlimit="10" stroke-linejoin="miter" fill="none" stroke="#00a6d6" d="M8.06996 54.14917 185.60932 119.83873"/>
<text fill="#00a6d6" xml:space="preserve" transform="matrix(1 0 -0 1 0 181.30298)" font-size="11.9552" font-family="CMMI12" font-style="italic"><tspan y="-133.259" x="428.501">&#x2113;</tspan></text>
<text fill="#00a6d6" xml:space="preserve" transform="matrix(1 0 -0 1 0 181.30298)" font-size="11.9552" font-family="CMR12"><tspan y="-133.259" x="436.734">:</tspan></text>
<text fill="#00a6d6" xml:space="preserve" transform="matrix(1 0 -0 1 0 181.30298)" font-size="11.9552" font-family="CMMI12" font-style="italic"><tspan y="-133.259" x="443.306">y</tspan></text>
<text fill="#00a6d6" xml:space="preserve" transform="matrix(1 0 -0 1 0 181.30298)" font-size="11.9552" font-family="CMR12"><tspan y="-133.259" x="452.764">=</tspan></text>
<text fill="#00a6d6" xml:space="preserve" transform="matrix(1 0 -0 1 0 181.30298)" font-size="11.9552" font-family="CMMI12" font-style="italic"><tspan y="-133.259" x="465.189 471.33396">ax</tspan></text>
<text fill="#00a6d6" xml:space="preserve" transform="matrix(1 0 -0 1 0 181.30298)" font-size="11.9552" font-family="CMR12"><tspan y="-133.259" x="480.643">+</tspan></text>
<text fill="#00a6d6" xml:space="preserve" transform="matrix(1 0 -0 1 0 181.30298)" font-size="11.9552" font-family="CMMI12" font-style="italic"><tspan y="-133.259" x="492.404">b</tspan></text>
<path transform="matrix(1,0,0,-1,273.513,174.70499)" stroke-width="1.19553" stroke-linecap="butt" stroke-miterlimit="10" stroke-linejoin="miter" fill="none" stroke="#a50034" d="M48.41982 90.38365V69.0786"/>
<path transform="matrix(1,0,0,-1,273.513,174.70499)" stroke-width="1.19553" stroke-linecap="butt" stroke-miterlimit="10" stroke-linejoin="miter" fill="none" stroke="#a50034" d="M80.69969 48.41982V81.02216"/>
<text xml:space="preserve" transform="matrix(1 0 -0 1 0 181.30298)" font-size="11.9552" font-family="CMSY10" font-style="italic"><tspan y="-60.179" x="378.652">|</tspan></text>
<text xml:space="preserve" transform="matrix(1 0 -0 1 0 181.30298)" font-size="11.9552" font-family="CMMI12" font-style="italic"><tspan y="-60.179" x="381.97303">y</tspan></text>
<text xml:space="preserve" transform="matrix(1 0 -0 1 0 181.30298)" font-size="7.9701" font-family="CMR8"><tspan y="-58.386" x="387.68104">2</tspan></text>
<text xml:space="preserve" transform="matrix(1 0 -0 1 0 181.30298)" font-size="11.9552" font-family="CMSY10" font-style="italic"><tspan y="-60.179" x="395.07005">&#x2212;</tspan></text>
<text xml:space="preserve" transform="matrix(1 0 -0 1 0 181.30298)" font-size="11.9552" font-family="CMR12"><tspan y="-60.179" x="407.02503">(</tspan></text>
<text xml:space="preserve" transform="matrix(1 0 -0 1 0 181.30298)" font-size="11.9552" font-family="CMMI12" font-style="italic"><tspan y="-60.179" x="411.57704 417.722">ax</tspan></text>
<text xml:space="preserve" transform="matrix(1 0 -0 1 0 181.30298)" font-size="7.9701" font-family="CMR8"><tspan y="-58.386" x="424.37403">2</tspan></text>
<text xml:space="preserve" transform="matrix(1 0 -0 1 0 181.30298)" font-size="11.9552" font-family="CMR12"><tspan y="-60.179" x="431.76304">+</tspan></text>
<text xml:space="preserve" transform="matrix(1 0 -0 1 0 181.30298)" font-size="11.9552" font-family="CMMI12" font-style="italic"><tspan y="-60.179" x="443.52403">b</tspan></text>
<text xml:space="preserve" transform="matrix(1 0 -0 1 0 181.30298)" font-size="11.9552" font-family="CMR12"><tspan y="-60.179" x="448.502">)</tspan></text>
<text xml:space="preserve" transform="matrix(1 0 -0 1 0 181.30298)" font-size="11.9552" font-family="CMSY10" font-style="italic"><tspan y="-60.179" x="453.05403">|</tspan></text>
<path transform="matrix(1,0,0,-1,273.513,174.70499)" stroke-width=".79701" stroke-linecap="butt" stroke-miterlimit="10" stroke-linejoin="miter" fill="none" stroke="#000000" d="M87.78934 56.5704H100.64137"/>
<path transform="matrix(-1,-0,0,1,361.30235,118.13458)" d="M2.59026 0-1.55415 2.0722 0 0-1.55415-2.0722"/>
<path transform="matrix(1,0,0,-1,273.513,174.70499)" stroke-width="1.19553" stroke-linecap="butt" stroke-miterlimit="10" stroke-linejoin="miter" fill="none" stroke="#a50034" d="M112.97957 80.69969V92.96571"/>
<path transform="matrix(1,0,0,-1,273.513,174.70499)" stroke-width="1.19553" stroke-linecap="butt" stroke-miterlimit="10" stroke-linejoin="miter" fill="none" stroke="#a50034" d="M145.25946 142.03147V104.90927"/>
<path transform="matrix(1,0,0,-1,273.513,174.70499)" stroke-width="1.19553" stroke-linecap="butt" stroke-miterlimit="10" stroke-linejoin="miter" fill="none" stroke="#a50034" d="M177.53934 103.29561V116.85283"/>
<path transform="matrix(1,0,0,-1,273.513,174.70499)" d="M50.41237 90.38365C50.41237 91.48413 49.52028 92.3762 48.41982 92.3762 47.31934 92.3762 46.42726 91.48413 46.42726 90.38365 46.42726 89.28319 47.31934 88.3911 48.41982 88.3911 49.52028 88.3911 50.41237 89.28319 50.41237 90.38365ZM48.41982 90.38365" fill="#ed6842"/>
<path transform="matrix(1,0,0,-1,273.513,174.70499)" stroke-width="1.19553" stroke-linecap="butt" stroke-miterlimit="10" stroke-linejoin="miter" fill="none" stroke="#ed6842" d="M50.41237 90.38365C50.41237 91.48413 49.52028 92.3762 48.41982 92.3762 47.31934 92.3762 46.42726 91.48413 46.42726 90.38365 46.42726 89.28319 47.31934 88.3911 48.41982 88.3911 49.52028 88.3911 50.41237 89.28319 50.41237 90.38365ZM48.41982 90.38365"/>
<path transform="matrix(1,0,0,-1,273.513,174.70499)" d="M82.69225 48.41982C82.69225 49.52028 81.80017 50.41237 80.69969 50.41237 79.59923 50.41237 78.70714 49.52028 78.70714 48.41982 78.70714 47.31934 79.59923 46.42726 80.69969 46.42726 81.80017 46.42726 82.69225 47.31934 82.69225 48.41982ZM80.69969 48.41982" fill="#ed6842"/>
<path transform="matrix(1,0,0,-1,273.513,174.70499)" stroke-width="1.19553" stroke-linecap="butt" stroke-miterlimit="10" stroke-linejoin="miter" fill="none" stroke="#ed6842" d="M82.69225 48.41982C82.69225 49.52028 81.80017 50.41237 80.69969 50.41237 79.59923 50.41237 78.70714 49.52028 78.70714 48.41982 78.70714 47.31934 79.59923 46.42726 80.69969 46.42726 81.80017 46.42726 82.69225 47.31934 82.69225 48.41982ZM80.69969 48.41982"/>
<path transform="matrix(1,0,0,-1,273.513,174.70499)" d="M114.97212 80.69969C114.97212 81.80017 114.08005 82.69225 112.97957 82.69225 111.8791 82.69225 110.98701 81.80017 110.98701 80.69969 110.98701 79.59923 111.8791 78.70714 112.97957 78.70714 114.08005 78.70714 114.97212 79.59923 114.97212 80.69969ZM112.97957 80.69969" fill="#ed6842"/>
<path transform="matrix(1,0,0,-1,273.513,174.70499)" stroke-width="1.19553" stroke-linecap="butt" stroke-miterlimit="10" stroke-linejoin="miter" fill="none" stroke="#ed6842" d="M114.97212 80.69969C114.97212 81.80017 114.08005 82.69225 112.97957 82.69225 111.8791 82.69225 110.98701 81.80017 110.98701 80.69969 110.98701 79.59923 111.8791 78.70714 112.97957 78.70714 114.08005 78.70714 114.97212 79.59923 114.97212 80.69969ZM112.97957 80.69969"/>
<path transform="matrix(1,0,0,-1,273.513,174.70499)" d="M147.25202 142.03147C147.25202 143.13195 146.35993 144.02402 145.25946 144.02402 144.15898 144.02402 143.2669 143.13195 143.2669 142.03147 143.2669 140.931 144.15898 140.03891 145.25946 140.03891 146.35993 140.03891 147.25202 140.931 147.25202 142.03147ZM145.25946 142.03147" fill="#ed6842"/>
<path transform="matrix(1,0,0,-1,273.513,174.70499)" stroke-width="1.19553" stroke-linecap="butt" stroke-miterlimit="10" stroke-linejoin="miter" fill="none" stroke="#ed6842" d="M147.25202 142.03147C147.25202 143.13195 146.35993 144.02402 145.25946 144.02402 144.15898 144.02402 143.2669 143.13195 143.2669 142.03147 143.2669 140.931 144.15898 140.03891 145.25946 140.03891 146.35993 140.03891 147.25202 140.931 147.25202 142.03147ZM145.25946 142.03147"/>
<path transform="matrix(1,0,0,-1,273.513,174.70499)" d="M179.53189 103.29561C179.53189 104.39609 178.6398 105.28816 177.53934 105.28816 176.43888 105.28816 175.54679 104.39609 175.54679 103.29561 175.54679 102.19514 176.43888 101.30305 177.53934 101.30305 178.6398 101.30305 179.53189 102.19514 179.53189 103.29561ZM177.53934 103.29561" fill="#ed6842"/>
<path transform="matrix(1,0,0,-1,273.513,174.70499)" stroke-width="1.19553" stroke-linecap="butt" stroke-miterlimit="10" stroke-linejoin="miter" fill="none" stroke="#ed6842" d="M179.53189 103.29561C179.53189 104.39609 178.6398 105.28816 177.53934 105.28816 176.43888 105.28816 175.54679 104.39609 175.54679 103.29561 175.54679 102.19514 176.43888 101.30305 177.53934 101.30305 178.6398 101.30305 179.53189 102.19514 179.53189 103.29561ZM177.53934 103.29561"/>
<path transform="matrix(1,0,0,-1,273.513,174.70499)" stroke-width="1.19553" stroke-linecap="butt" stroke-miterlimit="10" stroke-linejoin="miter" fill="none" stroke="#ed6842" d=""/>
<text xml:space="preserve" transform="matrix(1 0 -0 1 0 181.303)" font-size="11.9552" font-family="CMMI12" font-style="italic"><tspan y="-13.49" x="463.863">x</tspan></text>
<text xml:space="preserve" transform="matrix(1 0 -0 1 0 181.303)" font-size="11.9552" font-family="CMMI12" font-style="italic"><tspan y="-166.584" x="279.415">y</tspan></text>
</svg>
