<svg xmlns="http://www.w3.org/2000/svg" xmlns:xlink="http://www.w3.org/1999/xlink" version="1.1" width="612pt" height="792pt" viewBox="0 0 612 792">
<defs>
<clipPath id="clip_0">
<path transform="matrix(1,0,0,-1,0,792)" d="M0 0H612V792H0Z"/>
</clipPath>
<clipPath id="clip_1">
<path transform="matrix(1,0,0,-1,0,792)" d="M0 792V0H612V792Z"/>
</clipPath>
<clipPath id="clip_2">
<path transform="matrix(1,0,0,-1,0,792)" d="M54 738H666V54H54V738Z"/>
</clipPath>
<clipPath id="clip_3">
<path transform="matrix(1,0,0,-1,0,792)" d="M59 738H435V362H59V738Z"/>
</clipPath>
<clipPath id="clip_4">
<path transform="matrix(1,0,0,-1,0,792)" d="M65 734.98H433.98V366H65V734.98Z"/>
</clipPath>
<clipPath id="clip_5">
<path transform="matrix(1,0,0,-1,0,792)" d="M59 738V362H435V738Z"/>
</clipPath>
<clipPath id="clip_6">
<path transform="matrix(1,0,0,-1,0,792)" d="M63 736.98H435.98V364H63V736.98Z"/>
</clipPath>
<clipPath id="clip_7">
<path transform="matrix(1,0,0,-1,0,792)" d="M59 738V362H435V738Z"/>
</clipPath>
<clipPath id="clip_8">
<path transform="matrix(1,0,0,-1,0,792)" d="M63 736.98H435.98V364H63V736.98Z"/>
</clipPath>
<clipPath id="clip_9">
<path transform="matrix(1,0,0,-1,0,792)" d="M59 738V362H435V738Z"/>
</clipPath>
<clipPath id="clip_10">
<path transform="matrix(1,0,0,-1,0,792)" d="M337 532H339V522H337V532Z"/>
</clipPath>
<clipPath id="clip_11">
<path transform="matrix(1,0,0,-1,0,792)" d="M59 738V362H435V738Z"/>
</clipPath>
<clipPath id="clip_12">
<path transform="matrix(1,0,0,-1,0,792)" d="M0 792V0H612V792Z"/>
</clipPath>
<clipPath id="clip_13">
<path transform="matrix(1,0,0,-1,0,792)" d="M59 738V362H435V738Z"/>
</clipPath>
<clipPath id="clip_14">
<path transform="matrix(1,0,0,-1,0,792)" d="M60 543H72V532H60V543Z"/>
</clipPath>
<clipPath id="clip_15">
<path transform="matrix(1,0,0,-1,0,792)" d="M0 792V0H612V792Z"/>
</clipPath>
<clipPath id="clip_16">
<path transform="matrix(1,0,0,-1,0,792)" d="M60 543V532H72V543Z"/>
</clipPath>
<clipPath id="clip_17">
<path transform="matrix(1,0,0,-1,0,792)" d="M0 792V0H612V792Z"/>
</clipPath>
<clipPath id="clip_18">
<path transform="matrix(1,0,0,-1,0,792)" d="M59 738V362H435V738Z"/>
</clipPath>
<clipPath id="clip_19">
<path transform="matrix(1,0,0,-1,0,792)" d="M104 543H116V532H104V543Z"/>
</clipPath>
<clipPath id="clip_20">
<path transform="matrix(1,0,0,-1,0,792)" d="M0 792V0H612V792Z"/>
</clipPath>
<clipPath id="clip_21">
<path transform="matrix(1,0,0,-1,0,792)" d="M104 543V532H116V543Z"/>
</clipPath>
<clipPath id="clip_22">
<path transform="matrix(1,0,0,-1,0,792)" d="M0 792V0H612V792Z"/>
</clipPath>
<clipPath id="clip_23">
<path transform="matrix(1,0,0,-1,0,792)" d="M59 738V362H435V738Z"/>
</clipPath>
<clipPath id="clip_24">
<path transform="matrix(1,0,0,-1,0,792)" d="M149 543H161V532H149V543Z"/>
</clipPath>
<clipPath id="clip_25">
<path transform="matrix(1,0,0,-1,0,792)" d="M0 792V0H612V792Z"/>
</clipPath>
<clipPath id="clip_26">
<path transform="matrix(1,0,0,-1,0,792)" d="M149 543V532H161V543Z"/>
</clipPath>
<clipPath id="clip_27">
<path transform="matrix(1,0,0,-1,0,792)" d="M0 792V0H612V792Z"/>
</clipPath>
<clipPath id="clip_28">
<path transform="matrix(1,0,0,-1,0,792)" d="M59 738V362H435V738Z"/>
</clipPath>
<clipPath id="clip_29">
<path transform="matrix(1,0,0,-1,0,792)" d="M194 543H206V532H194V543Z"/>
</clipPath>
<clipPath id="clip_30">
<path transform="matrix(1,0,0,-1,0,792)" d="M0 792V0H612V792Z"/>
</clipPath>
<clipPath id="clip_31">
<path transform="matrix(1,0,0,-1,0,792)" d="M194 543V532H206V543Z"/>
</clipPath>
<clipPath id="clip_32">
<path transform="matrix(1,0,0,-1,0,792)" d="M220 645H222V635H220V645Z"/>
</clipPath>
<clipPath id="clip_33">
<path transform="matrix(1,0,0,-1,0,792)" d="M59 738V362H435V738Z"/>
</clipPath>
<clipPath id="clip_34">
<path transform="matrix(1,0,0,-1,0,792)" d="M0 792V0H612V792Z"/>
</clipPath>
<clipPath id="clip_35">
<path transform="matrix(1,0,0,-1,0,792)" d="M59 738V362H435V738Z"/>
</clipPath>
<clipPath id="clip_36">
<path transform="matrix(1,0,0,-1,0,792)" d="M224 375H236V364H224V375Z"/>
</clipPath>
<clipPath id="clip_37">
<path transform="matrix(1,0,0,-1,0,792)" d="M0 792V0H612V792Z"/>
</clipPath>
<clipPath id="clip_38">
<path transform="matrix(1,0,0,-1,0,792)" d="M224 375V364H236V375Z"/>
</clipPath>
<clipPath id="clip_39">
<path transform="matrix(1,0,0,-1,0,792)" d="M0 792V0H612V792Z"/>
</clipPath>
<clipPath id="clip_40">
<path transform="matrix(1,0,0,-1,0,792)" d="M59 738V362H435V738Z"/>
</clipPath>
<clipPath id="clip_41">
<path transform="matrix(1,0,0,-1,0,792)" d="M224 420H236V409H224V420Z"/>
</clipPath>
<clipPath id="clip_42">
<path transform="matrix(1,0,0,-1,0,792)" d="M0 792V0H612V792Z"/>
</clipPath>
<clipPath id="clip_43">
<path transform="matrix(1,0,0,-1,0,792)" d="M224 420V409H236V420Z"/>
</clipPath>
<clipPath id="clip_44">
<path transform="matrix(1,0,0,-1,0,792)" d="M0 792V0H612V792Z"/>
</clipPath>
<clipPath id="clip_45">
<path transform="matrix(1,0,0,-1,0,792)" d="M59 738V362H435V738Z"/>
</clipPath>
<clipPath id="clip_46">
<path transform="matrix(1,0,0,-1,0,792)" d="M224 465H236V454H224V465Z"/>
</clipPath>
<clipPath id="clip_47">
<path transform="matrix(1,0,0,-1,0,792)" d="M0 792V0H612V792Z"/>
</clipPath>
<clipPath id="clip_48">
<path transform="matrix(1,0,0,-1,0,792)" d="M224 465V454H236V465Z"/>
</clipPath>
<clipPath id="clip_49">
<path transform="matrix(1,0,0,-1,0,792)" d="M0 792V0H612V792Z"/>
</clipPath>
<clipPath id="clip_50">
<path transform="matrix(1,0,0,-1,0,792)" d="M59 738V362H435V738Z"/>
</clipPath>
<clipPath id="clip_51">
<path transform="matrix(1,0,0,-1,0,792)" d="M224 510H236V499H224V510Z"/>
</clipPath>
<clipPath id="clip_52">
<path transform="matrix(1,0,0,-1,0,792)" d="M0 792V0H612V792Z"/>
</clipPath>
<clipPath id="clip_53">
<path transform="matrix(1,0,0,-1,0,792)" d="M224 510V499H236V510Z"/>
</clipPath>
<clipPath id="clip_54">
<path transform="matrix(1,0,0,-1,0,792)" d="M54 738V54H666V738Z"/>
</clipPath>
<clipPath id="clip_55">
<path transform="matrix(1,0,0,-1,0,792)" d="M54 738V-54H666V738Z"/>
</clipPath>
</defs>
<g clip-path="url(#clip_0)">
<g clip-path="url(#clip_1)">
<g clip-path="url(#clip_2)">
<g clip-path="url(#clip_3)">
<g clip-path="url(#clip_4)">
<path transform="matrix(1,0,0,-1,0,792)" stroke-width="2" stroke-linecap="butt" stroke-linejoin="round" fill="none" stroke="#ff0000" d="M159 370 338.99 729.98 248.99 549.99 69 639.99 428.98 460"/>
</g>
</g>
</g>
<g clip-path="url(#clip_5)">
<g clip-path="url(#clip_6)">
<path transform="matrix(1,0,0,-1,0,792)" stroke-width="3" stroke-linecap="butt" stroke-linejoin="round" fill="none" stroke="#ff0000" d="M309.36 670.73 306.32 672.18 303.61 673.32 300.52 674.49 297.35 675.53 294.15 676.44 291.13 677.16 287.98 677.79 284.67 678.3 281.33 678.69 277.87 678.95 274.79 679.06 271.31 679.05 267.78 678.91 264.36 678.64 261.24 678.28 257.52 677.72 254.36 677.12 250.68 676.3 247.42 675.45 243.84 674.39 240.44 673.26 236.91 671.95 233.67 670.64 230.19 669.1 226.6 667.37 223.5 665.76 220.17 663.91 216.76 661.88 213.45 659.78 210.29 657.64 206.82 655.15 203.75 652.81 200.51 650.2 197.62 647.74 194.52 644.96 191.65 642.25 188.71 639.32 185.89 636.38 183.01 633.2 180.3 630.06 177.59 626.76 174.99 623.42 172.66 620.28 170.07 616.6 167.83 613.25 165.52 609.62 163.39 606.08 161.12 602.1 159.24 598.6 157.19 594.57 155.42 590.86 153.58 586.75 152.08 583.18 150.47 579.08 149.01 575.08 147.65 571.07 146.4 567.05 145.3 563.17 144.21 558.96 143.28 554.94 142.4 550.7 141.72 546.87 141.06 542.63 140.55 538.59 140.14 534.56 139.83 530.37 139.65 526.53 139.56 522.61 139.59 518.33 139.73 514.47 139.98 510.57 140.34 506.64 140.77 503.07 141.34 499.31 142 495.62 142.83 491.74 143.66 488.37 144.73 484.54 145.8 481.16 146.96 477.87 148.31 474.41 149.77 471.02 151.19 468.01 152.79 464.89 154.45 461.93 156.36 458.81 158.09 456.2 160.17 453.29 162.21 450.66 164.32 448.15 166.52 445.74 168.84 443.38 171.38 441 173.79 438.92 176.24 436.97 178.94 435.01 181.7 433.17 184.24 431.62 187.32 429.92 189.95 428.6 193.09 427.19 196.15 425.97 198.92 425 202.09 424.02 205.33 423.17 208.61 422.46 211.68 421.92 214.89 421.48 218.25 421.16 221.63 420.97 225.14 420.91 228.25 420.98 231.78 421.19 235.33 421.53 238.77 421.99 241.9 422.52 245.64 423.29 248.8 424.06 252.49 425.09 255.74 426.11 259.31 427.36 262.69 428.67 266.21 430.17 269.43 431.65 272.87 433.37 276.43 435.29 279.5 437.06 282.78 439.08 286.14 441.28 289.39 443.54 292.5 445.83 295.9 448.49 298.9 450.99 302.06 453.75 304.88 456.34 307.9 459.27 310.68 462.11 313.53 465.17 316.26 468.24 319.04 471.55 321.64 474.81 324.24 478.22 326.73 481.67 328.95 484.91 331.42 488.69 333.54 492.13 335.72 495.85 337.72 499.47 339.85 503.54 341.61 507.1 343.51 511.2 345.14 514.97 346.83 519.13 348.2 522.75 349.66 526.89 350.97 530.92 352.17 534.97 353.27 539.01 354.23 542.91 355.15 547.13 355.93 551.16 356.63 555.39 357.17 559.22 357.65 563.44 358.01 567.47 358.25 571.48 358.39 575.63 358.42 579.44 358.34 583.31 358.14 587.55 357.84 591.34 357.43 595.19 356.9 599.05 356.32 602.56 355.59 606.24 354.77 609.84 353.77 613.63 352.8 616.92 351.56 620.64 350.34 623.92 349.04 627.1 347.53 630.44 345.92 633.71 344.36 636.61 342.61 639.6 340.81 642.43 338.77 645.4 336.91 647.88 334.69 650.63 332.52 653.11 330.28 655.47 327.97 657.73 325.53 659.93 322.86 662.14 320.34 664.05 317.79 665.83 314.99 667.62 312.12 669.28 309.36 670.73"/>
</g>
</g>
<g clip-path="url(#clip_7)">
<g clip-path="url(#clip_8)">
<path transform="matrix(1,0,0,-1,0,792)" stroke-width="3" stroke-linecap="butt" stroke-linejoin="round" fill="none" stroke="#0000ff" d="M383.99 549.99 383.91 553.36 383.73 556.29 383.39 559.58 382.9 562.88 382.28 566.15 381.58 569.17 380.73 572.28 379.71 575.46 378.57 578.62 377.25 581.83 375.97 584.63 374.4 587.75 372.7 590.84 370.93 593.78 369.21 596.41 367.05 599.48 365.1 602.04 362.72 604.97 360.5 607.51 357.96 610.23 355.42 612.76 352.67 615.34 350.05 617.65 347.12 620.07 343.96 622.51 341.13 624.57 337.99 626.72 334.65 628.86 331.29 630.88 327.97 632.75 324.19 634.74 320.72 636.44 316.94 638.17 313.45 639.65 309.57 641.19 305.86 642.54 301.93 643.86 298.04 645.06 293.91 646.22 289.88 647.24 285.73 648.19 281.57 649.02 277.72 649.7 273.28 650.37 269.28 650.88 264.99 651.32 260.88 651.64 256.3 651.89 252.33 652.01 247.81 652.03 243.7 651.96 239.21 651.77 235.34 651.51 230.95 651.12 226.72 650.64 222.52 650.06 218.37 649.38 214.4 648.63 210.15 647.72 206.14 646.76 201.96 645.64 198.22 644.55 194.14 643.24 190.29 641.89 186.51 640.45 182.62 638.85 179.1 637.3 175.57 635.62 171.74 633.68 168.36 631.83 164.98 629.87 161.63 627.79 158.63 625.8 155.51 623.61 152.52 621.37 149.41 618.89 146.77 616.64 143.83 613.97 141.28 611.5 138.85 609 136.36 606.25 133.98 603.42 131.92 600.8 129.85 597.97 127.94 595.16 126.01 592.07 124.45 589.35 122.78 586.19 121.34 583.19 120.04 580.18 118.86 577.14 117.79 574.01 116.8 570.66 116.02 567.58 115.37 564.52 114.82 561.23 114.41 557.94 114.16 554.97 114.01 551.46V548.51L114.15 545.07 114.43 541.8 114.8 538.88 115.35 535.6 116.04 532.33 116.86 529.08 117.75 526.09 118.8 523.02 120.01 519.87 121.36 516.76 122.87 513.6 124.33 510.85 126.08 507.79 127.98 504.76 129.94 501.89 131.81 499.33 134.17 496.33 136.27 493.84 138.83 491.01 141.21 488.55 143.92 485.92 146.61 483.48 149.52 481 152.29 478.79 155.37 476.48 158.67 474.15 161.62 472.2 164.9 470.16 168.37 468.14 171.85 466.25 175.29 464.5 179.19 462.65 182.76 461.07 186.64 459.48 190.22 458.12 194.19 456.73 197.98 455.51 201.99 454.33 205.96 453.27 210.15 452.26 214.24 451.39 218.45 450.59 222.65 449.91 226.54 449.37 231.02 448.85 235.05 448.49 239.35 448.21 243.48 448.03 248.07 447.95 252.05 447.97 256.56 448.11 260.67 448.33 265.14 448.68 268.99 449.07 273.35 449.62 277.54 450.25 281.7 450.99 285.81 451.81 289.72 452.7 293.91 453.76 297.86 454.87 301.96 456.13 305.63 457.36 309.62 458.82 313.38 460.3 317.07 461.87 320.85 463.61 324.27 465.29 327.7 467.08 331.39 469.16 334.66 471.13 337.91 473.21 341.13 475.41 344 477.5 346.98 479.8 349.83 482.15 352.77 484.73 355.28 487.08 358.05 489.85 360.44 492.41 362.7 494.99 365.02 497.83 367.22 500.74 369.11 503.43 371 506.33 372.73 509.2 374.47 512.36 375.86 515.13 377.33 518.35 378.58 521.4 379.69 524.45 380.68 527.53 381.55 530.7 382.33 534.07 382.92 537.18 383.37 540.27 383.72 543.57 383.92 546.87 383.99 549.99"/>
</g>
</g>
<g clip-path="url(#clip_9)">
<path transform="matrix(1,0,0,-1,0,792)" stroke-width="1" stroke-linecap="butt" stroke-linejoin="round" fill="none" stroke="#000000" d="M69 549.99H428.98"/>
<g clip-path="url(#clip_10)">
</g>
</g>
<g clip-path="url(#clip_11)">
<path transform="matrix(1,0,0,-1,0,792)" stroke-width="1" stroke-linecap="square" stroke-miterlimit="10" stroke-linejoin="miter" fill="none" stroke="#000000" d="M69 549.99V546.23"/>
<g clip-path="url(#clip_12)">
<g clip-path="url(#clip_13)">
<g clip-path="url(#clip_14)">
<g clip-path="url(#clip_15)">
<g clip-path="url(#clip_16)">
<text xml:space="preserve" transform="matrix(1 0 -0 1 0 792)" font-size="12" font-family="ESSTIXFive"><tspan y="-534" x="60">K</tspan></text>
</g>
</g>
</g>
</g>
</g>
<path transform="matrix(1,0,0,-1,0,792)" d="M77.58 536.94V536.09H76.52V534H75.55V536.09H72.19V536.84L75.88 542.11H76.52V536.94H77.58ZM75.55 536.94V540.88L72.77 536.94H75.55Z"/>
<path transform="matrix(1,0,0,-1,0,792)" stroke-width="1" stroke-linecap="square" stroke-miterlimit="10" stroke-linejoin="miter" fill="none" stroke="#000000" d="M114 549.99V546.23"/>
<g clip-path="url(#clip_17)">
<g clip-path="url(#clip_18)">
<g clip-path="url(#clip_19)">
<g clip-path="url(#clip_20)">
<g clip-path="url(#clip_21)">
<text xml:space="preserve" transform="matrix(1 0 -0 1 0 792)" font-size="12" font-family="ESSTIXFive"><tspan y="-534" x="104">K</tspan></text>
</g>
</g>
</g>
</g>
</g>
<path transform="matrix(1,0,0,-1,0,792)" d="M116.61 540.44C116.61 540.44 116.95 541.23 117.47 541.67 117.47 541.67 117.98 542.11 118.77 542.11 118.77 542.11 119.72 542.11 120.22 541.48 120.22 541.48 120.61 541.03 120.61 540.5 120.61 540.5 120.61 539.63 119.52 538.7 119.52 538.7 120.25 538.42 120.63 537.89 120.63 537.89 121 537.36 121 536.63 121 536.63 121 535.59 120.34 534.84 120.34 534.84 119.5 533.86 117.88 533.86 117.88 533.86 117.06 533.86 116.77 534.06 116.77 534.06 116.48 534.27 116.48 534.48 116.48 534.48 116.48 534.66 116.63 534.78 116.63 534.78 116.77 534.92 116.95 534.92 116.95 534.92 117.11 534.92 117.25 534.88 117.25 534.88 117.36 534.84 117.7 534.66 117.7 534.66 118.06 534.47 118.19 534.44 118.19 534.44 118.41 534.38 118.66 534.38 118.66 534.38 119.25 534.38 119.69 534.83 119.69 534.83 120.14 535.3 120.14 535.92 120.14 535.92 120.14 536.39 119.94 536.83 119.94 536.83 119.78 537.16 119.59 537.33 119.59 537.33 119.34 537.56 118.91 537.75 118.91 537.75 118.47 537.94 118.02 537.94H117.83V538.13C117.83 538.13 118.28 538.17 118.75 538.45 118.75 538.45 119.22 538.73 119.42 539.11 119.42 539.11 119.64 539.5 119.64 539.97 119.64 539.97 119.64 540.56 119.27 540.94 119.27 540.94 118.89 541.31 118.33 541.31 118.33 541.31 117.41 541.31 116.8 540.34L116.61 540.44Z"/>
<path transform="matrix(1,0,0,-1,0,792)" stroke-width="1" stroke-linecap="square" stroke-miterlimit="10" stroke-linejoin="miter" fill="none" stroke="#000000" d="M159 549.99V546.23"/>
<g clip-path="url(#clip_22)">
<g clip-path="url(#clip_23)">
<g clip-path="url(#clip_24)">
<g clip-path="url(#clip_25)">
<g clip-path="url(#clip_26)">
<text xml:space="preserve" transform="matrix(1 0 -0 1 0 792)" font-size="12" font-family="ESSTIXFive"><tspan y="-534" x="149">K</tspan></text>
</g>
</g>
</g>
</g>
</g>
<path transform="matrix(1,0,0,-1,0,792)" d="M166.5 535.53 165.95 534H161.27V534.22C161.27 534.22 163.33 536.11 164.17 537.3 164.17 537.3 165.02 538.5 165.02 539.48 165.02 539.48 165.02 540.23 164.55 540.72 164.55 540.72 164.09 541.22 163.44 541.22 163.44 541.22 162.86 541.22 162.39 540.88 162.39 540.88 161.92 540.53 161.7 539.86H161.48C161.48 539.86 161.64 540.95 162.23 541.53 162.23 541.53 162.84 542.11 163.75 542.11 163.75 542.11 164.72 542.11 165.36 541.48 165.36 541.48 166.02 540.88 166.02 540.03 166.02 540.03 166.02 539.42 165.73 538.81 165.73 538.81 165.3 537.88 164.33 536.81 164.33 536.81 162.88 535.22 162.5 534.89H164.58C164.58 534.89 165.22 534.89 165.47 534.94 165.47 534.94 165.72 534.98 165.92 535.13 165.92 535.13 166.14 535.27 166.28 535.53H166.5Z"/>
<path transform="matrix(1,0,0,-1,0,792)" stroke-width="1" stroke-linecap="square" stroke-miterlimit="10" stroke-linejoin="miter" fill="none" stroke="#000000" d="M203.99 549.99V546.23"/>
<g clip-path="url(#clip_27)">
<g clip-path="url(#clip_28)">
<g clip-path="url(#clip_29)">
<g clip-path="url(#clip_30)">
<g clip-path="url(#clip_31)">
<text xml:space="preserve" transform="matrix(1 0 -0 1 0 792)" font-size="12" font-family="ESSTIXFive"><tspan y="-534" x="194">K</tspan></text>
</g>
</g>
</g>
</g>
</g>
<path transform="matrix(1,0,0,-1,0,792)" d="M207.41 541.17 209.34 542.11H209.53V535.41C209.53 535.41 209.53 534.73 209.58 534.56 209.58 534.56 209.64 534.41 209.81 534.31 209.81 534.31 210 534.23 210.53 534.22V534H207.55V534.22C207.55 534.22 208.11 534.23 208.27 534.31 208.27 534.31 208.44 534.41 208.5 534.55 208.5 534.55 208.56 534.69 208.56 535.41V539.69C208.56 539.69 208.56 540.56 208.52 540.8 208.52 540.8 208.47 540.98 208.36 541.08 208.36 541.08 208.25 541.17 208.09 541.17 208.09 541.17 207.88 541.17 207.5 540.98L207.41 541.17Z"/>
<path transform="matrix(1,0,0,-1,0,792)" stroke-width="1" stroke-linecap="square" stroke-miterlimit="10" stroke-linejoin="miter" fill="none" stroke="#000000" d="M248.99 549.99V546.23"/>
<path transform="matrix(1,0,0,-1,0,792)" d="M239.44 538.92C239.44 538.92 239.44 540.28 239.84 541.27 239.84 541.27 240.25 542.25 240.94 542.73 240.94 542.73 241.47 543.11 242.03 543.11 242.03 543.11 242.94 543.11 243.67 542.17 243.67 542.17 244.58 541.03 244.58 539.05 244.58 539.05 244.58 537.67 244.17 536.7 244.17 536.7 243.78 535.73 243.16 535.3 243.16 535.3 242.55 534.86 241.97 534.86 241.97 534.86 240.83 534.86 240.08 536.2 240.08 536.2 239.44 537.33 239.44 538.92ZM240.58 538.78C240.58 538.78 240.58 537.14 240.98 536.11 240.98 536.11 241.33 535.23 241.98 535.23 241.98 535.23 242.3 535.23 242.64 535.52 242.64 535.52 242.98 535.8 243.16 536.47 243.16 536.47 243.42 537.47 243.42 539.31 243.42 539.31 243.42 540.67 243.14 541.58 243.14 541.58 242.94 542.25 242.59 542.53 242.59 542.53 242.36 542.72 242.02 542.72 242.02 542.72 241.63 542.72 241.31 542.36 241.31 542.36 240.89 541.88 240.73 540.83 240.73 540.83 240.58 539.8 240.58 538.78Z"/>
<path transform="matrix(1,0,0,-1,0,792)" stroke-width="1" stroke-linecap="square" stroke-miterlimit="10" stroke-linejoin="miter" fill="none" stroke="#000000" d="M293.99 549.99V546.23"/>
<path transform="matrix(1,0,0,-1,0,792)" d="M291.41 541.17 293.34 542.11H293.53V535.41C293.53 535.41 293.53 534.73 293.58 534.56 293.58 534.56 293.64 534.41 293.81 534.31 293.81 534.31 294 534.23 294.53 534.22V534H291.55V534.22C291.55 534.22 292.11 534.23 292.27 534.31 292.27 534.31 292.44 534.41 292.5 534.55 292.5 534.55 292.56 534.69 292.56 535.41V539.69C292.56 539.69 292.56 540.56 292.52 540.8 292.52 540.8 292.47 540.98 292.36 541.08 292.36 541.08 292.25 541.17 292.09 541.17 292.09 541.17 291.88 541.17 291.5 540.98L291.41 541.17Z"/>
<path transform="matrix(1,0,0,-1,0,792)" stroke-width="1" stroke-linecap="square" stroke-miterlimit="10" stroke-linejoin="miter" fill="none" stroke="#000000" d="M338.99 549.99V546.23"/>
<path transform="matrix(1,0,0,-1,0,792)" d="M340.5 535.53 339.95 534H335.27V534.22C335.27 534.22 337.33 536.11 338.17 537.3 338.17 537.3 339.02 538.5 339.02 539.48 339.02 539.48 339.02 540.23 338.55 540.72 338.55 540.72 338.09 541.22 337.44 541.22 337.44 541.22 336.86 541.22 336.39 540.88 336.39 540.88 335.92 540.53 335.7 539.86H335.48C335.48 539.86 335.64 540.95 336.23 541.53 336.23 541.53 336.84 542.11 337.75 542.11 337.75 542.11 338.72 542.11 339.36 541.48 339.36 541.48 340.02 540.88 340.02 540.03 340.02 540.03 340.02 539.42 339.73 538.81 339.73 538.81 339.3 537.88 338.33 536.81 338.33 536.81 336.88 535.22 336.5 534.89H338.58C338.58 534.89 339.22 534.89 339.47 534.94 339.47 534.94 339.72 534.98 339.92 535.13 339.92 535.13 340.14 535.27 340.28 535.53H340.5Z"/>
<path transform="matrix(1,0,0,-1,0,792)" stroke-width="1" stroke-linecap="square" stroke-miterlimit="10" stroke-linejoin="miter" fill="none" stroke="#000000" d="M383.99 549.99V546.23"/>
<path transform="matrix(1,0,0,-1,0,792)" d="M380.61 540.44C380.61 540.44 380.95 541.23 381.47 541.67 381.47 541.67 381.98 542.11 382.77 542.11 382.77 542.11 383.72 542.11 384.22 541.48 384.22 541.48 384.61 541.03 384.61 540.5 384.61 540.5 384.61 539.63 383.52 538.7 383.52 538.7 384.25 538.42 384.63 537.89 384.63 537.89 385 537.36 385 536.63 385 536.63 385 535.59 384.34 534.84 384.34 534.84 383.5 533.86 381.88 533.86 381.88 533.86 381.06 533.86 380.77 534.06 380.77 534.06 380.48 534.27 380.48 534.48 380.48 534.48 380.48 534.66 380.63 534.78 380.63 534.78 380.77 534.92 380.95 534.92 380.95 534.92 381.11 534.92 381.25 534.88 381.25 534.88 381.36 534.84 381.7 534.66 381.7 534.66 382.06 534.47 382.19 534.44 382.19 534.44 382.41 534.38 382.66 534.38 382.66 534.38 383.25 534.38 383.69 534.83 383.69 534.83 384.14 535.3 384.14 535.92 384.14 535.92 384.14 536.39 383.94 536.83 383.94 536.83 383.78 537.16 383.59 537.33 383.59 537.33 383.34 537.56 382.91 537.75 382.91 537.75 382.47 537.94 382.02 537.94H381.83V538.13C381.83 538.13 382.28 538.17 382.75 538.45 382.75 538.45 383.22 538.73 383.42 539.11 383.42 539.11 383.64 539.5 383.64 539.97 383.64 539.97 383.64 540.56 383.27 540.94 383.27 540.94 382.89 541.31 382.33 541.31 382.33 541.31 381.41 541.31 380.8 540.34L380.61 540.44Z"/>
<path transform="matrix(1,0,0,-1,0,792)" stroke-width="1" stroke-linecap="square" stroke-miterlimit="10" stroke-linejoin="miter" fill="none" stroke="#000000" d="M428.98 549.99V546.23"/>
<path transform="matrix(1,0,0,-1,0,792)" d="M430.58 536.94V536.09H429.52V534H428.55V536.09H425.19V536.84L428.88 542.11H429.52V536.94H430.58ZM428.55 536.94V540.88L425.77 536.94H428.55Z"/>
<path transform="matrix(1,0,0,-1,0,792)" stroke-width="1" stroke-linecap="square" stroke-miterlimit="10" stroke-linejoin="miter" fill="none" stroke="#000000" d="M91.5 549.99V548.11"/>
<path transform="matrix(1,0,0,-1,0,792)" stroke-width="1" stroke-linecap="square" stroke-miterlimit="10" stroke-linejoin="miter" fill="none" stroke="#000000" d="M136.5 549.99V548.11"/>
<path transform="matrix(1,0,0,-1,0,792)" stroke-width="1" stroke-linecap="square" stroke-miterlimit="10" stroke-linejoin="miter" fill="none" stroke="#000000" d="M181.49 549.99V548.11"/>
<path transform="matrix(1,0,0,-1,0,792)" stroke-width="1" stroke-linecap="square" stroke-miterlimit="10" stroke-linejoin="miter" fill="none" stroke="#000000" d="M226.49 549.99V548.11"/>
<path transform="matrix(1,0,0,-1,0,792)" stroke-width="1" stroke-linecap="square" stroke-miterlimit="10" stroke-linejoin="miter" fill="none" stroke="#000000" d="M271.49 549.99V548.11"/>
<path transform="matrix(1,0,0,-1,0,792)" stroke-width="1" stroke-linecap="square" stroke-miterlimit="10" stroke-linejoin="miter" fill="none" stroke="#000000" d="M316.49 549.99V548.11"/>
<path transform="matrix(1,0,0,-1,0,792)" stroke-width="1" stroke-linecap="square" stroke-miterlimit="10" stroke-linejoin="miter" fill="none" stroke="#000000" d="M361.49 549.99V548.11"/>
<path transform="matrix(1,0,0,-1,0,792)" stroke-width="1" stroke-linecap="square" stroke-miterlimit="10" stroke-linejoin="miter" fill="none" stroke="#000000" d="M406.48 549.99V548.11"/>
<path transform="matrix(1,0,0,-1,0,792)" stroke-width="1" stroke-linecap="butt" stroke-linejoin="round" fill="none" stroke="#000000" d="M248.99 370V729.98"/>
<g clip-path="url(#clip_32)">
</g>
</g>
<g clip-path="url(#clip_33)">
<path transform="matrix(1,0,0,-1,0,792)" stroke-width="1" stroke-linecap="square" stroke-miterlimit="10" stroke-linejoin="miter" fill="none" stroke="#000000" d="M248.99 370H245.23"/>
<g clip-path="url(#clip_34)">
<g clip-path="url(#clip_35)">
<g clip-path="url(#clip_36)">
<g clip-path="url(#clip_37)">
<g clip-path="url(#clip_38)">
<text xml:space="preserve" transform="matrix(1 0 -0 1 0 792)" font-size="12" font-family="ESSTIXFive"><tspan y="-366" x="224">K</tspan></text>
</g>
</g>
</g>
</g>
</g>
<path transform="matrix(1,0,0,-1,0,792)" d="M241.58 368.94V368.09H240.52V366H239.55V368.09H236.19V368.84L239.88 374.11H240.52V368.94H241.58ZM239.55 368.94V372.88L236.77 368.94H239.55Z"/>
<path transform="matrix(1,0,0,-1,0,792)" stroke-width="1" stroke-linecap="square" stroke-miterlimit="10" stroke-linejoin="miter" fill="none" stroke="#000000" d="M248.99 415H245.23"/>
<g clip-path="url(#clip_39)">
<g clip-path="url(#clip_40)">
<g clip-path="url(#clip_41)">
<g clip-path="url(#clip_42)">
<g clip-path="url(#clip_43)">
<text xml:space="preserve" transform="matrix(1 0 -0 1 0 792)" font-size="12" font-family="ESSTIXFive"><tspan y="-411" x="224">K</tspan></text>
</g>
</g>
</g>
</g>
</g>
<path transform="matrix(1,0,0,-1,0,792)" d="M236.61 417.44C236.61 417.44 236.95 418.23 237.47 418.67 237.47 418.67 237.98 419.11 238.77 419.11 238.77 419.11 239.72 419.11 240.22 418.48 240.22 418.48 240.61 418.03 240.61 417.5 240.61 417.5 240.61 416.63 239.52 415.7 239.52 415.7 240.25 415.42 240.63 414.89 240.63 414.89 241 414.36 241 413.63 241 413.63 241 412.59 240.34 411.84 240.34 411.84 239.5 410.86 237.88 410.86 237.88 410.86 237.06 410.86 236.77 411.06 236.77 411.06 236.48 411.27 236.48 411.48 236.48 411.48 236.48 411.66 236.63 411.78 236.63 411.78 236.77 411.92 236.95 411.92 236.95 411.92 237.11 411.92 237.25 411.88 237.25 411.88 237.36 411.84 237.7 411.66 237.7 411.66 238.06 411.47 238.19 411.44 238.19 411.44 238.41 411.38 238.66 411.38 238.66 411.38 239.25 411.38 239.69 411.83 239.69 411.83 240.14 412.3 240.14 412.92 240.14 412.92 240.14 413.39 239.94 413.83 239.94 413.83 239.78 414.16 239.59 414.33 239.59 414.33 239.34 414.56 238.91 414.75 238.91 414.75 238.47 414.94 238.02 414.94H237.83V415.13C237.83 415.13 238.28 415.17 238.75 415.45 238.75 415.45 239.22 415.73 239.42 416.11 239.42 416.11 239.64 416.5 239.64 416.97 239.64 416.97 239.64 417.56 239.27 417.94 239.27 417.94 238.89 418.31 238.33 418.31 238.33 418.31 237.41 418.31 236.8 417.34L236.61 417.44Z"/>
<path transform="matrix(1,0,0,-1,0,792)" stroke-width="1" stroke-linecap="square" stroke-miterlimit="10" stroke-linejoin="miter" fill="none" stroke="#000000" d="M248.99 460H245.23"/>
<g clip-path="url(#clip_44)">
<g clip-path="url(#clip_45)">
<g clip-path="url(#clip_46)">
<g clip-path="url(#clip_47)">
<g clip-path="url(#clip_48)">
<text xml:space="preserve" transform="matrix(1 0 -0 1 0 792)" font-size="12" font-family="ESSTIXFive"><tspan y="-456" x="224">K</tspan></text>
</g>
</g>
</g>
</g>
</g>
<path transform="matrix(1,0,0,-1,0,792)" d="M241.5 457.53 240.95 456H236.27V456.22C236.27 456.22 238.33 458.11 239.17 459.3 239.17 459.3 240.02 460.5 240.02 461.48 240.02 461.48 240.02 462.23 239.55 462.72 239.55 462.72 239.09 463.22 238.44 463.22 238.44 463.22 237.86 463.22 237.39 462.88 237.39 462.88 236.92 462.53 236.7 461.86H236.48C236.48 461.86 236.64 462.95 237.23 463.53 237.23 463.53 237.84 464.11 238.75 464.11 238.75 464.11 239.72 464.11 240.36 463.48 240.36 463.48 241.02 462.88 241.02 462.03 241.02 462.03 241.02 461.42 240.73 460.81 240.73 460.81 240.3 459.88 239.33 458.81 239.33 458.81 237.88 457.22 237.5 456.89H239.58C239.58 456.89 240.22 456.89 240.47 456.94 240.47 456.94 240.72 456.98 240.92 457.13 240.92 457.13 241.14 457.27 241.28 457.53H241.5Z"/>
<path transform="matrix(1,0,0,-1,0,792)" stroke-width="1" stroke-linecap="square" stroke-miterlimit="10" stroke-linejoin="miter" fill="none" stroke="#000000" d="M248.99 504.99H245.23"/>
<g clip-path="url(#clip_49)">
<g clip-path="url(#clip_50)">
<g clip-path="url(#clip_51)">
<g clip-path="url(#clip_52)">
<g clip-path="url(#clip_53)">
<text xml:space="preserve" transform="matrix(1 0 -0 1 0 792)" font-size="12" font-family="ESSTIXFive"><tspan y="-501" x="224">K</tspan></text>
</g>
</g>
</g>
</g>
</g>
<path transform="matrix(1,0,0,-1,0,792)" d="M237.41 508.17 239.34 509.11H239.53V502.41C239.53 502.41 239.53 501.73 239.58 501.56 239.58 501.56 239.64 501.41 239.81 501.31 239.81 501.31 240 501.23 240.53 501.22V501H237.55V501.22C237.55 501.22 238.11 501.23 238.27 501.31 238.27 501.31 238.44 501.41 238.5 501.55 238.5 501.55 238.56 501.69 238.56 502.41V506.69C238.56 506.69 238.56 507.56 238.52 507.8 238.52 507.8 238.47 507.98 238.36 508.08 238.36 508.08 238.25 508.17 238.09 508.17 238.09 508.17 237.88 508.17 237.5 507.98L237.41 508.17Z"/>
<path transform="matrix(1,0,0,-1,0,792)" stroke-width="1" stroke-linecap="square" stroke-miterlimit="10" stroke-linejoin="miter" fill="none" stroke="#000000" d="M248.99 549.99H245.23"/>
<path transform="matrix(1,0,0,-1,0,792)" stroke-width="1" stroke-linecap="square" stroke-miterlimit="10" stroke-linejoin="miter" fill="none" stroke="#000000" d="M248.99 594.99H245.23"/>
<path transform="matrix(1,0,0,-1,0,792)" d="M237.41 598.17 239.34 599.11H239.53V592.41C239.53 592.41 239.53 591.73 239.58 591.56 239.58 591.56 239.64 591.41 239.81 591.31 239.81 591.31 240 591.23 240.53 591.22V591H237.55V591.22C237.55 591.22 238.11 591.23 238.27 591.31 238.27 591.31 238.44 591.41 238.5 591.55 238.5 591.55 238.56 591.69 238.56 592.41V596.69C238.56 596.69 238.56 597.56 238.52 597.8 238.52 597.8 238.47 597.98 238.36 598.08 238.36 598.08 238.25 598.17 238.09 598.17 238.09 598.17 237.88 598.17 237.5 597.98L237.41 598.17Z"/>
<path transform="matrix(1,0,0,-1,0,792)" stroke-width="1" stroke-linecap="square" stroke-miterlimit="10" stroke-linejoin="miter" fill="none" stroke="#000000" d="M248.99 639.99H245.23"/>
<path transform="matrix(1,0,0,-1,0,792)" d="M241.5 637.53 240.95 636H236.27V636.22C236.27 636.22 238.33 638.11 239.17 639.3 239.17 639.3 240.02 640.5 240.02 641.48 240.02 641.48 240.02 642.23 239.55 642.72 239.55 642.72 239.09 643.22 238.44 643.22 238.44 643.22 237.86 643.22 237.39 642.88 237.39 642.88 236.92 642.53 236.7 641.86H236.48C236.48 641.86 236.64 642.95 237.23 643.53 237.23 643.53 237.84 644.11 238.75 644.11 238.75 644.11 239.72 644.11 240.36 643.48 240.36 643.48 241.02 642.88 241.02 642.03 241.02 642.03 241.02 641.42 240.73 640.81 240.73 640.81 240.3 639.88 239.33 638.81 239.33 638.81 237.88 637.22 237.5 636.89H239.58C239.58 636.89 240.22 636.89 240.47 636.94 240.47 636.94 240.72 636.98 240.92 637.13 240.92 637.13 241.14 637.27 241.28 637.53H241.5Z"/>
<path transform="matrix(1,0,0,-1,0,792)" stroke-width="1" stroke-linecap="square" stroke-miterlimit="10" stroke-linejoin="miter" fill="none" stroke="#000000" d="M248.99 684.99H245.23"/>
<path transform="matrix(1,0,0,-1,0,792)" d="M236.61 687.44C236.61 687.44 236.95 688.23 237.47 688.67 237.47 688.67 237.98 689.11 238.77 689.11 238.77 689.11 239.72 689.11 240.22 688.48 240.22 688.48 240.61 688.03 240.61 687.5 240.61 687.5 240.61 686.63 239.52 685.7 239.52 685.7 240.25 685.42 240.63 684.89 240.63 684.89 241 684.36 241 683.63 241 683.63 241 682.59 240.34 681.84 240.34 681.84 239.5 680.86 237.88 680.86 237.88 680.86 237.06 680.86 236.77 681.06 236.77 681.06 236.48 681.27 236.48 681.48 236.48 681.48 236.48 681.66 236.63 681.78 236.63 681.78 236.77 681.92 236.95 681.92 236.95 681.92 237.11 681.92 237.25 681.88 237.25 681.88 237.36 681.84 237.7 681.66 237.7 681.66 238.06 681.47 238.19 681.44 238.19 681.44 238.41 681.38 238.66 681.38 238.66 681.38 239.25 681.38 239.69 681.83 239.69 681.83 240.14 682.3 240.14 682.92 240.14 682.92 240.14 683.39 239.94 683.83 239.94 683.83 239.78 684.16 239.59 684.33 239.59 684.33 239.34 684.56 238.91 684.75 238.91 684.75 238.47 684.94 238.02 684.94H237.83V685.13C237.83 685.13 238.28 685.17 238.75 685.45 238.75 685.45 239.22 685.73 239.42 686.11 239.42 686.11 239.64 686.5 239.64 686.97 239.64 686.97 239.64 687.56 239.27 687.94 239.27 687.94 238.89 688.31 238.33 688.31 238.33 688.31 237.41 688.31 236.8 687.34L236.61 687.44Z"/>
<path transform="matrix(1,0,0,-1,0,792)" stroke-width="1" stroke-linecap="square" stroke-miterlimit="10" stroke-linejoin="miter" fill="none" stroke="#000000" d="M248.99 729.98H245.23"/>
<path transform="matrix(1,0,0,-1,0,792)" d="M241.58 728.94V728.09H240.52V726H239.55V728.09H236.19V728.84L239.88 734.11H240.52V728.94H241.58ZM239.55 728.94V732.88L236.77 728.94H239.55Z"/>
<path transform="matrix(1,0,0,-1,0,792)" stroke-width="1" stroke-linecap="square" stroke-miterlimit="10" stroke-linejoin="miter" fill="none" stroke="#000000" d="M248.99 392.5H247.11"/>
<path transform="matrix(1,0,0,-1,0,792)" stroke-width="1" stroke-linecap="square" stroke-miterlimit="10" stroke-linejoin="miter" fill="none" stroke="#000000" d="M248.99 437.5H247.11"/>
<path transform="matrix(1,0,0,-1,0,792)" stroke-width="1" stroke-linecap="square" stroke-miterlimit="10" stroke-linejoin="miter" fill="none" stroke="#000000" d="M248.99 482.49H247.11"/>
<path transform="matrix(1,0,0,-1,0,792)" stroke-width="1" stroke-linecap="square" stroke-miterlimit="10" stroke-linejoin="miter" fill="none" stroke="#000000" d="M248.99 527.49H247.11"/>
<path transform="matrix(1,0,0,-1,0,792)" stroke-width="1" stroke-linecap="square" stroke-miterlimit="10" stroke-linejoin="miter" fill="none" stroke="#000000" d="M248.99 572.49H247.11"/>
<path transform="matrix(1,0,0,-1,0,792)" stroke-width="1" stroke-linecap="square" stroke-miterlimit="10" stroke-linejoin="miter" fill="none" stroke="#000000" d="M248.99 617.49H247.11"/>
<path transform="matrix(1,0,0,-1,0,792)" stroke-width="1" stroke-linecap="square" stroke-miterlimit="10" stroke-linejoin="miter" fill="none" stroke="#000000" d="M248.99 662.49H247.11"/>
<path transform="matrix(1,0,0,-1,0,792)" stroke-width="1" stroke-linecap="square" stroke-miterlimit="10" stroke-linejoin="miter" fill="none" stroke="#000000" d="M248.99 707.48H247.11"/>
</g>
<g clip-path="url(#clip_54)">
</g>
<g clip-path="url(#clip_55)">
</g>
</g>
</g>
</svg>
