<?xml version="1.0" encoding="UTF-8" standalone="no"?>
<svg
   xmlns:dc="http://purl.org/dc/elements/1.1/"
   xmlns:cc="http://creativecommons.org/ns#"
   xmlns:rdf="http://www.w3.org/1999/02/22-rdf-syntax-ns#"
   xmlns:svg="http://www.w3.org/2000/svg"
   xmlns="http://www.w3.org/2000/svg"
   viewBox="0 0 502.34268 230.83333"
   height="230.83333"
   width="502.34268"
   xml:space="preserve"
   id="svg2"
   version="1.1"><metadata
     id="metadata8"><rdf:RDF><cc:Work
         rdf:about=""><dc:format>image/svg+xml</dc:format><dc:type
           rdf:resource="http://purl.org/dc/dcmitype/StillImage" /></cc:Work></rdf:RDF></metadata><defs
     id="defs6" /><g
     transform="matrix(1.3333333,0,0,-1.3333333,0,230.83333)"
     id="g10"><g
       transform="translate(5.869,5.869)"
       id="g12"><g
         id="g14"><g
           id="g16" /><g
           id="g18"><g
             id="g20" /><g
             id="g22" /><g
             id="g24"><g
               id="g26" /></g><g
             id="g28" /><g
             id="g30" /><g
             id="g32" /><g
             id="g34" /><g
             transform="translate(-0.2,-0.2)"
             id="g36"><g
               transform="translate(0.2,0.2)"
               id="g38"><g
                 id="g40"><g
                   id="g42" /><g
                   id="g44"><g
                     id="g46"><g
                       id="g48"><g
                         id="g50"><path
                           id="path52"
                           style="fill:none;stroke:#808080;stroke-width:0.19925;stroke-linecap:butt;stroke-linejoin:miter;stroke-miterlimit:10;stroke-dasharray:none;stroke-opacity:1"
                           d="M 62.76288,78.56926 V 82.821" /></g></g><g
                       id="g54"><g
                         id="g56" /></g><path
                       id="path58"
                       style="fill:none;stroke:#000000;stroke-width:0.3985;stroke-linecap:butt;stroke-linejoin:miter;stroke-miterlimit:10;stroke-dasharray:none;stroke-opacity:1"
                       d="M 0,80.69513 H 159.39775" /><g
                       transform="translate(159.39775,80.69513)"
                       id="g60"><g
                         id="g62"><path
                           id="path64"
                           style="fill:#000000;fill-opacity:1;fill-rule:nonzero;stroke:none"
                           d="M 1.99252,0 -1.19551,1.59401 0,0 -1.19551,-1.59401" /></g></g><path
                       id="path66"
                       style="fill:none;stroke:#000000;stroke-width:0.3985;stroke-linecap:butt;stroke-linejoin:miter;stroke-miterlimit:10;stroke-dasharray:none;stroke-opacity:1"
                       d="M 80.69513,0 V 159.39775" /><g
                       transform="rotate(90,-39.35131,120.04644)"
                       id="g68"><g
                         id="g70"><path
                           id="path72"
                           style="fill:#000000;fill-opacity:1;fill-rule:nonzero;stroke:none"
                           d="M 1.99252,0 -1.19551,1.59401 0,0 -1.19551,-1.59401" /></g></g><g
                       id="g74"><g
                         transform="translate(46.436,69.689)"
                         id="g76"><g
                           id="g78"><g
                             transform="translate(-52.305,-75.558)"
                             id="g80"><text
                               id="text84"
                               style="font-variant:normal;font-weight:normal;font-size:11.9552002px;font-family:CMSY10;-inkscape-font-specification:CMSY10;writing-mode:lr-tb;fill:#000000;fill-opacity:1;fill-rule:nonzero;stroke:none"
                               transform="matrix(1,0,0,-1,52.305,75.558)"><tspan
                                 id="tspan82"
                                 y="0"
                                 x="0">−</tspan></text>
<text
                               id="text88"
                               style="font-variant:normal;font-weight:normal;font-size:11.9552002px;font-family:CMR12;-inkscape-font-specification:CMR12;writing-mode:lr-tb;fill:#000000;fill-opacity:1;fill-rule:nonzero;stroke:none"
                               transform="matrix(1,0,0,-1,61.603,75.558)"><tspan
                                 id="tspan86"
                                 y="0"
                                 x="0">1</tspan></text>
<g
                               transform="translate(52.305,75.558)"
                               id="g90" /></g></g><g
                           transform="translate(-46.436,-69.689)"
                           id="g92" /></g></g><g
                       id="g94"><path
                         id="path96"
                         style="fill:none;stroke:#009b77;stroke-width:0.79701;stroke-linecap:round;stroke-linejoin:miter;stroke-miterlimit:10;stroke-dasharray:none;stroke-opacity:1"
                         d="m 98.62738,80.69513 -0.0027,0.31309 -0.0083,0.31275 -0.01363,0.31273 -0.01919,0.31238 -0.02457,0.31202 -0.02994,0.3113 -0.03532,0.31112 -0.04108,0.31041 -0.04606,0.30933 -0.05149,0.30881 -0.0572,0.30771 -0.06241,0.30682 -0.06778,0.30537 -0.07298,0.30414 -0.07836,0.30325 -0.08373,0.30144 -0.08897,0.30017 -0.09378,0.29857 -0.09933,0.29697 -0.10455,0.29498 -0.10976,0.29301 -0.11458,0.29105 -0.11996,0.28925 -0.12482,0.28709 -0.12964,0.28476 -0.13486,0.28244 -0.13969,0.28027 -0.14435,0.27741 -0.14938,0.27527 -0.15404,0.27221 -0.15906,0.26989 -0.16336,0.26664 -0.16819,0.26415 -0.1727,0.26073 -0.17734,0.25804 -0.18167,0.25465 -0.18595,0.25175 -0.19079,0.24819 -0.19475,0.24495 -0.19923,0.24156 -0.20317,0.23815 -0.20765,0.23419 -0.21125,0.23079 -0.21518,0.227 -0.21967,0.2231 -0.2231,0.21967 -0.227,0.21518 -0.23079,0.21125 -0.23419,0.20765 -0.23815,0.20317 -0.24156,0.19923 -0.24495,0.19475 -0.24819,0.19079 -0.25175,0.18595 -0.25465,0.18167 -0.25804,0.17734 -0.26073,0.1727 -0.26415,0.16819 -0.26664,0.16336 -0.26989,0.15906 -0.27221,0.15404 -0.27527,0.14938 -0.27741,0.14435 -0.28027,0.13969 -0.28244,0.13486 -0.28476,0.12964 -0.28709,0.12482 -0.28925,0.11996 -0.29105,0.11458 -0.29301,0.10976 -0.29498,0.10455 -0.29697,0.09933 -0.29857,0.09378 -0.30017,0.08897 -0.30144,0.08373 -0.30325,0.07836 -0.30414,0.07298 -0.30537,0.06778 -0.30682,0.06241 -0.30771,0.0572 -0.30881,0.05149 -0.30933,0.04606 -0.31041,0.04108 -0.31112,0.03532 -0.3113,0.02994 -0.31202,0.02457 -0.31238,0.01919 -0.31273,0.01363 -0.31275,0.0083 -0.31309,0.0027 -0.3131,-0.0027 -0.31274,-0.0083 -0.31274,-0.01363 -0.31237,-0.01919 -0.31202,-0.02457 -0.31131,-0.02994 -0.31111,-0.03532 -0.31041,-0.04108 -0.30935,-0.04606 -0.30879,-0.05149 -0.30754,-0.05756 -0.30664,-0.06239 -0.30539,-0.06779 -0.3043,-0.0728 -0.30342,-0.07819 -0.30126,-0.0841 -0.30019,-0.08896 -0.2984,-0.09378 L 74.8571,97.65025 74.56175,97.54607 74.2691,97.43596 73.97787,97.32137 73.68863,97.20158 73.40173,97.07677 73.1166,96.94731 72.83452,96.8121 72.55424,96.67258 72.27682,96.52806 72.00156,96.37868 71.729,96.22499 71.45947,96.06577 71.19283,95.90239 70.92868,95.73401 70.66794,95.5615 70.40955,95.38434 70.15509,95.20232 69.90349,95.01637 69.65514,94.82574 69.41035,94.63081 69.16844,94.43195 68.93068,94.22824 68.69647,94.02095 68.4655,93.8097 68.23866,93.59433 68.01523,93.37503 67.79591,93.1516 67.58055,92.92474 67.36931,92.69379 67.16202,92.45958 66.95831,92.2218 66.75943,91.9799 66.56451,91.7351 66.37389,91.48676 66.18793,91.23517 66.00592,90.9807 65.82875,90.72232 65.65625,90.46156 65.48787,90.19743 65.3245,89.93077 65.16527,89.66125 65.01157,89.38869 64.8622,89.11343 64.71767,88.83601 64.57816,88.55573 64.44295,88.27365 64.31348,87.98853 64.18867,87.70161 64.06888,87.41237 63.95428,87.12114 63.84418,86.82849 63.74,86.53316 63.64066,86.23619 63.54688,85.93779 63.45793,85.63762 63.37381,85.33636 63.29564,85.03294 63.22282,84.72862 63.15504,84.42323 63.09264,84.1166 63.03508,83.80907 62.98398,83.50009 62.93771,83.19058 62.89664,82.88036 62.8615,82.56905 62.83119,82.2581 62.80698,81.9459 62.7878,81.63335 62.77417,81.3206 l -0.0083,-0.31273 -0.003,-0.31274 0.003,-0.31274 0.0083,-0.31275 0.01363,-0.31273 0.01918,-0.31256 0.02421,-0.31219 0.03031,-0.31096 0.03514,-0.31131 0.04107,-0.31023 0.04627,-0.30951 0.0511,-0.30896 0.05756,-0.30754 0.0624,-0.30664 0.06778,-0.30539 0.07282,-0.3043 0.07817,-0.30342 0.08412,-0.30126 0.08895,-0.30019 0.09378,-0.2984 0.09934,-0.29695 0.10418,-0.29535 0.1101,-0.29265 0.1146,-0.29123 0.11979,-0.28924 0.12481,-0.2869 0.12947,-0.28513 0.13521,-0.28208 0.13951,-0.28028 0.14453,-0.27742 0.14937,-0.27526 0.1537,-0.27256 0.15923,-0.26953 0.16337,-0.26664 0.16838,-0.26415 0.1725,-0.26074 0.17717,-0.25839 0.18201,-0.25446 0.18596,-0.2516 0.19062,-0.24835 0.19492,-0.24479 0.19888,-0.24191 0.20371,-0.23776 0.20729,-0.23421 0.21124,-0.23097 0.21536,-0.22684 0.21932,-0.22343 0.22343,-0.21932 0.22684,-0.21536 0.23097,-0.21124 0.23421,-0.20729 0.23776,-0.20371 0.24191,-0.19888 0.24479,-0.19492 0.24835,-0.19062 0.2516,-0.18596 0.25446,-0.18201 0.25839,-0.17717 0.26074,-0.1725 0.26415,-0.16838 0.26664,-0.16337 0.26953,-0.15923 0.27256,-0.1537 0.27526,-0.14937 0.27742,-0.14453 0.28028,-0.13951 0.28208,-0.13521 0.28513,-0.12947 0.2869,-0.12481 0.28924,-0.11979 0.29123,-0.1146 0.29265,-0.1101 0.29535,-0.10418 0.29695,-0.09934 0.2984,-0.09378 0.30019,-0.08895 0.30126,-0.08412 0.30342,-0.07817 0.3043,-0.07282 0.30539,-0.06778 0.30664,-0.0624 0.30754,-0.05756 0.30896,-0.0511 0.30951,-0.04627 0.31023,-0.04107 0.31131,-0.03514 0.31096,-0.03031 0.31219,-0.02421 0.31256,-0.01918 0.31273,-0.01363 0.31275,-0.0083 0.31274,-0.003 0.31274,0.003 0.31273,0.0083 0.31275,0.01363 0.31255,0.01918 0.3122,0.02421 0.31095,0.03031 0.31131,0.03514 0.31022,0.04107 0.30951,0.04627 0.30898,0.0511 0.30753,0.05756 0.30663,0.0624 0.30539,0.06778 0.30432,0.07282 0.30342,0.07817 0.30126,0.08412 0.30017,0.08895 0.2984,0.09378 0.29697,0.09934 0.29533,0.10418 0.29265,0.1101 0.29123,0.1146 0.28924,0.11979 0.28692,0.12481 0.28512,0.12947 0.28208,0.13521 0.28028,0.13951 0.27742,0.14453 0.27526,0.14937 0.27256,0.1537 0.26952,0.15923 0.26666,0.16337 0.26413,0.16838 0.26076,0.1725 0.25838,0.17717 0.25447,0.18201 0.25159,0.18596 0.24834,0.19062 0.2448,0.19492 0.2419,0.19888 0.23778,0.20371 0.23421,0.20729 0.23095,0.21124 0.22686,0.21536 0.22343,0.21932 0.2193,0.22343 0.21537,0.22684 0.21125,0.23097 0.20729,0.23421 0.20371,0.23776 0.19886,0.24191 0.19493,0.24479 0.19063,0.24835 0.18595,0.2516 0.18202,0.25446 0.17716,0.25839 0.17251,0.26074 0.16838,0.26415 0.16338,0.26664 0.15922,0.26953 0.15369,0.27256 0.14938,0.27526 0.14452,0.27742 0.13952,0.28028 0.13521,0.28208 0.12946,0.28513 0.12481,0.2869 0.11979,0.28924 0.11459,0.29123 0.11011,0.29265 0.10418,0.29535 0.09934,0.29695 0.09378,0.2984 0.08896,0.30019 0.0841,0.30126 0.07819,0.30342 0.0728,0.3043 0.06779,0.30539 0.06239,0.30664 0.05756,0.30754 0.05112,0.30896 0.04625,0.30951 0.04107,0.31023 0.03516,0.31131 0.03029,0.31096 0.02422,0.31219 0.01919,0.31256 0.01361,0.31273 0.0083,0.31275 0.0031,0.31274" /></g><g
                       id="g98"><path
                         id="path100"
                         style="fill:none;stroke:#a50034;stroke-width:0.79701;stroke-linecap:round;stroke-linejoin:miter;stroke-miterlimit:10;stroke-dasharray:none;stroke-opacity:1"
                         d="m 98.62738,134.4919 0.9366,-0.63428 0.92996,-0.65022 0.92459,-0.66635 0.91796,-0.68233 0.9115,-0.69774 0.90394,-0.71246 0.89807,-0.72823 0.89016,-0.744 0.88191,-0.75693 0.87491,-0.77199 0.86593,-0.78703 0.85808,-0.80086 0.84836,-0.81413 0.83941,-0.82721 0.83135,-0.84157 0.82057,-0.85411 0.81162,-0.86719 0.80192,-0.87851 0.79154,-0.89195 0.78042,-0.90359 0.76927,-0.91527 0.75855,-0.92585 0.74779,-0.9384 0.73646,-0.9486 0.72464,-0.9585 0.71245,-0.9694 0.70116,-0.97963 0.68788,-0.9879 0.67639,-0.99865 0.6626,-1.00654 0.6506,-1.01694 0.63658,-1.02341 0.62422,-1.03288 0.60953,-1.03953 0.59679,-1.04815 0.58224,-1.05423 0.56937,-1.06141 0.55373,-1.06876 0.54013,-1.07414 0.52542,-1.08078 0.51124,-1.0858 0.49494,-1.09134 0.48111,-1.09532 0.46589,-1.09961 0.44954,-1.10515 0.43595,-1.10858 0.41853,-1.11144 0.40295,-1.11485 0.38875,-1.1179 0.37139,-1.12076 0.35613,-1.1231 0.33929,-1.12435 0.32421,-1.12615 0.30611,-1.12721 0.29031,-1.12723 0.27401,-1.12883 0.25732,-1.12759 0.24048,-1.12883 0.22343,-1.12668 0.20729,-1.12776 0.18993,-1.12471 0.17285,-1.12453 0.15566,-1.12096 0.13879,-1.12022 0.12212,-1.117 0.10418,-1.11359 0.0873,-1.1109 0.0707,-1.10766 0.0527,-1.10232 0.0362,-1.09852 0.0186,-1.09404 0.001,-1.08957 -0.0172,-1.0833 -0.0333,-1.07845 -0.0502,-1.07179 -0.0681,-1.06644 -0.0852,-1.05836 -0.10204,-1.05171 -0.1196,-1.04529 -0.13612,-1.03755 -0.15438,-1.02931 -0.17109,-1.02018 -0.18721,-1.01335 -0.20515,-1.00402 -0.22145,-0.99381 -0.23831,-0.9852 -0.25482,-0.97552 -0.27185,-0.96546 -0.28802,-0.95471 -0.305,-0.94467 -0.32118,-0.93392 -0.33748,-0.92172 -0.35363,-0.91095 -0.36995,-0.89877 -0.38571,-0.88693 -0.40115,-0.87401 -0.4171,-0.86273 -0.43361,-0.8491 -0.44759,-0.83581 -0.46319,-0.82346 -0.48022,-0.80749 -0.49386,-0.79511 -0.50873,-0.78059 -0.52271,-0.76734 -0.53799,-0.75385 -0.55357,-0.73559 -0.567,-0.72266 -0.57976,-0.70762 -0.59498,-0.69217 -0.60793,-0.67767 -0.62295,-0.65776 -0.63498,-0.64447 -0.64862,-0.62819 -0.66135,-0.61112 -0.67352,-0.59642 -0.6877,-0.57582 -0.69882,-0.56179 -0.71102,-0.54319 -0.72338,-0.52702 -0.73362,-0.51035 -0.74723,-0.49009 -0.75675,-0.47324 -0.76927,-0.45566 -0.77828,-0.43718 -0.78991,-0.42086 -0.80049,-0.39936 -0.80947,-0.38286 -0.82022,-0.36384 -0.82954,-0.34447 -0.83852,-0.328 -0.84891,-0.30591 -0.85609,-0.28799 -0.86469,-0.27042 -0.87293,-0.2498 -0.88138,-0.23169 -0.88962,-0.21106 -0.89589,-0.19243 -0.90416,-0.17178 -0.90987,-0.15349 -0.91705,-0.13558 -0.92459,-0.11277 -0.92924,-0.09525 -0.93572,-0.07512 -0.94074,-0.05468 -0.94537,-0.03713 -0.95237,-0.01471 -0.95473,0.004 -0.9608,0.02311 -0.96332,0.04321 -0.96781,0.06134 -0.9714,0.08411 -0.97514,0.10239 -0.97678,0.12123 -0.98035,0.14201 -0.98144,0.15854 -0.98483,0.18182 -0.98555,0.19941 -0.98754,0.21913 -0.98825,0.23867 -0.98806,0.25501 -0.99023,0.27812 -0.99022,0.29588 -0.98896,0.31543 -0.9895,0.33355 -0.98789,0.3502 -0.98842,0.37227 -0.98575,0.39023 -0.98393,0.40741 -0.98233,0.42607 -0.98017,0.44238 -0.97804,0.46463 -0.97479,0.48024 -0.97174,0.49725 -0.96907,0.51717 -0.96315,0.53096 -0.9608,0.55179 -0.95686,0.56755 -0.95185,0.58459 -0.94645,0.60074 -0.94127,0.61634 -0.93518,0.63459 -0.92996,0.65024 -0.9246,0.66637 -0.91848,0.68268 -0.91239,0.69702 -0.90252,0.7128 -0.89878,0.72806 -0.88962,0.74365 -0.88226,0.75781 -0.87582,0.77127 -0.86505,0.78778 -0.85752,0.80048 -0.84837,0.81413 -0.84012,0.82704 -0.83206,0.84137 -0.81969,0.85483 -0.81161,0.8672 -0.80139,0.87816 -0.79154,0.89194 -0.78184,0.90324 -0.76786,0.91564 -0.75906,0.92619 -0.74797,0.93785 -0.73593,0.94826 -0.72589,0.95866 -0.71103,0.96979 -0.70133,0.9791 -0.68771,0.98841 -0.67639,0.99865 -0.66403,1.00619 -0.64933,1.01675 -0.63661,1.0234 -0.62404,1.03343 -0.60968,1.039 -0.59805,1.04832 -0.58136,1.05494 -0.5688,1.06106 -0.55448,1.06859 -0.53939,1.07431 -0.52686,1.08042 -0.50964,1.0867 -0.49527,1.09028 -0.48167,1.09566 -0.46516,1.09978 -0.451,1.10481 -0.43449,1.10893 -0.41927,1.11125 -0.40276,1.1154 -0.38769,1.11718 -0.37335,1.12077 -0.35469,1.12346 -0.34001,1.12416 -0.32349,1.12632 -0.30628,1.12669 -0.29158,1.12739 -0.27311,1.12956 -0.25679,1.12723 -0.24102,1.12918 -0.22341,1.12668 -0.2082,1.12705 -0.18847,1.12509 -0.17287,1.12451 -0.1562,1.12132 -0.13825,1.11984 -0.12356,1.11667 -0.10328,1.11431 -0.08752,1.11035 -0.07011,1.10733 -0.05254,1.10283 -0.03767,1.09817 -0.0172,1.09441 -0.0011,1.08957 0.01703,1.08275 0.03336,1.07844 0.04895,1.07198 0.06886,1.06662 0.08589,1.05855 0.10204,1.05172 0.11941,1.04473 0.13486,1.03773 0.15565,1.02913 0.17072,1.02107 0.18704,1.0128 0.20586,1.00422 0.22001,0.99345 0.2396,0.98502 0.25499,0.97604 0.27187,0.96548 0.28797,0.95472 0.30361,0.94432 0.32187,0.93209 0.33747,0.92173 0.35364,0.91096 0.37012,0.89929 0.38482,0.8882 0.40186,0.87221 0.41675,0.86363 0.43342,0.84856 0.44831,0.836 0.46229,0.82471 0.48024,0.80747 0.49385,0.79513 0.50873,0.78057 0.52272,0.76734 0.53797,0.75387 0.55359,0.73559 0.567,0.72267 0.57975,0.70759 0.59499,0.69219 0.60791,0.67767 0.62297,0.65776 0.63498,0.64447 0.64861,0.62817 0.66134,0.61112 0.67352,0.59642 0.68772,0.57582 0.69882,0.56182 0.71101,0.54318 0.72338,0.52702 0.73363,0.51034 0.74724,0.4901 0.75672,0.47324 0.76929,0.45564 0.77826,0.43719 0.78993,0.42087 0.8005,0.39934 0.80946,0.38286 0.82022,0.36384 0.82954,0.34448 0.8385,0.32801 0.84891,0.30591 0.85611,0.28798 0.86468,0.27043 0.87294,0.2498 0.88137,0.23169 0.88962,0.21104 0.8959,0.19244 0.90415,0.17178 0.90988,0.1535 0.91705,0.13556 0.92459,0.11279 0.92924,0.0952 0.93572,0.0751 0.94072,0.0547 0.94539,0.0371 0.95238,0.0147 0.95473,-0.004 0.9608,-0.0231 0.96331,-0.0432 0.9678,-0.0613 0.97141,-0.0841 0.97514,-0.10239 0.97678,-0.12123 0.98035,-0.14203 0.98143,-0.15852 0.98484,-0.18182 0.98555,-0.19942 0.98754,-0.21913 0.98825,-0.23867 0.98807,-0.255 0.9902,-0.27814 0.99023,-0.29587 0.98896,-0.31543 0.9895,-0.33354 0.98788,-0.35022 0.98844,-0.37225 0.98575,-0.39023 0.98393,-0.40741 0.98231,-0.42609 0.98018,-0.44236 0.97805,-0.46465 0.97479,-0.48022 0.97174,-0.49726 0.96905,-0.51718 0.96317,-0.53096 0.96078,-0.55177 0.95688,-0.56755 0.95184,-0.5846 0.94646,-0.60073 0.94127,-0.61632" /></g><g
                       id="g102"><path
                         id="path104"
                         style="fill:none;stroke:#00a6d6;stroke-width:1.59404004;stroke-linecap:round;stroke-linejoin:miter;stroke-miterlimit:10;stroke-dasharray:none;stroke-opacity:1"
                         d="M 80.69513,80.69513 H 94.84157" /><g
                         transform="translate(94.84157,80.69513)"
                         id="g106"><g
                           id="g108"><path
                             id="path110"
                             style="fill:#00a6d6;fill-opacity:1;fill-rule:nonzero;stroke:none"
                             d="M 3.78581,0 -2.27148,3.02866 0,0 -2.27148,-3.02866" /></g></g><g
                         id="g112"><g
                           transform="translate(103.324,70.682)"
                           id="g114"><g
                             id="g116"><g
                               transform="translate(-109.193,-76.551)"
                               id="g118"><text
                                 id="text122"
                                 style="font-variant:normal;font-weight:normal;font-size:11.9552002px;font-family:CMBX12;-inkscape-font-specification:CMBX12;writing-mode:lr-tb;fill:#00a6d6;fill-opacity:1;fill-rule:nonzero;stroke:none"
                                 transform="matrix(1,0,0,-1,109.193,76.551)"><tspan
                                   id="tspan120"
                                   y="0"
                                   x="0">e</tspan></text>
<text
                                 id="text126"
                                 style="font-variant:normal;font-weight:normal;font-size:7.97009993px;font-family:CMR8;-inkscape-font-specification:CMR8;writing-mode:lr-tb;fill:#00a6d6;fill-opacity:1;fill-rule:nonzero;stroke:none"
                                 transform="matrix(1,0,0,-1,115.33,74.757)"><tspan
                                   id="tspan124"
                                   y="0"
                                   x="0">1</tspan></text>
<g
                                 transform="translate(109.193,76.551)"
                                 id="g128" /></g></g><g
                             transform="translate(-103.324,-70.682)"
                             id="g130" /></g></g></g><g
                       id="g132"><path
                         id="path134"
                         style="fill:none;stroke:#00a6d6;stroke-width:1.59404004;stroke-linecap:round;stroke-linejoin:miter;stroke-miterlimit:10;stroke-dasharray:none;stroke-opacity:1"
                         d="M 80.69513,80.69513 V 94.84157" /><g
                         transform="rotate(90,-7.07322,87.76835)"
                         id="g136"><g
                           id="g138"><path
                             id="path140"
                             style="fill:#00a6d6;fill-opacity:1;fill-rule:nonzero;stroke:none"
                             d="M 3.78581,0 -2.27148,3.02866 0,0 -2.27148,-3.02866" /></g></g><g
                         id="g142"><g
                           transform="translate(65.126,105.118)"
                           id="g144"><g
                             id="g146"><g
                               transform="translate(-70.995,-110.987)"
                               id="g148"><text
                                 id="text152"
                                 style="font-variant:normal;font-weight:normal;font-size:11.9552002px;font-family:CMBX12;-inkscape-font-specification:CMBX12;writing-mode:lr-tb;fill:#00a6d6;fill-opacity:1;fill-rule:nonzero;stroke:none"
                                 transform="matrix(1,0,0,-1,70.995,110.987)"><tspan
                                   id="tspan150"
                                   y="0"
                                   x="0">e</tspan></text>
<text
                                 id="text156"
                                 style="font-variant:normal;font-weight:normal;font-size:7.97009993px;font-family:CMR8;-inkscape-font-specification:CMR8;writing-mode:lr-tb;fill:#00a6d6;fill-opacity:1;fill-rule:nonzero;stroke:none"
                                 transform="matrix(1,0,0,-1,77.132,109.193)"><tspan
                                   id="tspan154"
                                   y="0"
                                   x="0">2</tspan></text>
<g
                                 transform="translate(70.995,110.987)"
                                 id="g158" /></g></g><g
                             transform="translate(-65.127,-105.118)"
                             id="g160" /></g></g></g><g
                       id="g162"><path
                         id="path164"
                         style="fill:none;stroke:#ed6842;stroke-width:1.59404004;stroke-linecap:round;stroke-linejoin:miter;stroke-miterlimit:10;stroke-dasharray:none;stroke-opacity:1"
                         d="M 80.69513,80.69513 97.4303,130.90051" /><g
                         transform="matrix(0.31621,0.94864,-0.94864,0.31621,97.4303,130.90051)"
                         id="g166"><g
                           id="g168"><path
                             id="path170"
                             style="fill:#ed6842;fill-opacity:1;fill-rule:nonzero;stroke:none"
                             d="M 3.78581,0 -2.27148,3.02866 0,0 -2.27148,-3.02866" /></g></g><g
                         id="g172"><g
                           transform="translate(103.325,142.177)"
                           id="g174"><g
                             id="g176"><g
                               transform="translate(-109.193,-148.046)"
                               id="g178"><text
                                 id="text182"
                                 style="font-variant:normal;font-weight:normal;font-size:11.9552002px;font-family:CMMI12;-inkscape-font-specification:CMMI12;writing-mode:lr-tb;fill:#ed6842;fill-opacity:1;fill-rule:nonzero;stroke:none"
                                 transform="matrix(1,0,0,-1,109.193,148.046)"><tspan
                                   id="tspan180"
                                   y="0"
                                   x="0">T</tspan></text>
<text
                                 id="text186"
                                 style="font-variant:normal;font-weight:normal;font-size:11.9552002px;font-family:CMR12;-inkscape-font-specification:CMR12;writing-mode:lr-tb;fill:#ed6842;fill-opacity:1;fill-rule:nonzero;stroke:none"
                                 transform="matrix(1,0,0,-1,117.68,148.046)"><tspan
                                   id="tspan184"
                                   y="0"
                                   x="0">(</tspan></text>
<text
                                 id="text190"
                                 style="font-variant:normal;font-weight:normal;font-size:11.9552002px;font-family:CMBX12;-inkscape-font-specification:CMBX12;writing-mode:lr-tb;fill:#ed6842;fill-opacity:1;fill-rule:nonzero;stroke:none"
                                 transform="matrix(1,0,0,-1,122.232,148.046)"><tspan
                                   id="tspan188"
                                   y="0"
                                   x="0">e</tspan></text>
<text
                                 id="text194"
                                 style="font-variant:normal;font-weight:normal;font-size:7.97009993px;font-family:CMR8;-inkscape-font-specification:CMR8;writing-mode:lr-tb;fill:#ed6842;fill-opacity:1;fill-rule:nonzero;stroke:none"
                                 transform="matrix(1,0,0,-1,128.369,146.253)"><tspan
                                   id="tspan192"
                                   y="0"
                                   x="0">1</tspan></text>
<text
                                 id="text198"
                                 style="font-variant:normal;font-weight:normal;font-size:11.9552002px;font-family:CMR12;-inkscape-font-specification:CMR12;writing-mode:lr-tb;fill:#ed6842;fill-opacity:1;fill-rule:nonzero;stroke:none"
                                 transform="matrix(1,0,0,-1,133.101,148.046)"><tspan
                                   id="tspan196"
                                   y="0"
                                   x="0">)</tspan></text>
<g
                                 transform="translate(109.193,148.046)"
                                 id="g200" /></g></g><g
                             transform="translate(-103.325,-142.177)"
                             id="g202" /></g></g></g><g
                       id="g204"><path
                         id="path206"
                         style="fill:none;stroke:#ed6842;stroke-width:1.59404004;stroke-linecap:round;stroke-linejoin:miter;stroke-miterlimit:10;stroke-dasharray:none;stroke-opacity:1"
                         d="m 80.69513,80.69513 50.6469,-33.76462" /><g
                         transform="matrix(0.83202,-0.55467,0.55467,0.83202,131.34203,46.93053)"
                         id="g208"><g
                           id="g210"><path
                             id="path212"
                             style="fill:#ed6842;fill-opacity:1;fill-rule:nonzero;stroke:none"
                             d="M 3.78581,0 -2.27148,3.02866 0,0 -2.27148,-3.02866" /></g></g><g
                         id="g214"><g
                           transform="translate(139.189,31.165)"
                           id="g216"><g
                             id="g218"><g
                               transform="translate(-145.057,-37.034)"
                               id="g220"><text
                                 id="text224"
                                 style="font-variant:normal;font-weight:normal;font-size:11.9552002px;font-family:CMMI12;-inkscape-font-specification:CMMI12;writing-mode:lr-tb;fill:#ed6842;fill-opacity:1;fill-rule:nonzero;stroke:none"
                                 transform="matrix(1,0,0,-1,145.057,37.034)"><tspan
                                   id="tspan222"
                                   y="0"
                                   x="0">T</tspan></text>
<text
                                 id="text228"
                                 style="font-variant:normal;font-weight:normal;font-size:11.9552002px;font-family:CMR12;-inkscape-font-specification:CMR12;writing-mode:lr-tb;fill:#ed6842;fill-opacity:1;fill-rule:nonzero;stroke:none"
                                 transform="matrix(1,0,0,-1,153.544,37.034)"><tspan
                                   id="tspan226"
                                   y="0"
                                   x="0">(</tspan></text>
<text
                                 id="text232"
                                 style="font-variant:normal;font-weight:normal;font-size:11.9552002px;font-family:CMBX12;-inkscape-font-specification:CMBX12;writing-mode:lr-tb;fill:#ed6842;fill-opacity:1;fill-rule:nonzero;stroke:none"
                                 transform="matrix(1,0,0,-1,158.096,37.034)"><tspan
                                   id="tspan230"
                                   y="0"
                                   x="0">e</tspan></text>
<text
                                 id="text236"
                                 style="font-variant:normal;font-weight:normal;font-size:7.97009993px;font-family:CMR8;-inkscape-font-specification:CMR8;writing-mode:lr-tb;fill:#ed6842;fill-opacity:1;fill-rule:nonzero;stroke:none"
                                 transform="matrix(1,0,0,-1,164.233,35.24)"><tspan
                                   id="tspan234"
                                   y="0"
                                   x="0">2</tspan></text>
<text
                                 id="text240"
                                 style="font-variant:normal;font-weight:normal;font-size:11.9552002px;font-family:CMR12;-inkscape-font-specification:CMR12;writing-mode:lr-tb;fill:#ed6842;fill-opacity:1;fill-rule:nonzero;stroke:none"
                                 transform="matrix(1,0,0,-1,168.965,37.034)"><tspan
                                   id="tspan238"
                                   y="0"
                                   x="0">)</tspan></text>
<g
                                 transform="translate(145.057,37.034)"
                                 id="g242" /></g></g><g
                             transform="translate(-139.189,-31.165)"
                             id="g244" /></g></g></g></g></g></g><g
                 transform="translate(-0.199,-0.2)"
                 id="g246" /></g><g
               transform="translate(0.199,0.2)"
               id="g248" /></g><g
             id="g250" /><g
             id="g252" /></g></g><g
         transform="translate(202.966)"
         id="g254"><g
           id="g256"><g
             id="g258" /><g
             id="g260"><g
               id="g262" /><g
               id="g264" /><g
               id="g266"><g
                 id="g268" /></g><g
               id="g270" /><g
               id="g272" /><g
               id="g274" /><g
               id="g276" /><g
               transform="translate(-0.199,-0.2)"
               id="g278"><g
                 transform="translate(0.199,0.2)"
                 id="g280"><g
                   id="g282"><g
                     id="g284" /><g
                     id="g286"><g
                       id="g288"><g
                         id="g290"><g
                           id="g292"><path
                             id="path294"
                             style="fill:none;stroke:#808080;stroke-width:0.19925;stroke-linecap:butt;stroke-linejoin:miter;stroke-miterlimit:10;stroke-dasharray:none;stroke-opacity:1"
                             d="M 62.76288,78.56926 V 82.821" /></g></g><g
                         id="g296"><g
                           id="g298" /></g><path
                         id="path300"
                         style="fill:none;stroke:#000000;stroke-width:0.3985;stroke-linecap:butt;stroke-linejoin:miter;stroke-miterlimit:10;stroke-dasharray:none;stroke-opacity:1"
                         d="M 0,80.69513 H 159.39775" /><g
                         transform="translate(159.39775,80.69513)"
                         id="g302"><g
                           id="g304"><path
                             id="path306"
                             style="fill:#000000;fill-opacity:1;fill-rule:nonzero;stroke:none"
                             d="M 1.99252,0 -1.19551,1.59401 0,0 -1.19551,-1.59401" /></g></g><path
                         id="path308"
                         style="fill:none;stroke:#000000;stroke-width:0.3985;stroke-linecap:butt;stroke-linejoin:miter;stroke-miterlimit:10;stroke-dasharray:none;stroke-opacity:1"
                         d="M 80.69513,0 V 159.39775" /><g
                         transform="rotate(90,-39.35131,120.04644)"
                         id="g310"><g
                           id="g312"><path
                             id="path314"
                             style="fill:#000000;fill-opacity:1;fill-rule:nonzero;stroke:none"
                             d="M 1.99252,0 -1.19551,1.59401 0,0 -1.19551,-1.59401" /></g></g><g
                         id="g316"><g
                           transform="translate(46.437,69.689)"
                           id="g318"><g
                             id="g320"><g
                               transform="translate(-255.271,-75.558)"
                               id="g322"><text
                                 id="text326"
                                 style="font-variant:normal;font-weight:normal;font-size:11.9552002px;font-family:CMSY10;-inkscape-font-specification:CMSY10;writing-mode:lr-tb;fill:#000000;fill-opacity:1;fill-rule:nonzero;stroke:none"
                                 transform="matrix(1,0,0,-1,255.271,75.558)"><tspan
                                   id="tspan324"
                                   y="0"
                                   x="0">−</tspan></text>
<text
                                 id="text330"
                                 style="font-variant:normal;font-weight:normal;font-size:11.9552002px;font-family:CMR12;-inkscape-font-specification:CMR12;writing-mode:lr-tb;fill:#000000;fill-opacity:1;fill-rule:nonzero;stroke:none"
                                 transform="matrix(1,0,0,-1,264.569,75.558)"><tspan
                                   id="tspan328"
                                   y="0"
                                   x="0">1</tspan></text>
<g
                                 transform="translate(255.271,75.558)"
                                 id="g332" /></g></g><g
                             transform="translate(-46.437,-69.689)"
                             id="g334" /></g></g><g
                         id="g336"><path
                           id="path338"
                           style="fill:none;stroke:#009b77;stroke-width:0.79701;stroke-linecap:round;stroke-linejoin:miter;stroke-miterlimit:10;stroke-dasharray:none;stroke-opacity:1"
                           d="m 98.62738,80.69513 -0.0027,0.31309 -0.0083,0.31275 -0.01363,0.31273 -0.01919,0.31238 -0.02457,0.31202 -0.02994,0.3113 -0.03532,0.31112 -0.04108,0.31041 -0.04606,0.30933 -0.05149,0.30881 -0.0572,0.30771 -0.06241,0.30682 -0.06778,0.30537 -0.07298,0.30414 -0.07836,0.30325 -0.08373,0.30144 -0.08897,0.30017 -0.09378,0.29857 -0.09933,0.29697 -0.10455,0.29498 -0.10976,0.29301 -0.11458,0.29105 -0.11996,0.28925 -0.12482,0.28709 -0.12964,0.28476 -0.13486,0.28244 -0.13969,0.28027 -0.14435,0.27741 -0.14938,0.27527 -0.15404,0.27221 -0.15906,0.26989 -0.16336,0.26664 -0.16819,0.26415 -0.1727,0.26073 -0.17734,0.25804 -0.18167,0.25465 -0.18595,0.25175 -0.19079,0.24819 -0.19475,0.24495 -0.19923,0.24156 -0.20317,0.23815 -0.20765,0.23419 -0.21125,0.23079 -0.21518,0.227 -0.21967,0.2231 -0.2231,0.21967 -0.227,0.21518 -0.23079,0.21125 -0.23419,0.20765 -0.23815,0.20317 -0.24156,0.19923 -0.24495,0.19475 -0.24819,0.19079 -0.25175,0.18595 -0.25465,0.18167 -0.25804,0.17734 -0.26073,0.1727 -0.26415,0.16819 -0.26664,0.16336 -0.26989,0.15906 -0.27221,0.15404 -0.27527,0.14938 -0.27741,0.14435 -0.28027,0.13969 -0.28244,0.13486 -0.28476,0.12964 -0.28709,0.12482 -0.28925,0.11996 -0.29105,0.11458 -0.29301,0.10976 -0.29498,0.10455 -0.29697,0.09933 -0.29857,0.09378 -0.30017,0.08897 -0.30144,0.08373 -0.30325,0.07836 -0.30414,0.07298 -0.30537,0.06778 -0.30682,0.06241 -0.30771,0.0572 -0.30881,0.05149 -0.30933,0.04606 -0.31041,0.04108 -0.31112,0.03532 -0.3113,0.02994 -0.31202,0.02457 -0.31238,0.01919 -0.31273,0.01363 -0.31275,0.0083 -0.31309,0.0027 -0.3131,-0.0027 -0.31274,-0.0083 -0.31274,-0.01363 -0.31237,-0.01919 -0.31202,-0.02457 -0.31131,-0.02994 -0.31111,-0.03532 -0.31041,-0.04108 -0.30935,-0.04606 -0.30879,-0.05149 -0.30754,-0.05756 -0.30664,-0.06239 -0.30539,-0.06779 -0.3043,-0.0728 -0.30342,-0.07819 -0.30126,-0.0841 -0.30019,-0.08896 -0.2984,-0.09378 L 74.8571,97.65025 74.56175,97.54607 74.2691,97.43596 73.97787,97.32137 73.68863,97.20158 73.40173,97.07677 73.1166,96.94731 72.83452,96.8121 72.55424,96.67258 72.27682,96.52806 72.00156,96.37868 71.729,96.22499 71.45947,96.06577 71.19283,95.90239 70.92868,95.73401 70.66794,95.5615 70.40955,95.38434 70.15509,95.20232 69.90349,95.01637 69.65514,94.82574 69.41035,94.63081 69.16844,94.43195 68.93068,94.22824 68.69647,94.02095 68.4655,93.8097 68.23866,93.59433 68.01523,93.37503 67.79591,93.1516 67.58055,92.92474 67.36931,92.69379 67.16202,92.45958 66.95831,92.2218 66.75943,91.9799 66.56451,91.7351 66.37389,91.48676 66.18793,91.23517 66.00592,90.9807 65.82875,90.72232 65.65625,90.46156 65.48787,90.19743 65.3245,89.93077 65.16527,89.66125 65.01157,89.38869 64.8622,89.11343 64.71767,88.83601 64.57816,88.55573 64.44295,88.27365 64.31348,87.98853 64.18867,87.70161 64.06888,87.41237 63.95428,87.12114 63.84418,86.82849 63.74,86.53316 63.64066,86.23619 63.54688,85.93779 63.45793,85.63762 63.37381,85.33636 63.29564,85.03294 63.22282,84.72862 63.15504,84.42323 63.09264,84.1166 63.03508,83.80907 62.98398,83.50009 62.93771,83.19058 62.89664,82.88036 62.8615,82.56905 62.83119,82.2581 62.80698,81.9459 62.7878,81.63335 62.77417,81.3206 l -0.0083,-0.31273 -0.003,-0.31274 0.003,-0.31274 0.0083,-0.31275 0.01363,-0.31273 0.01918,-0.31256 0.02421,-0.31219 0.03031,-0.31096 0.03514,-0.31131 0.04107,-0.31023 0.04627,-0.30951 0.0511,-0.30896 0.05756,-0.30754 0.0624,-0.30664 0.06778,-0.30539 0.07282,-0.3043 0.07817,-0.30342 0.08412,-0.30126 0.08895,-0.30019 0.09378,-0.2984 0.09934,-0.29695 0.10418,-0.29535 0.1101,-0.29265 0.1146,-0.29123 0.11979,-0.28924 0.12481,-0.2869 0.12947,-0.28513 0.13521,-0.28208 0.13951,-0.28028 0.14453,-0.27742 0.14937,-0.27526 0.1537,-0.27256 0.15923,-0.26953 0.16337,-0.26664 0.16838,-0.26415 0.1725,-0.26074 0.17717,-0.25839 0.18201,-0.25446 0.18596,-0.2516 0.19062,-0.24835 0.19492,-0.24479 0.19888,-0.24191 0.20371,-0.23776 0.20729,-0.23421 0.21124,-0.23097 0.21536,-0.22684 0.21932,-0.22343 0.22343,-0.21932 0.22684,-0.21536 0.23097,-0.21124 0.23421,-0.20729 0.23776,-0.20371 0.24191,-0.19888 0.24479,-0.19492 0.24835,-0.19062 0.2516,-0.18596 0.25446,-0.18201 0.25839,-0.17717 0.26074,-0.1725 0.26415,-0.16838 0.26664,-0.16337 0.26953,-0.15923 0.27256,-0.1537 0.27526,-0.14937 0.27742,-0.14453 0.28028,-0.13951 0.28208,-0.13521 0.28513,-0.12947 0.2869,-0.12481 0.28924,-0.11979 0.29123,-0.1146 0.29265,-0.1101 0.29535,-0.10418 0.29695,-0.09934 0.2984,-0.09378 0.30019,-0.08895 0.30126,-0.08412 0.30342,-0.07817 0.3043,-0.07282 0.30539,-0.06778 0.30664,-0.0624 0.30754,-0.05756 0.30896,-0.0511 0.30951,-0.04627 0.31023,-0.04107 0.31131,-0.03514 0.31096,-0.03031 0.31219,-0.02421 0.31256,-0.01918 0.31273,-0.01363 0.31275,-0.0083 0.31274,-0.003 0.31274,0.003 0.31273,0.0083 0.31275,0.01363 0.31255,0.01918 0.3122,0.02421 0.31095,0.03031 0.31131,0.03514 0.31022,0.04107 0.30951,0.04627 0.30898,0.0511 0.30753,0.05756 0.30663,0.0624 0.30539,0.06778 0.30432,0.07282 0.30342,0.07817 0.30126,0.08412 0.30017,0.08895 0.2984,0.09378 0.29697,0.09934 0.29533,0.10418 0.29265,0.1101 0.29123,0.1146 0.28924,0.11979 0.28692,0.12481 0.28512,0.12947 0.28208,0.13521 0.28028,0.13951 0.27742,0.14453 0.27526,0.14937 0.27256,0.1537 0.26952,0.15923 0.26666,0.16337 0.26413,0.16838 0.26076,0.1725 0.25838,0.17717 0.25447,0.18201 0.25159,0.18596 0.24834,0.19062 0.2448,0.19492 0.2419,0.19888 0.23778,0.20371 0.23421,0.20729 0.23095,0.21124 0.22686,0.21536 0.22343,0.21932 0.2193,0.22343 0.21537,0.22684 0.21125,0.23097 0.20729,0.23421 0.20371,0.23776 0.19886,0.24191 0.19493,0.24479 0.19063,0.24835 0.18595,0.2516 0.18202,0.25446 0.17716,0.25839 0.17251,0.26074 0.16838,0.26415 0.16338,0.26664 0.15922,0.26953 0.15369,0.27256 0.14938,0.27526 0.14452,0.27742 0.13952,0.28028 0.13521,0.28208 0.12946,0.28513 0.12481,0.2869 0.11979,0.28924 0.11459,0.29123 0.11011,0.29265 0.10418,0.29535 0.09934,0.29695 0.09378,0.2984 0.08896,0.30019 0.0841,0.30126 0.07819,0.30342 0.0728,0.3043 0.06779,0.30539 0.06239,0.30664 0.05756,0.30754 0.05112,0.30896 0.04625,0.30951 0.04107,0.31023 0.03516,0.31131 0.03029,0.31096 0.02422,0.31219 0.01919,0.31256 0.01361,0.31273 0.0083,0.31275 0.0031,0.31274" /></g><g
                         id="g340"><path
                           id="path342"
                           style="fill:none;stroke:#a50034;stroke-width:0.79701;stroke-linecap:round;stroke-linejoin:miter;stroke-miterlimit:10;stroke-dasharray:none;stroke-opacity:1"
                           d="m 98.62738,134.4919 0.9366,-0.63428 0.92996,-0.65022 0.92459,-0.66635 0.91796,-0.68233 0.9115,-0.69774 0.90394,-0.71246 0.89807,-0.72823 0.89016,-0.744 0.88191,-0.75693 0.87491,-0.77199 0.86593,-0.78703 0.85808,-0.80086 0.84836,-0.81413 0.83941,-0.82721 0.83135,-0.84157 0.82057,-0.85411 0.81162,-0.86719 0.80192,-0.87851 0.79154,-0.89195 0.78042,-0.90359 0.76927,-0.91527 0.75855,-0.92585 0.74779,-0.9384 0.73646,-0.9486 0.72464,-0.9585 0.71245,-0.9694 0.70116,-0.97963 0.68788,-0.9879 0.67639,-0.99865 0.6626,-1.00654 0.6506,-1.01694 0.63658,-1.02341 0.62422,-1.03288 0.60953,-1.03953 0.59679,-1.04815 0.58224,-1.05423 0.56937,-1.06141 0.55373,-1.06876 0.54013,-1.07414 0.52542,-1.08078 0.51124,-1.0858 0.49494,-1.09134 0.48111,-1.09532 0.46589,-1.09961 0.44954,-1.10515 0.43595,-1.10858 0.41853,-1.11144 0.40295,-1.11485 0.38875,-1.1179 0.37139,-1.12076 0.35613,-1.1231 0.33929,-1.12435 0.32421,-1.12615 0.30611,-1.12721 0.29031,-1.12723 0.27401,-1.12883 0.25732,-1.12759 0.24048,-1.12883 0.22343,-1.12668 0.20729,-1.12776 0.18993,-1.12471 0.17285,-1.12453 0.15566,-1.12096 0.13879,-1.12022 0.12212,-1.117 0.10418,-1.11359 0.0873,-1.1109 0.0707,-1.10766 0.0527,-1.10232 0.0362,-1.09852 0.0186,-1.09404 0.001,-1.08957 -0.0172,-1.0833 -0.0333,-1.07845 -0.0502,-1.07179 -0.0681,-1.06644 -0.0852,-1.05836 -0.10204,-1.05171 -0.1196,-1.04529 -0.13612,-1.03755 -0.15438,-1.02931 -0.17109,-1.02018 -0.18721,-1.01335 -0.20515,-1.00402 -0.22145,-0.99381 -0.23831,-0.9852 -0.25482,-0.97552 -0.27185,-0.96546 -0.28802,-0.95471 -0.305,-0.94467 -0.32118,-0.93392 -0.33748,-0.92172 -0.35363,-0.91095 -0.36995,-0.89877 -0.38571,-0.88693 -0.40115,-0.87401 -0.4171,-0.86273 -0.43361,-0.8491 -0.44759,-0.83581 -0.46319,-0.82346 -0.48022,-0.80749 -0.49386,-0.79511 -0.50873,-0.78059 -0.52271,-0.76734 -0.53799,-0.75385 -0.55357,-0.73559 -0.567,-0.72266 -0.57976,-0.70762 -0.59498,-0.69217 -0.60793,-0.67767 -0.62295,-0.65776 -0.63498,-0.64447 -0.64862,-0.62819 -0.66135,-0.61112 -0.67352,-0.59642 -0.6877,-0.57582 -0.69882,-0.56179 -0.71102,-0.54319 -0.72338,-0.52702 -0.73362,-0.51035 -0.74723,-0.49009 -0.75675,-0.47324 -0.76927,-0.45566 -0.77828,-0.43718 -0.78991,-0.42086 -0.80049,-0.39936 -0.80947,-0.38286 -0.82022,-0.36384 -0.82954,-0.34447 -0.83852,-0.328 -0.84891,-0.30591 -0.85609,-0.28799 -0.86469,-0.27042 -0.87293,-0.2498 -0.88138,-0.23169 -0.88962,-0.21106 -0.89589,-0.19243 -0.90416,-0.17178 -0.90987,-0.15349 -0.91705,-0.13558 -0.92459,-0.11277 -0.92924,-0.09525 -0.93572,-0.07512 -0.94074,-0.05468 -0.94537,-0.03713 -0.95237,-0.01471 -0.95473,0.004 -0.9608,0.02311 -0.96332,0.04321 -0.96781,0.06134 -0.9714,0.08411 -0.97514,0.10239 -0.97678,0.12123 -0.98035,0.14201 -0.98144,0.15854 -0.98483,0.18182 -0.98555,0.19941 -0.98754,0.21913 -0.98825,0.23867 -0.98806,0.25501 -0.99023,0.27812 -0.99022,0.29588 -0.98896,0.31543 -0.9895,0.33355 -0.98789,0.3502 -0.98842,0.37227 -0.98575,0.39023 -0.98393,0.40741 -0.98233,0.42607 -0.98017,0.44238 -0.97804,0.46463 -0.97479,0.48024 -0.97174,0.49725 -0.96907,0.51717 -0.96315,0.53096 -0.9608,0.55179 -0.95686,0.56755 -0.95185,0.58459 -0.94645,0.60074 -0.94127,0.61634 -0.93518,0.63459 -0.92996,0.65024 -0.9246,0.66637 -0.91848,0.68268 -0.91239,0.69702 -0.90252,0.7128 -0.89878,0.72806 -0.88962,0.74365 -0.88226,0.75781 -0.87582,0.77127 -0.86505,0.78778 -0.85752,0.80048 -0.84837,0.81413 -0.84012,0.82704 -0.83206,0.84137 -0.81969,0.85483 -0.81161,0.8672 -0.80139,0.87816 -0.79154,0.89194 -0.78184,0.90324 -0.76786,0.91564 -0.75906,0.92619 -0.74797,0.93785 -0.73593,0.94826 -0.72589,0.95866 -0.71103,0.96979 -0.70133,0.9791 -0.68771,0.98841 -0.67639,0.99865 -0.66403,1.00619 -0.64933,1.01675 -0.63661,1.0234 -0.62404,1.03343 -0.60968,1.039 -0.59805,1.04832 -0.58136,1.05494 -0.5688,1.06106 -0.55448,1.06859 -0.53939,1.07431 -0.52686,1.08042 -0.50964,1.0867 -0.49527,1.09028 -0.48167,1.09566 -0.46516,1.09978 -0.451,1.10481 -0.43449,1.10893 -0.41927,1.11125 -0.40276,1.1154 -0.38769,1.11718 -0.37335,1.12077 -0.35469,1.12346 -0.34001,1.12416 -0.32349,1.12632 -0.30628,1.12669 -0.29158,1.12739 -0.27311,1.12956 -0.25679,1.12723 -0.24102,1.12918 -0.22341,1.12668 -0.2082,1.12705 -0.18847,1.12509 -0.17287,1.12451 -0.1562,1.12132 -0.13825,1.11984 -0.12356,1.11667 -0.10328,1.11431 -0.08752,1.11035 -0.07011,1.10733 -0.05254,1.10283 -0.03767,1.09817 -0.0172,1.09441 -0.0011,1.08957 0.01703,1.08275 0.03336,1.07844 0.04895,1.07198 0.06886,1.06662 0.08589,1.05855 0.10204,1.05172 0.11941,1.04473 0.13486,1.03773 0.15565,1.02913 0.17072,1.02107 0.18704,1.0128 0.20586,1.00422 0.22001,0.99345 0.2396,0.98502 0.25499,0.97604 0.27187,0.96548 0.28797,0.95472 0.30361,0.94432 0.32187,0.93209 0.33747,0.92173 0.35364,0.91096 0.37012,0.89929 0.38482,0.8882 0.40186,0.87221 0.41675,0.86363 0.43342,0.84856 0.44831,0.836 0.46229,0.82471 0.48024,0.80747 0.49385,0.79513 0.50873,0.78057 0.52272,0.76734 0.53797,0.75387 0.55359,0.73559 0.567,0.72267 0.57975,0.70759 0.59499,0.69219 0.60791,0.67767 0.62297,0.65776 0.63498,0.64447 0.64861,0.62817 0.66134,0.61112 0.67352,0.59642 0.68772,0.57582 0.69882,0.56182 0.71101,0.54318 0.72338,0.52702 0.73363,0.51034 0.74724,0.4901 0.75672,0.47324 0.76929,0.45564 0.77826,0.43719 0.78993,0.42087 0.8005,0.39934 0.80946,0.38286 0.82022,0.36384 0.82954,0.34448 0.8385,0.32801 0.84891,0.30591 0.85611,0.28798 0.86468,0.27043 0.87294,0.2498 0.88137,0.23169 0.88962,0.21104 0.8959,0.19244 0.90415,0.17178 0.90988,0.1535 0.91705,0.13556 0.92459,0.11279 0.92924,0.0952 0.93572,0.0751 0.94072,0.0547 0.94539,0.0371 0.95238,0.0147 0.95473,-0.004 0.9608,-0.0231 0.96331,-0.0432 0.9678,-0.0613 0.97141,-0.0841 0.97514,-0.10239 0.97678,-0.12123 0.98035,-0.14203 0.98143,-0.15852 0.98484,-0.18182 0.98555,-0.19942 0.98754,-0.21913 0.98825,-0.23867 0.98807,-0.255 0.9902,-0.27814 0.99023,-0.29587 0.98896,-0.31543 0.9895,-0.33354 0.98788,-0.35022 0.98844,-0.37225 0.98575,-0.39023 0.98393,-0.40741 0.98231,-0.42609 0.98018,-0.44236 0.97805,-0.46465 0.97479,-0.48022 0.97174,-0.49726 0.96905,-0.51718 0.96317,-0.53096 0.96078,-0.55177 0.95688,-0.56755 0.95184,-0.5846 0.94646,-0.60073 0.94127,-0.61632" /></g><g
                         id="g344"><path
                           id="path346"
                           style="fill:none;stroke:#ed6842;stroke-width:1.59404004;stroke-linecap:round;stroke-linejoin:miter;stroke-miterlimit:10;stroke-dasharray:none;stroke-opacity:1"
                           d="m 80.69513,80.69513 40.31709,24.91736" /><g
                           transform="matrix(0.85062,0.52571,-0.52571,0.85062,121.0122,105.61249)"
                           id="g348"><g
                             id="g350"><path
                               id="path352"
                               style="fill:#ed6842;fill-opacity:1;fill-rule:nonzero;stroke:none"
                               d="M 3.78581,0 -2.27148,3.02866 0,0 -2.27148,-3.02866" /></g></g><g
                           id="g354"><g
                             transform="translate(128.93,104.612)"
                             id="g356"><g
                               id="g358"><g
                                 transform="translate(-337.764,-110.481)"
                                 id="g360"><text
                                   id="text364"
                                   style="font-variant:normal;font-weight:normal;font-size:11.9552002px;font-family:CMMI12;-inkscape-font-specification:CMMI12;writing-mode:lr-tb;fill:#ed6842;fill-opacity:1;fill-rule:nonzero;stroke:none"
                                   transform="matrix(1,0,0,-1,337.764,110.481)"><tspan
                                   id="tspan362"
                                   y="0"
                                   x="0">T</tspan></text>
<text
                                   id="text368"
                                   style="font-variant:normal;font-weight:normal;font-size:11.9552002px;font-family:CMR12;-inkscape-font-specification:CMR12;writing-mode:lr-tb;fill:#ed6842;fill-opacity:1;fill-rule:nonzero;stroke:none"
                                   transform="matrix(1,0,0,-1,346.251,110.481)"><tspan
                                   id="tspan366"
                                   y="0"
                                   x="0">(</tspan></text>
<text
                                   id="text372"
                                   style="font-variant:normal;font-weight:normal;font-size:11.9552002px;font-family:CMBX12;-inkscape-font-specification:CMBX12;writing-mode:lr-tb;fill:#ed6842;fill-opacity:1;fill-rule:nonzero;stroke:none"
                                   transform="matrix(1,0,0,-1,350.803,110.481)"><tspan
                                   id="tspan370"
                                   y="0"
                                   x="0">q</tspan></text>
<text
                                   id="text376"
                                   style="font-variant:normal;font-weight:normal;font-size:7.97009993px;font-family:CMR8;-inkscape-font-specification:CMR8;writing-mode:lr-tb;fill:#ed6842;fill-opacity:1;fill-rule:nonzero;stroke:none"
                                   transform="matrix(1,0,0,-1,357.902,108.688)"><tspan
                                   id="tspan374"
                                   y="0"
                                   x="0">1</tspan></text>
<text
                                   id="text380"
                                   style="font-variant:normal;font-weight:normal;font-size:11.9552002px;font-family:CMR12;-inkscape-font-specification:CMR12;writing-mode:lr-tb;fill:#ed6842;fill-opacity:1;fill-rule:nonzero;stroke:none"
                                   transform="matrix(1,0,0,-1,362.634,110.481)"><tspan
                                   id="tspan378"
                                   y="0"
                                   x="0">)</tspan></text>
<g
                                   transform="translate(337.764,110.481)"
                                   id="g382" /></g></g><g
                               transform="translate(-128.93,-104.612)"
                               id="g384" /></g></g></g><g
                         id="g386"><path
                           id="path388"
                           style="fill:none;stroke:#ed6842;stroke-width:1.59404004;stroke-linecap:round;stroke-linejoin:miter;stroke-miterlimit:10;stroke-dasharray:none;stroke-opacity:1"
                           d="M 80.69513,80.69513 115.04016,25.1237" /><g
                           transform="matrix(0.52571,-0.85062,0.85062,0.52571,115.04016,25.12372)"
                           id="g390"><g
                             id="g392"><path
                               id="path394"
                               style="fill:#ed6842;fill-opacity:1;fill-rule:nonzero;stroke:none"
                               d="M 3.78581,0 -2.27148,3.02866 0,0 -2.27148,-3.02866" /></g></g><g
                           id="g396"><g
                             transform="translate(102.318,8.238)"
                             id="g398"><g
                               id="g400"><g
                                 transform="translate(-311.152,-14.107)"
                                 id="g402"><text
                                   id="text406"
                                   style="font-variant:normal;font-weight:normal;font-size:11.9552002px;font-family:CMMI12;-inkscape-font-specification:CMMI12;writing-mode:lr-tb;fill:#ed6842;fill-opacity:1;fill-rule:nonzero;stroke:none"
                                   transform="matrix(1,0,0,-1,311.152,14.107)"><tspan
                                   id="tspan404"
                                   y="0"
                                   x="0">T</tspan></text>
<text
                                   id="text410"
                                   style="font-variant:normal;font-weight:normal;font-size:11.9552002px;font-family:CMR12;-inkscape-font-specification:CMR12;writing-mode:lr-tb;fill:#ed6842;fill-opacity:1;fill-rule:nonzero;stroke:none"
                                   transform="matrix(1,0,0,-1,319.639,14.107)"><tspan
                                   id="tspan408"
                                   y="0"
                                   x="0">(</tspan></text>
<text
                                   id="text414"
                                   style="font-variant:normal;font-weight:normal;font-size:11.9552002px;font-family:CMBX12;-inkscape-font-specification:CMBX12;writing-mode:lr-tb;fill:#ed6842;fill-opacity:1;fill-rule:nonzero;stroke:none"
                                   transform="matrix(1,0,0,-1,324.191,14.107)"><tspan
                                   id="tspan412"
                                   y="0"
                                   x="0">q</tspan></text>
<text
                                   id="text418"
                                   style="font-variant:normal;font-weight:normal;font-size:7.97009993px;font-family:CMR8;-inkscape-font-specification:CMR8;writing-mode:lr-tb;fill:#ed6842;fill-opacity:1;fill-rule:nonzero;stroke:none"
                                   transform="matrix(1,0,0,-1,331.29,12.313)"><tspan
                                   id="tspan416"
                                   y="0"
                                   x="0">2</tspan></text>
<text
                                   id="text422"
                                   style="font-variant:normal;font-weight:normal;font-size:11.9552002px;font-family:CMR12;-inkscape-font-specification:CMR12;writing-mode:lr-tb;fill:#ed6842;fill-opacity:1;fill-rule:nonzero;stroke:none"
                                   transform="matrix(1,0,0,-1,336.022,14.107)"><tspan
                                   id="tspan420"
                                   y="0"
                                   x="0">)</tspan></text>
<g
                                   transform="translate(311.152,14.107)"
                                   id="g424" /></g></g><g
                               transform="translate(-102.318,-8.238)"
                               id="g426" /></g></g></g><g
                         id="g428"><path
                           id="path430"
                           style="fill:none;stroke:#00a6d6;stroke-width:1.59404004;stroke-linecap:round;stroke-linejoin:miter;stroke-miterlimit:10;stroke-dasharray:none;stroke-opacity:1"
                           d="m 80.69513,80.69513 12.03404,7.43744" /><g
                           transform="matrix(0.85062,0.52571,-0.52571,0.85062,92.72916,88.13257)"
                           id="g432"><g
                             id="g434"><path
                               id="path436"
                               style="fill:#00a6d6;fill-opacity:1;fill-rule:nonzero;stroke:none"
                               d="M 3.78581,0 -2.27148,3.02866 0,0 -2.27148,-3.02866" /></g></g><g
                           id="g438"><g
                             transform="translate(100.647,88.627)"
                             id="g440"><g
                               id="g442"><g
                                 transform="translate(-309.481,-94.496)"
                                 id="g444"><text
                                   id="text448"
                                   style="font-variant:normal;font-weight:normal;font-size:11.9552002px;font-family:CMBX12;-inkscape-font-specification:CMBX12;writing-mode:lr-tb;fill:#00a6d6;fill-opacity:1;fill-rule:nonzero;stroke:none"
                                   transform="matrix(1,0,0,-1,309.481,94.496)"><tspan
                                   id="tspan446"
                                   y="0"
                                   x="0">q</tspan></text>
<text
                                   id="text452"
                                   style="font-variant:normal;font-weight:normal;font-size:7.97009993px;font-family:CMR8;-inkscape-font-specification:CMR8;writing-mode:lr-tb;fill:#00a6d6;fill-opacity:1;fill-rule:nonzero;stroke:none"
                                   transform="matrix(1,0,0,-1,316.58,92.703)"><tspan
                                   id="tspan450"
                                   y="0"
                                   x="0">1</tspan></text>
<g
                                   transform="translate(309.481,94.496)"
                                   id="g454" /></g></g><g
                               transform="translate(-100.647,-88.627)"
                               id="g456" /></g></g></g><g
                         id="g458"><path
                           id="path460"
                           style="fill:none;stroke:#00a6d6;stroke-width:1.59404004;stroke-linecap:round;stroke-linejoin:miter;stroke-miterlimit:10;stroke-dasharray:none;stroke-opacity:1"
                           d="M 80.69513,80.69513 73.25769,92.72917" /><g
                           transform="matrix(-0.52571,0.85062,-0.85062,-0.52571,73.25769,92.72916)"
                           id="g462"><g
                             id="g464"><path
                               id="path466"
                               style="fill:#00a6d6;fill-opacity:1;fill-rule:nonzero;stroke:none"
                               d="M 3.78581,0 -2.27148,3.02866 0,0 -2.27148,-3.02866" /></g></g><g
                           id="g468"><g
                             transform="translate(54.738,102.971)"
                             id="g470"><g
                               id="g472"><g
                                 transform="translate(-263.572,-108.84)"
                                 id="g474"><text
                                   id="text478"
                                   style="font-variant:normal;font-weight:normal;font-size:11.9552002px;font-family:CMBX12;-inkscape-font-specification:CMBX12;writing-mode:lr-tb;fill:#00a6d6;fill-opacity:1;fill-rule:nonzero;stroke:none"
                                   transform="matrix(1,0,0,-1,263.572,108.84)"><tspan
                                   id="tspan476"
                                   y="0"
                                   x="0">q</tspan></text>
<text
                                   id="text482"
                                   style="font-variant:normal;font-weight:normal;font-size:7.97009993px;font-family:CMR8;-inkscape-font-specification:CMR8;writing-mode:lr-tb;fill:#00a6d6;fill-opacity:1;fill-rule:nonzero;stroke:none"
                                   transform="matrix(1,0,0,-1,270.67,107.047)"><tspan
                                   id="tspan480"
                                   y="0"
                                   x="0">2</tspan></text>
<g
                                   transform="translate(263.572,108.84)"
                                   id="g484" /></g></g><g
                               transform="translate(-54.738,-102.971)"
                               id="g486" /></g></g></g></g></g></g><g
                   transform="translate(-0.199,-0.2)"
                   id="g488" /></g><g
                 transform="translate(0.199,0.2)"
                 id="g490" /></g><g
               id="g492" /><g
               id="g494" /></g></g></g></g></g></svg>